<?xml version="1.0" encoding="UTF-8"?>
<svg version="1.1" xmlns="http://www.w3.org/2000/svg" width="500" height="500">
<path d="M0 0 C10.0835403 -0.62587492 10.0835403 -0.62587492 13.5625 1.75 C15.96066614 5.50365135 17.24915704 8.12034968 17.26069641 12.63012695 C17.26778122 13.55540192 17.27486603 14.48067688 17.28216553 15.43399048 C17.27968811 16.44190643 17.27721069 17.44982239 17.2746582 18.48828125 C17.27976913 19.55533295 17.28488007 20.62238464 17.29014587 21.72177124 C17.30405629 25.25207106 17.30308417 28.78217601 17.30078125 32.3125 C17.304667 34.76342848 17.30900142 37.21435628 17.31376648 39.6652832 C17.32123154 44.80324486 17.32093503 49.94113781 17.31567383 55.07910156 C17.30987485 61.67019873 17.32681943 68.26101529 17.3500185 74.85206604 C17.36473335 79.91346894 17.36563067 84.97480387 17.36250877 90.03622437 C17.36302298 92.46675167 17.36827933 94.89728269 17.37832069 97.32778931 C17.39062575 100.72261938 17.38392903 104.11689783 17.37231445 107.51171875 C17.37995819 108.5196347 17.38760193 109.52755066 17.39547729 110.56600952 C17.38846298 111.49128448 17.38144867 112.41655945 17.3742218 113.36987305 C17.37438954 114.17216843 17.37455729 114.97446381 17.37473011 115.80107117 C16.90416311 118.56237407 15.90045315 119.97020168 14 122 C13.34 122 12.68 122 12 122 C12 122.66 12 123.32 12 124 C11.35385742 124.35118896 10.70771484 124.70237793 10.04199219 125.06420898 C2.75865851 129.02910452 -4.50446844 133.02895016 -11.75 137.0625 C-12.83410156 137.66126953 -13.91820312 138.26003906 -15.03515625 138.87695312 C-20.61515721 141.98717344 -25.85381803 145.22212841 -31 149 C-33.62284629 150.46929913 -36.27950246 151.71134327 -39 153 C-21.95479877 149.41375717 -6.62929953 143.6151637 9 136 C10.02738281 135.50628906 11.05476563 135.01257813 12.11328125 134.50390625 C18.38559991 131.43836243 24.45347981 128.09678551 30.45727539 124.53930664 C34.79027337 122 34.79027337 122 37 122 C37 121.34 37 120.68 37 120 C37.48726563 119.75507813 37.97453125 119.51015625 38.4765625 119.2578125 C44.47100836 116.09710468 49.87242285 112.33538937 55.30126953 108.30322266 C59.79590028 105 59.79590028 105 62 105 C62 104.34 62 103.68 62 103 C62.99 103 63.98 103 65 103 C65 102.34 65 101.68 65 101 C66.55351843 99.7469687 68.17150923 98.57357053 69.8125 97.4375 C75.77053491 93.21118586 81.38122746 88.66255387 87 84 C89.86183339 81.67919117 92.72463553 79.35960986 95.58984375 77.04296875 C98.03395576 75.03879983 98.03395576 75.03879983 100.19140625 72.73828125 C102 71 102 71 104 71 C104.37125 70.13375 104.37125 70.13375 104.75 69.25 C106.16727257 66.69890938 107.91182287 65.02026893 110 63 C109.0615625 62.44570312 108.123125 61.89140625 107.15625 61.3203125 C105.93727016 60.5889246 104.71853255 59.85713286 103.5 59.125 C102.87996094 58.76019531 102.25992188 58.39539063 101.62109375 58.01953125 C100.04632542 57.0677482 98.51870947 56.03889741 97 55 C97 54.34 97 53.68 97 53 C96.401875 52.9175 95.80375 52.835 95.1875 52.75 C92.26251194 51.74714695 91.4082205 50.74232413 90 48 C90.0625 44.9375 90.0625 44.9375 91 42 C94.27552456 38.90109686 98.26097087 37.64982992 102.4375 36.1875 C107.53059639 34.34535293 112.47996025 32.39465907 117.375 30.0625 C123.24219783 27.27485128 129.21679675 24.90428571 135.29443359 22.62329102 C139.35369453 21.08574803 143.31566756 19.42415339 147.2578125 17.60546875 C153.33684672 14.80712439 159.52591404 12.33009784 165.75 9.875 C167.91177539 9.01902948 170.07324246 8.16227978 172.234375 7.3046875 C173.23428467 6.90878418 174.23419434 6.51288086 175.2644043 6.10498047 C177.57350126 5.17227428 179.85324836 4.19805138 182.12890625 3.1875 C185 2 185 2 187.1875 2.125 C189.4546653 3.21949359 191.14174422 4.28263657 193 6 C193.42578125 8.41015625 193.42578125 8.41015625 193.3125 11.0625 C193.28800781 11.94035156 193.26351563 12.81820312 193.23828125 13.72265625 C193 16 193 16 192 18 C191.72984554 20.18007079 191.51089604 22.36656826 191.31640625 24.5546875 C191.25597641 25.21147491 191.19554657 25.86826233 191.13328552 26.54495239 C190.87527606 29.34941393 190.62635236 32.15465762 190.37768555 34.95996094 C189.69315967 42.62302418 188.86124128 50.18953343 187.51538086 57.77050781 C186.88502803 61.72044015 186.43205404 65.67652533 186 69.65234375 C185.87630287 70.78576202 185.87630287 70.78576202 185.75010681 71.94207764 C185.41139278 75.07029008 185.07722782 78.19893357 184.75 81.32836914 C184.50627558 83.64541718 184.25371042 85.96137093 184 88.27734375 C183.92910156 88.97947495 183.85820312 89.68160614 183.78515625 90.40501404 C183.36066672 94.22731072 182.79717419 97.57764681 181 101 C178 103 178 103 175.54150391 102.83618164 C172.64019209 101.8816194 171.40970609 100.83725844 169.3359375 98.62109375 C168.68882812 97.94755859 168.04171875 97.27402344 167.375 96.58007812 C166.715 95.87302734 166.055 95.16597656 165.375 94.4375 C164.05650338 93.03373381 162.73127884 91.63624727 161.3984375 90.24609375 C160.81755371 89.62404053 160.23666992 89.0019873 159.63818359 88.36108398 C157.9703924 86.68047189 157.9703924 86.68047189 155 87 C155 87.66 155 88.32 155 89 C154.34 89 153.68 89 153 89 C152.731875 89.639375 152.46375 90.27875 152.1875 90.9375 C151 93 151 93 148 94 C148 94.66 148 95.32 148 96 C147.34 96 146.68 96 146 96 C146 96.66 146 97.32 146 98 C144.56640625 99.4453125 144.56640625 99.4453125 142.5625 101.125 C138.58378677 104.49378571 134.7229439 107.9703982 130.8828125 111.49609375 C129 113 129 113 127 113 C127 113.66 127 114.32 127 115 C126.34 115 125.68 115 125 115 C125 115.66 125 116.32 125 117 C123.5390625 118.2890625 123.5390625 118.2890625 121.625 119.625 C120.99851562 120.07101563 120.37203125 120.51703125 119.7265625 120.9765625 C118 122 118 122 116 122 C116 122.66 116 123.32 116 124 C114.03342035 125.57019094 112.06862536 127.01193355 110 128.4375 C109.37279053 128.87634521 108.74558105 129.31519043 108.09936523 129.76733398 C106.75705312 130.70445105 105.41248925 131.63834938 104.06591797 132.56933594 C102.04871662 133.96626337 100.04123264 135.37622078 98.03515625 136.7890625 C89.82531558 142.53989752 81.45299028 147.86653295 72.80175781 152.92480469 C71.08411624 153.9498038 69.39647247 155.02458172 67.7109375 156.1015625 C53.7154289 165.01910887 38.17623879 171.96051445 22.78327942 178.09403992 C21.88644345 178.4517129 20.98960749 178.80938589 20.06559467 179.17789745 C19.38394843 179.44919129 18.70230219 179.72048513 18 180 C17.99120064 181.85922592 17.99120064 181.85922592 17.98222351 183.75601196 C17.92500229 195.43888992 17.85224355 207.12158163 17.76428509 218.80426979 C17.71956409 224.81041751 17.68031156 230.81649712 17.65356445 236.82275391 C17.62754906 242.61948918 17.58715862 248.41596261 17.53681374 254.21253586 C17.52013319 256.42366656 17.50862633 258.63484256 17.50238609 260.84602737 C17.49275818 263.94401731 17.46471362 267.04133556 17.43237305 270.13916016 C17.43452568 271.50941345 17.43452568 271.50941345 17.4367218 272.90734863 C17.34464477 279.14706525 16.24288733 283.39535665 12.0625 288.25 C0.87750686 297.74029721 -25.35583542 293.15035106 -39.05114746 293.12695312 C-41.74938462 293.124333 -44.44758895 293.12917873 -47.14582157 293.13394356 C-50.40060257 293.13844082 -53.65537422 293.13528795 -56.91015625 293.1328125 C-58.7040554 293.13584885 -58.7040554 293.13584885 -60.53419495 293.13894653 C-77.74731361 293.09074885 -77.74731361 293.09074885 -82.375 288.8125 C-83.34566406 287.95591797 -83.34566406 287.95591797 -84.3359375 287.08203125 C-88.44448704 281.94152208 -88.29028928 276.0947934 -88.26742554 269.83512878 C-88.27195665 268.9216366 -88.27648776 268.00814441 -88.28115618 267.06697065 C-88.29379994 264.01098541 -88.29217982 260.9551784 -88.29052734 257.89916992 C-88.2965126 255.70601676 -88.30331814 253.5128657 -88.31088257 251.31971741 C-88.32854996 245.36510159 -88.33323826 239.41054326 -88.33451414 233.45590377 C-88.33593587 229.73473434 -88.34020589 226.01357951 -88.34550858 222.29241371 C-88.36305647 209.97784098 -88.37234853 197.66329897 -88.37084763 185.3487142 C-88.37076772 184.68538412 -88.3706878 184.02205404 -88.37060547 183.33862305 C-88.37052371 182.67447914 -88.37044195 182.01033524 -88.37035771 181.32606576 C-88.36954502 170.56570056 -88.38868008 159.80547542 -88.4168822 149.04515072 C-88.44563921 137.98547468 -88.45905502 126.92587025 -88.45769465 115.8661564 C-88.45718495 109.6613957 -88.46287266 103.45679353 -88.48405075 97.25206566 C-88.50342898 91.41532156 -88.50356017 85.57888727 -88.48901749 79.74213219 C-88.4869278 77.6028142 -88.49163974 75.46347684 -88.5037384 73.32419205 C-88.51921401 70.39770625 -88.50986711 67.47228562 -88.49447632 64.54582214 C-88.50476344 63.70455802 -88.51505057 62.86329389 -88.52564943 61.99653691 C-88.45681173 56.05024757 -87.14496631 51.09787177 -84 46 C-79.84929899 42.00960373 -74.59186532 39.63441872 -69.4375 37.1875 C-64.17577075 34.62734443 -59.05562796 31.94766854 -54 29 C-48.6386493 25.87418567 -43.18435305 23.03387062 -37.61791992 20.29223633 C-31.30500427 17.17544673 -25.05521904 13.94235563 -18.8125 10.6875 C-17.82000244 10.17155273 -16.82750488 9.65560547 -15.80493164 9.12402344 C-14.39522095 8.38780762 -14.39522095 8.38780762 -12.95703125 7.63671875 C-12.12147705 7.20061279 -11.28592285 6.76450684 -10.42504883 6.31518555 C-8.7075644 5.38373597 -7.02715957 4.38238535 -5.37768555 3.33520508 C-3 2 -3 2 0 2 C0 1.34 0 0.68 0 0 Z " fill="#4866CB" transform="translate(207,100)"/>
<path d="M0 0 C2.1875 1.375 2.1875 1.375 3.1875 4.375 C3.28610414 6.62916914 3.32253693 8.88619884 3.32794189 11.14251709 C3.33091302 11.8343453 3.33388414 12.52617352 3.3369453 13.23896623 C3.34563315 15.56264331 3.34714062 17.88626889 3.34863281 20.20996094 C3.35326097 21.87390249 3.35828562 23.53784298 3.36367798 25.20178223 C3.37680522 29.72672326 3.3832477 34.25164946 3.38768864 38.77660656 C3.39061916 41.60374082 3.39472396 44.43087102 3.39919281 47.25800323 C3.4128693 56.10372453 3.42253492 64.94943655 3.4263947 73.79516768 C3.43087438 84.00551745 3.44841745 94.21573328 3.4773953 104.42604232 C3.49901645 112.31829406 3.50909923 120.21050812 3.51043582 128.10278916 C3.51148364 132.81633797 3.51738648 137.52976089 3.53525543 142.2432785 C3.55174333 146.67887955 3.55388813 151.1142602 3.54511642 155.54988098 C3.5443464 157.17563213 3.54868417 158.80139515 3.55857468 160.42711639 C3.57131098 162.65152151 3.56540886 164.87514799 3.55499268 167.09954834 C3.55719252 168.96448252 3.55719252 168.96448252 3.5594368 170.86709213 C3.00008974 176.14255277 1.60595329 180.06033598 -2.375 183.75 C-6.44888707 186.46592471 -8.81119487 186.51447002 -13.73730469 186.55200195 C-14.80593246 186.56185875 -14.80593246 186.56185875 -15.89614868 186.57191467 C-18.25889183 186.59165896 -20.62157133 186.60331384 -22.984375 186.61328125 C-23.79146156 186.61735678 -24.59854813 186.6214323 -25.43009186 186.62563133 C-29.70339198 186.64649871 -33.97665994 186.66079648 -38.25 186.67016602 C-42.65960498 186.68122096 -47.06870401 186.71560797 -51.47813034 186.75533772 C-54.87197798 186.78151335 -58.26570538 186.78985876 -61.65964508 186.79344749 C-63.28471537 186.79831247 -64.90978033 186.809924 -66.53475189 186.82848549 C-68.81361142 186.85289415 -71.09116633 186.85190929 -73.37011719 186.8449707 C-74.66536316 186.85083694 -75.96060913 186.85670319 -77.29510498 186.86274719 C-82.40087594 186.15474441 -86.58730379 183.40649527 -89.8125 179.375 C-92.52121393 174.42752032 -92.10798381 169.27256174 -92.10302734 163.7890625 C-92.10974457 162.72347107 -92.11646179 161.65787964 -92.12338257 160.55999756 C-92.1423705 157.03995088 -92.14628686 153.52009469 -92.1484375 150 C-92.15486363 147.55289633 -92.16159185 145.10579345 -92.16860962 142.65869141 C-92.1805835 137.53090635 -92.1842902 132.40318868 -92.18310547 127.27539062 C-92.182902 120.7011671 -92.21023353 114.12737447 -92.24464989 107.55325317 C-92.26687052 102.50038665 -92.27094453 97.44762474 -92.26988602 92.39471436 C-92.27224814 89.97058626 -92.28110583 87.54645554 -92.29655075 85.12237549 C-92.31611708 81.73492059 -92.31040937 78.34840712 -92.29833984 74.9609375 C-92.30957886 73.95818787 -92.32081787 72.95543823 -92.33239746 71.92230225 C-92.29319781 67.59904698 -92.24315583 65.08331858 -89.96060181 61.32910156 C-87.35671793 58.9603807 -84.73401933 57.40474182 -81.625 55.75 C-64.03019524 46.09610991 -47.75862896 34.36930574 -32.20239258 21.7265625 C-28.02706811 18.375 -28.02706811 18.375 -25.8125 18.375 C-25.8125 17.715 -25.8125 17.055 -25.8125 16.375 C-21.34191176 12.375 -21.34191176 12.375 -18.8125 12.375 C-18.8125 11.715 -18.8125 11.055 -18.8125 10.375 C-6.18899971 -1.37533327 -6.18899971 -1.37533327 0 0 Z " fill="#5F2FE2" transform="translate(372.8125,205.625)"/>
<path d="M0 0 C2.2671653 1.09449359 3.95424422 2.15763657 5.8125 3.875 C6.23828125 6.28515625 6.23828125 6.28515625 6.125 8.9375 C6.08826172 10.25427734 6.08826172 10.25427734 6.05078125 11.59765625 C5.8125 13.875 5.8125 13.875 4.8125 15.875 C4.54234554 18.05507079 4.32339604 20.24156826 4.12890625 22.4296875 C4.03826149 23.41486862 4.03826149 23.41486862 3.94578552 24.41995239 C3.68777606 27.22441393 3.43885236 30.02965762 3.19018555 32.83496094 C2.50565967 40.49802418 1.67374128 48.06453343 0.32788086 55.64550781 C-0.30247197 59.59544015 -0.75544596 63.55152533 -1.1875 67.52734375 C-1.31119713 68.66076202 -1.31119713 68.66076202 -1.43739319 69.81707764 C-1.77610722 72.94529008 -2.11027218 76.07393357 -2.4375 79.20336914 C-2.68122442 81.52041718 -2.93378958 83.83637093 -3.1875 86.15234375 C-3.25839844 86.85447495 -3.32929688 87.55660614 -3.40234375 88.28001404 C-3.82683328 92.10231072 -4.39032581 95.45264681 -6.1875 98.875 C-9.1875 100.875 -9.1875 100.875 -11.64599609 100.71118164 C-14.54730791 99.7566194 -15.77779391 98.71225844 -17.8515625 96.49609375 C-18.49867188 95.82255859 -19.14578125 95.14902344 -19.8125 94.45507812 C-20.4725 93.74802734 -21.1325 93.04097656 -21.8125 92.3125 C-23.13099662 90.90873381 -24.45622116 89.51124727 -25.7890625 88.12109375 C-26.36994629 87.49904053 -26.95083008 86.8769873 -27.54931641 86.23608398 C-29.2171076 84.55547189 -29.2171076 84.55547189 -32.1875 84.875 C-32.1875 85.535 -32.1875 86.195 -32.1875 86.875 C-32.8475 86.875 -33.5075 86.875 -34.1875 86.875 C-34.455625 87.514375 -34.72375 88.15375 -35 88.8125 C-36.1875 90.875 -36.1875 90.875 -39.1875 91.875 C-39.1875 92.535 -39.1875 93.195 -39.1875 93.875 C-39.8475 93.875 -40.5075 93.875 -41.1875 93.875 C-41.1875 94.535 -41.1875 95.195 -41.1875 95.875 C-42.62109375 97.3203125 -42.62109375 97.3203125 -44.625 99 C-48.60371323 102.36878571 -52.4645561 105.8453982 -56.3046875 109.37109375 C-58.1875 110.875 -58.1875 110.875 -60.1875 110.875 C-60.1875 111.535 -60.1875 112.195 -60.1875 112.875 C-60.8475 112.875 -61.5075 112.875 -62.1875 112.875 C-62.1875 113.535 -62.1875 114.195 -62.1875 114.875 C-63.6484375 116.1640625 -63.6484375 116.1640625 -65.5625 117.5 C-66.18898438 117.94601563 -66.81546875 118.39203125 -67.4609375 118.8515625 C-69.1875 119.875 -69.1875 119.875 -71.1875 119.875 C-71.1875 120.535 -71.1875 121.195 -71.1875 121.875 C-73.6625 122.865 -73.6625 122.865 -76.1875 123.875 C-75.8575 123.1325 -75.5275 122.39 -75.1875 121.625 C-73.95967129 118.73616688 -73.95967129 118.73616688 -74.1875 114.875 C-72.7025 114.38 -72.7025 114.38 -71.1875 113.875 C-71.1875 114.535 -71.1875 115.195 -71.1875 115.875 C-67.27146696 113.08079508 -67.27146696 113.08079508 -65.1875 108.875 C-64.8575 107.885 -64.5275 106.895 -64.1875 105.875 C-61.8775 106.205 -59.5675 106.535 -57.1875 106.875 C-56.8575 105.225 -56.5275 103.575 -56.1875 101.875 C-54.2075 101.38 -54.2075 101.38 -52.1875 100.875 C-52.1875 100.215 -52.1875 99.555 -52.1875 98.875 C-51.5275 98.875 -50.8675 98.875 -50.1875 98.875 C-49.8575 96.565 -49.5275 94.255 -49.1875 91.875 C-48.32125 92.24625 -48.32125 92.24625 -47.4375 92.625 C-45.05350165 93.13406348 -45.05350165 93.13406348 -42.9375 91.375 C-40.63175956 88.08108508 -40.88496619 85.80793957 -41.1875 81.875 C-39.1875 82.875 -37.1875 83.875 -35.1875 84.875 C-34.1975 83.39 -34.1975 83.39 -33.1875 81.875 C-32.1975 81.875 -31.2075 81.875 -30.1875 81.875 C-29.8575 81.215 -29.5275 80.555 -29.1875 79.875 C-29.1875 80.535 -29.1875 81.195 -29.1875 81.875 C-26.8775 82.205 -24.5675 82.535 -22.1875 82.875 C-21.8575 83.865 -21.5275 84.855 -21.1875 85.875 C-20.5275 85.875 -19.8675 85.875 -19.1875 85.875 C-18.8575 87.525 -18.5275 89.175 -18.1875 90.875 C-15.8775 90.545 -13.5675 90.215 -11.1875 89.875 C-10.5275 91.195 -9.8675 92.515 -9.1875 93.875 C-7.60477399 92.29227399 -7.84014253 90.49465997 -7.625 88.3125 C-7.54121094 87.48621094 -7.45742188 86.65992188 -7.37109375 85.80859375 C-7.31050781 85.17050781 -7.24992187 84.53242188 -7.1875 83.875 C-6.5275 83.875 -5.8675 83.875 -5.1875 83.875 C-5.1875 83.215 -5.1875 82.555 -5.1875 81.875 C-5.8475 81.875 -6.5075 81.875 -7.1875 81.875 C-6.87735608 79.79131462 -6.5642948 77.70806332 -6.25 75.625 C-6.07597656 74.46484375 -5.90195312 73.3046875 -5.72265625 72.109375 C-5.1875 68.875 -5.1875 68.875 -4.65234375 66.8671875 C-3.73071313 62.91734198 -3.72281802 58.81130423 -3.46875 54.7734375 C-3.1875 51.875 -3.1875 51.875 -2.1875 49.875 C-2.11568179 47.15739892 -2.09450494 44.46640612 -2.125 41.75 C-2.12951172 40.99589844 -2.13402344 40.24179688 -2.13867188 39.46484375 C-2.15046501 37.60152873 -2.16840058 35.73825445 -2.1875 33.875 C-1.1975 33.875 -0.2075 33.875 0.8125 33.875 C0.626875 32.699375 0.44125 31.52375 0.25 30.3125 C-0.26980996 26.26231406 0.0622646 22.87625547 0.8125 18.875 C0.1525 18.875 -0.5075 18.875 -1.1875 18.875 C-1.1875 18.215 -1.1875 17.555 -1.1875 16.875 C0.1325 16.875 1.4525 16.875 2.8125 16.875 C2.8125 14.565 2.8125 12.255 2.8125 9.875 C1.4925 9.875 0.1725 9.875 -1.1875 9.875 C-1.5175 10.535 -1.8475 11.195 -2.1875 11.875 C-6.0625 10.125 -6.0625 10.125 -7.1875 7.875 C-12.68852837 8.28757713 -16.94951664 10.42222675 -21.1875 13.875 C-21.1875 14.535 -21.1875 15.195 -21.1875 15.875 C-25.09055525 17.38299862 -27.20214198 17.99588194 -31.1875 16.875 C-33.19696222 17.14550453 -35.20104224 17.46867909 -37.1875 17.875 C-37.04736328 16.04321289 -37.04736328 16.04321289 -36.1875 13.875 C-33.70654297 12.45874023 -33.70654297 12.45874023 -30.4296875 11.18359375 C-29.24632812 10.71373047 -28.06296875 10.24386719 -26.84375 9.75976562 C-25.58351061 9.27688085 -24.32309236 8.79446259 -23.0625 8.3125 C-20.62229734 7.35311506 -18.18219038 6.39348666 -15.7421875 5.43359375 C-14.59693604 4.99015625 -13.45168457 4.54671875 -12.27172852 4.08984375 C-9.80545142 3.11840428 -7.37799527 2.10458622 -4.95703125 1.02734375 C-2.1875 -0.125 -2.1875 -0.125 0 0 Z " fill="#1B8863" transform="translate(394.1875,102.125)"/>
<path d="M0 0 C0.99 0 1.98 0 3 0 C3.33 0.99 3.66 1.98 4 3 C2.906875 3.433125 1.81375 3.86625 0.6875 4.3125 C-2.13790298 5.50873916 -3.92568798 6.70733935 -6 9 C-6.66 9 -7.32 9 -8 9 C-7.505 10.98 -7.505 10.98 -7 13 C-7.763125 12.9175 -8.52625 12.835 -9.3125 12.75 C-12.09676112 12.73265199 -12.09676112 12.73265199 -13.875 14.75 C-15.22699219 16.92335329 -15.22699219 16.92335329 -14.6875 19.25 C-14.460625 19.8275 -14.23375 20.405 -14 21 C-16.64 21 -19.28 21 -22 21 C-22 21.99 -22 22.98 -22 24 C-22.61875 24.0825 -23.2375 24.165 -23.875 24.25 C-26.18437567 24.81258459 -26.18437567 24.81258459 -27.25 27.0625 C-27.62125 28.0215625 -27.62125 28.0215625 -28 29 C-28.495 28.01 -28.495 28.01 -29 27 C-31.35953094 29.35953094 -31.49141413 30.77895617 -32 34 C-33.546875 34.433125 -33.546875 34.433125 -35.125 34.875 C-38.45007997 35.82308798 -41.72751453 36.88256594 -45 38 C-45.33 39.65 -45.66 41.3 -46 43 C-47.485 42.01 -47.485 42.01 -49 41 C-49.495 41.99 -49.495 41.99 -50 43 C-51.70703125 43.74609375 -51.70703125 43.74609375 -53.8125 44.4375 C-57.9739629 45.92639549 -60.98611156 47.22569522 -63.25 51.1875 C-63.62125 52.0846875 -63.62125 52.0846875 -64 53 C-64.99 52.01 -65.98 51.02 -67 50 C-67.33 50.99 -67.66 51.98 -68 53 C-69.9375 53.5625 -69.9375 53.5625 -72 54 C-74.2236068 55.9254644 -74.2236068 55.9254644 -75 59 C-77.9750542 59.93167355 -80.9602858 60.46612112 -84.01953125 61.05859375 C-87.38311839 62.12101118 -88.58650923 63.5162621 -91 66 C-93.078125 66.46875 -93.078125 66.46875 -95.25 66.5 C-100.10129554 66.85282149 -104.06215093 68.07309018 -108 71 C-109.57069449 73.57759202 -109.57069449 73.57759202 -110 76 C-112.86724686 75.42655063 -113.8614515 75.1385485 -116 73 C-116.495 73.99 -116.495 73.99 -117 75 C-117.66 75 -118.32 75 -119 75 C-119.33 74.34 -119.66 73.68 -120 73 C-120.495 73.495 -120.495 73.495 -121 74 C-123.33297433 74.04092937 -125.66705225 74.04241723 -128 74 C-124.67100187 71.78066791 -121.41235863 70.80338647 -117.625 69.6875 C-99.36127925 64.1085169 -83.05739094 55.85613865 -66.47436523 46.50537109 C-65.66040283 46.04984863 -64.84644043 45.59432617 -64.0078125 45.125 C-63.28223145 44.71507812 -62.55665039 44.30515625 -61.80908203 43.8828125 C-60 43 -60 43 -58 43 C-58 42.34 -58 41.68 -58 41 C-57.26910156 40.63261719 -57.26910156 40.63261719 -56.5234375 40.2578125 C-50.52899164 37.09710468 -45.12757715 33.33538937 -39.69873047 29.30322266 C-35.20409972 26 -35.20409972 26 -33 26 C-33 25.34 -33 24.68 -33 24 C-32.01 24 -31.02 24 -30 24 C-30 23.34 -30 22.68 -30 22 C-28.44648157 20.7469687 -26.82849077 19.57357053 -25.1875 18.4375 C-18.51548233 13.71004707 -11.79468964 8.79468964 -6 3 C-4.34183216 2.31246699 -2.67540664 1.64438717 -1 1 C-0.67 0.67 -0.34 0.34 0 0 Z M-49 42 C-49 45 -49 45 -49 45 Z " fill="#1A8A62" transform="translate(302,179)"/>
<path d="M0 0 C0 0.66 0 1.32 0 2 C-0.66 2 -1.32 2 -2 2 C-2.309375 2.9590625 -2.309375 2.9590625 -2.625 3.9375 C-4 6 -4 6 -7.125 6.75 C-8.07375 6.8325 -9.0225 6.915 -10 7 C-9.87625 8.3921875 -9.87625 8.3921875 -9.75 9.8125 C-9.8325 10.864375 -9.915 11.91625 -10 13 C-10.63966768 13.43999014 -11.27933537 13.87998028 -11.93838692 14.33330345 C-15.55117228 17.25403429 -15.1678063 21.26947637 -15.68011093 25.67787552 C-16.39784606 34.20740611 -16.25920839 42.77377289 -16.22705078 51.32568359 C-16.22648561 53.44594823 -16.22680528 55.56621325 -16.22793579 57.68647766 C-16.22850619 63.40244336 -16.21680288 69.11832396 -16.20278788 74.83427 C-16.190228 80.8226652 -16.18910589 86.81106266 -16.18673706 92.79946899 C-16.18053768 104.12150617 -16.16414784 115.44350442 -16.14403808 126.76552451 C-16.12163094 139.6628172 -16.11067357 152.56011182 -16.10064721 165.45741916 C-16.07978016 191.9716343 -16.04463434 218.48581496 -16 245 C-15.34 245 -14.68 245 -14 245 C-13.505 247.475 -13.505 247.475 -13 250 C-17.00438087 247.59737148 -17.85739667 245.46701245 -19 241 C-19.27841084 237.94290953 -19.2786323 234.90333019 -19.26742554 231.83512878 C-19.27195665 230.9216366 -19.27648776 230.00814441 -19.28115618 229.06697065 C-19.29379994 226.01098541 -19.29217982 222.9551784 -19.29052734 219.89916992 C-19.2965126 217.70601676 -19.30331814 215.5128657 -19.31088257 213.31971741 C-19.32854996 207.36510159 -19.33323826 201.41054326 -19.33451414 195.45590377 C-19.33593587 191.73473434 -19.34020589 188.01357951 -19.34550858 184.29241371 C-19.36305647 171.97784098 -19.37234853 159.66329897 -19.37084763 147.3487142 C-19.37076772 146.68538412 -19.3706878 146.02205404 -19.37060547 145.33862305 C-19.37052371 144.67447914 -19.37044195 144.01033524 -19.37035771 143.32606576 C-19.36954502 132.56570056 -19.38868008 121.80547542 -19.4168822 111.04515072 C-19.44563921 99.98547468 -19.45905502 88.92587025 -19.45769465 77.8661564 C-19.45718495 71.6613957 -19.46287266 65.45679353 -19.48405075 59.25206566 C-19.50342898 53.41532156 -19.50356017 47.57888727 -19.48901749 41.74213219 C-19.4869278 39.6028142 -19.49163974 37.46347684 -19.5037384 35.32419205 C-19.51921401 32.39770625 -19.50986711 29.47228562 -19.49447632 26.54582214 C-19.50476344 25.70455802 -19.51505057 24.86329389 -19.52564943 23.99653691 C-19.45686862 18.05516182 -18.15601829 13.08787494 -15 8 C-11.25722662 4.45001123 -5.24029872 0 0 0 Z " fill="#140A43" transform="translate(138,138)"/>
<path d="M0 0 C2.54638866 2.950768 3.37546566 4.73931589 3.38095093 8.63012695 C3.3894104 9.55540192 3.39786987 10.48067688 3.40658569 11.43399048 C3.400513 12.44190643 3.39444031 13.44982239 3.38818359 14.48828125 C3.39344055 15.55533295 3.39869751 16.62238464 3.40411377 17.72177124 C3.41732743 21.25216266 3.40857054 24.78210392 3.3984375 28.3125 C3.40045783 30.76342862 3.40336893 33.21435665 3.40713501 35.6652832 C3.41156023 40.80328085 3.40512076 45.94112209 3.39111328 51.07910156 C3.37402151 57.67021636 3.38386161 64.26096469 3.40183067 70.85206604 C3.41266303 75.91348032 3.40922464 80.97480749 3.4014473 86.03622437 C3.39944378 88.46674645 3.40190983 90.89727641 3.40888596 93.32778931 C3.41649118 96.72264606 3.40490854 100.1169065 3.38818359 103.51171875 C3.39425629 104.5196347 3.40032898 105.52755066 3.40658569 106.56600952 C3.39812622 107.49128448 3.38966675 108.41655945 3.38095093 109.36987305 C3.37981985 110.17216843 3.37868877 110.97446381 3.37752342 111.80107117 C2.9037231 114.56077594 1.8995905 115.97059014 0 118 C-0.66 118 -1.32 118 -2 118 C-2 118.66 -2 119.32 -2 120 C-2.64614258 120.35118896 -3.29228516 120.70237793 -3.95800781 121.06420898 C-11.24134149 125.02910452 -18.50446844 129.02895016 -25.75 133.0625 C-26.83410156 133.66126953 -27.91820312 134.26003906 -29.03515625 134.87695312 C-34.61515721 137.98717344 -39.85381803 141.22212841 -45 145 C-47.62284629 146.46929913 -50.27950246 147.71134327 -53 149 C-51.35 149 -49.7 149 -48 149 C-51.85623679 152.97674419 -51.85623679 152.97674419 -55.11328125 153.04296875 C-57.08863015 152.7798228 -59.04718291 152.39718314 -61 152 C-61 150.35 -61 148.7 -61 147 C-58 146 -58 146 -56 146 C-55.4225 145.54625 -54.845 145.0925 -54.25 144.625 C-52 143 -52 143 -48.8125 142 C-47.884375 141.67 -46.95625 141.34 -46 141 C-45.67 140.01 -45.34 139.02 -45 138 C-43.35 137.67 -41.7 137.34 -40 137 C-39.67 136.01 -39.34 135.02 -39 134 C-37.6846659 133.29848848 -36.34882408 132.63474075 -35 132 C-34.55785156 131.49855469 -34.11570313 130.99710938 -33.66015625 130.48046875 C-31.52788895 128.57898803 -30.13043416 128.51669813 -27.3125 128.3125 C-26.50425781 128.24675781 -25.69601563 128.18101562 -24.86328125 128.11328125 C-24.24839844 128.07589844 -23.63351563 128.03851563 -23 128 C-22.01 125.69 -21.02 123.38 -20 121 C-19.01 121.495 -19.01 121.495 -18 122 C-17.01 121.67 -16.02 121.34 -15 121 C-15 121.66 -15 122.32 -15 123 C-14.34 123 -13.68 123 -13 123 C-12.505 121.02 -12.505 121.02 -12 119 C-11.01 119.33 -10.02 119.66 -9 120 C-9 118.68 -9 117.36 -9 116 C-7.02 115.01 -7.02 115.01 -5 114 C-5 113.34 -5 112.68 -5 112 C-3.68 112.33 -2.36 112.66 -1 113 C-0.02506026 99.76891177 0.13237883 86.60276307 0.09765625 73.33984375 C0.0957861 71.21179742 0.09436502 69.08375065 0.09336853 66.95570374 C0.08959033 61.41403977 0.07980144 55.87240292 0.06866455 50.33074951 C0.05834817 44.65214403 0.05384922 38.97353407 0.04882812 33.29492188 C0.03817389 22.19660281 0.02115553 11.09830368 0 0 Z " fill="#2E1A6E" transform="translate(221,104)"/>
<path d="M0 0 C1.98 0.66 3.96 1.32 6 2 C-4.06455532 12.52878758 -17.35126893 19.97526542 -29.67871094 27.56689453 C-31.14177356 28.47015259 -32.60129273 29.37920005 -34.05566406 30.29638672 C-49.17375402 39.82932938 -65.62680858 47.48267346 -82.21473694 54.0930481 C-83.56042047 54.62977237 -83.56042047 54.62977237 -84.93328953 55.17733955 C-85.61530398 55.4488175 -86.29731844 55.72029545 -87 56 C-87.00586624 57.23948395 -87.01173248 58.4789679 -87.01777649 59.75601196 C-87.07499771 71.43888992 -87.14775645 83.12158163 -87.23571491 94.80426979 C-87.28043591 100.81041751 -87.31968844 106.81649712 -87.34643555 112.82275391 C-87.37245094 118.61948918 -87.41284138 124.41596261 -87.46318626 130.21253586 C-87.47986681 132.42366656 -87.49137367 134.63484256 -87.49761391 136.84602737 C-87.50724182 139.94401731 -87.53528638 143.04133556 -87.56762695 146.13916016 C-87.56619186 147.05266235 -87.56475677 147.96616455 -87.5632782 148.90734863 C-87.66058383 155.50138805 -89.32333318 159.48499977 -93 165 C-93.66 164.67 -94.32 164.34 -95 164 C-94.67 163.01 -94.34 162.02 -94 161 C-93.34 161 -92.68 161 -92 161 C-92 159.68 -92 158.36 -92 157 C-91.34 157 -90.68 157 -90 157 C-89.67 123.34 -89.34 89.68 -89 55 C-90.32 55 -91.64 55 -93 55 C-93.495 53.515 -93.495 53.515 -94 52 C-92.68 51.01 -91.36 50.02 -90 49 C-89.01 49.99 -88.02 50.98 -87 52 C-86.00419922 51.60167969 -86.00419922 51.60167969 -84.98828125 51.1953125 C-77 48 -77 48 -74.26171875 47 C-71.8411948 46.1614133 -71.8411948 46.1614133 -70.5 43.875 C-70.005 43.25625 -69.51 42.6375 -69 42 C-66.3125 41.75 -66.3125 41.75 -64 42 C-63.67 41.34 -63.34 40.68 -63 40 C-61.33678518 39.64984951 -59.66965451 39.31802943 -58 39 C-54.87525373 37.36526484 -54.87525373 37.36526484 -54.3125 34.875 C-54.209375 34.25625 -54.10625 33.6375 -54 33 C-53.40832031 32.93941406 -52.81664062 32.87882812 -52.20703125 32.81640625 C-50.5796677 32.64384731 -48.95335037 32.46118518 -47.328125 32.26953125 C-45.57609636 32.06669572 -43.81987793 31.89956408 -42.0625 31.75 C-39.73550793 31.17439286 -39.73550793 31.17439286 -38.8125 28.5625 C-38.544375 27.716875 -38.27625 26.87125 -38 26 C-35.60236815 23.60236815 -34.66726502 23.65719414 -31.375 23.375 C-30.55773437 23.30023438 -29.74046875 23.22546875 -28.8984375 23.1484375 C-27.95871094 23.07496094 -27.95871094 23.07496094 -27 23 C-27.99 21.02 -27.99 21.02 -29 19 C-26.66785852 17.79371992 -24.50357861 16.8345262 -22 16 C-21.505 16.99 -21.505 16.99 -21 18 C-17.87802522 16.6910428 -17.87802522 16.6910428 -16 14 C-15.34 14 -14.68 14 -14 14 C-13.67 12.35 -13.34 10.7 -13 9 C-9.846632 8.29925156 -7.27275026 8 -4 8 C-4 7.34 -4 6.68 -4 6 C-3.34 6 -2.68 6 -2 6 C-2 5.34 -2 4.68 -2 4 C-2.66 4 -3.32 4 -4 4 C-4 3.34 -4 2.68 -4 2 C-3.01 2 -2.02 2 -1 2 C-0.67 1.34 -0.34 0.68 0 0 Z " fill="#133D51" transform="translate(312,224)"/>
<path d="M0 0 C-0.625 1.875 -0.625 1.875 -2 4 C-3.97888961 4.72693904 -5.97954558 5.39816251 -8 6 C-8.33 6.66 -8.66 7.32 -9 8 C-9.99 7.67 -10.98 7.34 -12 7 C-15.65666426 8.1623762 -15.65666426 8.1623762 -19 10 C-19.33 10.99 -19.66 11.98 -20 13 C-20.66 13 -21.32 13 -22 13 C-22.33 13.66 -22.66 14.32 -23 15 C-24.85546875 15.34375 -24.85546875 15.34375 -27.1875 15.5 C-33.46781437 16.07635796 -38.42327721 18.07885949 -44 21 C-44 21.66 -44 22.32 -44 23 C-46.31 23.33 -48.62 23.66 -51 24 C-50.60348083 25.31872662 -50.18201309 26.62997101 -49.75 27.9375 C-49.51796875 28.66839844 -49.2859375 29.39929688 -49.046875 30.15234375 C-48.15987504 32.17011051 -48.15987504 32.17011051 -46.078125 32.75390625 C-43.85224371 33.05879967 -43.85224371 33.05879967 -41 33 C-41.33 33.99 -41.66 34.98 -42 36 C-40.68 35.01 -39.36 34.02 -38 33 C-36.68 33.99 -35.36 34.98 -34 36 C-34.66 36.99 -35.32 37.98 -36 39 C-35.01 39.99 -34.02 40.98 -33 42 C-34.875 47.75 -34.875 47.75 -36 50 C-35.67 50.99 -35.34 51.98 -35 53 C-37 55 -37 55 -39.375 55.0625 C-40.24125 55.041875 -41.1075 55.02125 -42 55 C-43.34332728 55.29044914 -44.68225804 55.60955794 -46 56 C-43.56796199 50.94884414 -41.03503647 46.91880085 -37 43 C-37.9384375 42.44570312 -38.876875 41.89140625 -39.84375 41.3203125 C-41.06272984 40.5889246 -42.28146745 39.85713286 -43.5 39.125 C-44.12003906 38.76019531 -44.74007813 38.39539063 -45.37890625 38.01953125 C-46.95367458 37.0677482 -48.48129053 36.03889741 -50 35 C-50 34.34 -50 33.68 -50 33 C-50.598125 32.9175 -51.19625 32.835 -51.8125 32.75 C-54.73748806 31.74714695 -55.5917795 30.74232413 -57 28 C-56.9375 24.9375 -56.9375 24.9375 -56 22 C-52.72446664 18.90108854 -48.73903579 17.64985721 -44.5625 16.1875 C-38.314252 13.92699817 -32.3183493 11.36309848 -26.30859375 8.51953125 C-22.57670704 6.80559509 -18.80799419 5.22315395 -15 3.6875 C-13.783125 3.19636719 -12.56625 2.70523438 -11.3125 2.19921875 C-7.41420044 0.78792398 -4.13878734 0 0 0 Z " fill="#1C8357" transform="translate(354,120)"/>
<path d="M0 0 C2.375 1.25 2.375 1.25 3.375 4.25 C3.47360414 6.50416914 3.51003693 8.76119884 3.51544189 11.01751709 C3.51989858 12.05525941 3.51989858 12.05525941 3.5244453 13.11396623 C3.53313315 15.43764331 3.53464062 17.76126889 3.53613281 20.08496094 C3.54076097 21.74890249 3.54578562 23.41284298 3.55117798 25.07678223 C3.56430522 29.60172326 3.5707477 34.12664946 3.57518864 38.65160656 C3.57811916 41.47874082 3.58222396 44.30587102 3.58669281 47.13300323 C3.6003693 55.97872453 3.61003492 64.82443655 3.6138947 73.67016768 C3.61837438 83.88051745 3.63591745 94.09073328 3.6648953 104.30104232 C3.68651645 112.19329406 3.69659923 120.08550812 3.69793582 127.97778916 C3.69898364 132.69133797 3.70488648 137.40476089 3.72275543 142.1182785 C3.73924333 146.55387955 3.74138813 150.9892602 3.73261642 155.42488098 C3.7318464 157.05063213 3.73618417 158.67639515 3.74607468 160.30211639 C3.75881098 162.52652151 3.75290886 164.75014799 3.74249268 166.97454834 C3.74395924 168.21783779 3.7454258 169.46112724 3.7469368 170.74209213 C3.30653948 174.89568285 2.28313936 177.54839692 0.375 181.25 C-0.285 181.58 -0.945 181.91 -1.625 182.25 C-1.41238872 181.45691783 -1.41238872 181.45691783 -1.19548225 180.6478138 C0.76470988 172.34160406 0.64250597 164.07811355 0.60205078 155.60107422 C0.60148576 153.93459581 0.601805 152.26811691 0.60293579 150.60163879 C0.60350676 146.10439624 0.59179409 141.6072616 0.57778788 137.110044 C0.56523765 132.40020141 0.56410664 127.69035601 0.56173706 122.98049927 C0.55553486 114.07369281 0.53914118 105.16693578 0.51903808 96.26015103 C0.49663976 86.11501632 0.48567578 75.96987917 0.47564721 65.82472587 C0.45477378 44.96645638 0.41962242 24.10823131 0.375 3.25 C-4.42246727 2.84383159 -4.42246727 2.84383159 -8.5625 4.75 C-8.913125 5.245 -9.26375 5.74 -9.625 6.25 C-10.285 5.92 -10.945 5.59 -11.625 5.25 C-4.18698347 -1.19628099 -4.18698347 -1.19628099 0 0 Z " fill="#351884" transform="translate(372.625,205.75)"/>
<path d="M0 0 C0.495 0.99 0.495 0.99 1 2 C3.32156597 2.40729228 5.6568787 2.74438677 8 3 C8.495 4.485 8.495 4.485 9 6 C9.66 6 10.32 6 11 6 C11.495 8.475 11.495 8.475 12 11 C15.465 10.505 15.465 10.505 19 10 C19.99 12.97 20.98 15.94 22 19 C20.35 19 18.7 19 17 19 C17 18.34 17 17.68 17 17 C16.11699219 16.77570313 15.23398437 16.55140625 14.32421875 16.3203125 C10.44752615 14.78056855 8.61924633 12.92978438 5.8125 9.875 C3.37603625 7.16337827 3.37603625 7.16337827 1 5 C0.01 5 -0.98 5 -2 5 C-2 5.66 -2 6.32 -2 7 C-2.66 7 -3.32 7 -4 7 C-4.268125 7.639375 -4.53625 8.27875 -4.8125 8.9375 C-6 11 -6 11 -9 12 C-9 12.66 -9 13.32 -9 14 C-9.66 14 -10.32 14 -11 14 C-11 14.66 -11 15.32 -11 16 C-12.43359375 17.4453125 -12.43359375 17.4453125 -14.4375 19.125 C-18.41621323 22.49378571 -22.2770561 25.9703982 -26.1171875 29.49609375 C-28 31 -28 31 -30 31 C-30 31.66 -30 32.32 -30 33 C-30.66 33 -31.32 33 -32 33 C-32 33.66 -32 34.32 -32 35 C-33.4609375 36.2890625 -33.4609375 36.2890625 -35.375 37.625 C-36.00148438 38.07101563 -36.62796875 38.51703125 -37.2734375 38.9765625 C-39 40 -39 40 -41 40 C-41 40.66 -41 41.32 -41 42 C-42.65 42.66 -44.3 43.32 -46 44 C-45.67 43.2575 -45.34 42.515 -45 41.75 C-43.77217129 38.86116688 -43.77217129 38.86116688 -44 35 C-42.515 34.505 -42.515 34.505 -41 34 C-41 34.66 -41 35.32 -41 36 C-37.08396696 33.20579508 -37.08396696 33.20579508 -35 29 C-34.67 28.01 -34.34 27.02 -34 26 C-31.69 26.33 -29.38 26.66 -27 27 C-26.67 25.35 -26.34 23.7 -26 22 C-24.68 21.67 -23.36 21.34 -22 21 C-22 20.34 -22 19.68 -22 19 C-21.34 19 -20.68 19 -20 19 C-19.67 16.69 -19.34 14.38 -19 12 C-18.4225 12.2475 -17.845 12.495 -17.25 12.75 C-14.86600165 13.25906348 -14.86600165 13.25906348 -12.75 11.5 C-10.44425956 8.20608508 -10.69746619 5.93293957 -11 2 C-9 3 -7 4 -5 5 C-4.34 4.01 -3.68 3.02 -3 2 C-2.01 2 -1.02 2 0 2 C0 1.34 0 0.68 0 0 Z " fill="#18AA87" transform="translate(364,182)"/>
<path d="M0 0 C0.33 0 0.66 0 1 0 C1.81737633 11.70577635 2.13657282 23.33483435 2.09765625 35.06689453 C2.0957309 36.80186418 2.09427003 38.5368344 2.0932312 40.27180481 C2.09010174 43.9689249 2.08388243 47.66602138 2.07516479 51.36313248 C2.0615089 57.21367457 2.05572129 63.0642092 2.05102539 68.9147644 C2.03998998 81.31818664 2.02042039 93.72159021 2 106.125 C1.97793481 119.55464534 1.9573956 132.98428334 1.94658184 146.41394317 C1.94161128 152.22674007 1.93177126 158.03950188 1.91815186 163.85228467 C1.91068476 167.46358188 1.90737535 171.07487431 1.9051857 174.68617821 C1.9033168 176.35708975 1.89972205 178.0280004 1.89425278 179.69890404 C1.88701037 181.98362795 1.88600012 184.26827553 1.88647461 186.55300903 C1.884254 187.82973543 1.88203339 189.10646183 1.87974548 190.42187691 C2.00050259 194.01495443 2.45962858 197.44899294 3 201 C2.87890625 203.4765625 2.87890625 203.4765625 2.5625 205.625 C2.14141159 208.78316311 1.89696814 211.80601224 2 215 C-0.5821132 212.4178868 -0.23938015 210.68538539 -0.25816262 207.16696393 C-0.25233693 206.34401763 -0.24651125 205.52107133 -0.24050903 204.67318726 C-0.24221788 203.80168175 -0.24392673 202.93017625 -0.24568737 202.03226149 C-0.24899703 199.0948305 -0.23795437 196.15762499 -0.22705078 193.22021484 C-0.22648699 191.12142441 -0.22680261 189.02263359 -0.22793579 186.92384338 C-0.22851154 181.21129981 -0.21672135 175.49883958 -0.20278788 169.78631544 C-0.19031746 163.82187283 -0.18911294 157.85742849 -0.18673706 151.89297485 C-0.18051141 140.59178779 -0.16408596 129.29063924 -0.14403808 117.98946917 C-0.12171276 105.12631135 -0.11069414 92.26315172 -0.10064721 79.39997935 C-0.07972065 52.93329818 -0.04452367 26.46665125 0 0 Z " fill="#5B30D3" transform="translate(121,168)"/>
<path d="M0 0 C0 1.65 0 3.3 0 5 C-2.97 4.505 -2.97 4.505 -6 4 C-6 4.66 -6 5.32 -6 6 C-6.66 6 -7.32 6 -8 6 C-8.66 7.32 -9.32 8.64 -10 10 C-13.3 11.32 -16.6 12.64 -20 14 C-20.33 50.3 -20.66 86.6 -21 124 C-20.34 124 -19.68 124 -19 124 C-18.34 126.97 -17.68 129.94 -17 133 C-20.58347831 130.73046374 -21.81887181 129.06675168 -23 125 C-23.30125684 121.4716826 -23.29372667 117.9535887 -23.29052734 114.4140625 C-23.29724457 113.34847107 -23.30396179 112.28287964 -23.31088257 111.18499756 C-23.3298705 107.66495088 -23.33378686 104.14509469 -23.3359375 100.625 C-23.34236363 98.17789633 -23.34909185 95.73079345 -23.35610962 93.28369141 C-23.3680835 88.15590635 -23.3717902 83.02818868 -23.37060547 77.90039062 C-23.370402 71.3261671 -23.39773353 64.75237447 -23.43214989 58.17825317 C-23.45437052 53.12538665 -23.45844453 48.07262474 -23.45738602 43.01971436 C-23.45974814 40.59558626 -23.46860583 38.17145554 -23.48405075 35.74737549 C-23.50361708 32.35992059 -23.49790937 28.97340712 -23.48583984 25.5859375 C-23.49707886 24.58318787 -23.50831787 23.58043823 -23.51989746 22.54730225 C-23.48094445 18.25124788 -23.42865916 15.71228894 -21.17886353 11.97387695 C-18.35611743 9.41669363 -15.27834189 7.59220082 -11.9375 5.8125 C-1.33050847 0 -1.33050847 0 0 0 Z " fill="#1D0E54" transform="translate(304,255)"/>
<path d="M0 0 C0.99 0.33 1.98 0.66 3 1 C0.78071806 3.90802461 -0.92969143 5.95312762 -4 8 C-5.19232613 10.05003955 -5.19232613 10.05003955 -6 12 C-6.99 11.01 -7.98 10.02 -9 9 C-9.33 9.99 -9.66 10.98 -10 12 C-11.9375 12.5625 -11.9375 12.5625 -14 13 C-16.2236068 14.9254644 -16.2236068 14.9254644 -17 18 C-19.9750542 18.93167355 -22.9602858 19.46612112 -26.01953125 20.05859375 C-29.38311839 21.12101118 -30.58650923 22.5162621 -33 25 C-35.078125 25.46875 -35.078125 25.46875 -37.25 25.5 C-42.10129554 25.85282149 -46.06215093 27.07309018 -50 30 C-51.57069449 32.57759202 -51.57069449 32.57759202 -52 35 C-54.86724686 34.42655063 -55.8614515 34.1385485 -58 32 C-58.33 32.66 -58.66 33.32 -59 34 C-59.66 34 -60.32 34 -61 34 C-61.33 33.34 -61.66 32.68 -62 32 C-62.495 32.495 -62.495 32.495 -63 33 C-65.33297433 33.04092937 -67.66705225 33.04241723 -70 33 C-66.67100187 30.78066791 -63.41235863 29.80338647 -59.625 28.6875 C-41.36127925 23.1085169 -25.05739094 14.85613865 -8.47436523 5.50537109 C-7.66040283 5.04984863 -6.84644043 4.59432617 -6.0078125 4.125 C-5.28223145 3.71507812 -4.55665039 3.30515625 -3.80908203 2.8828125 C-2 2 -2 2 0 2 C0 1.34 0 0.68 0 0 Z " fill="#20906A" transform="translate(244,220)"/>
<path d="M0 0 C1.77049689 -0.05410687 3.54146849 -0.09284119 5.3125 -0.125 C6.29863281 -0.14820312 7.28476563 -0.17140625 8.30078125 -0.1953125 C11 0 11 0 14 2 C14 2.66 14 3.32 14 4 C12.56274129 4.16873478 11.12518162 4.33490737 9.6875 4.5 C8.88699219 4.5928125 8.08648437 4.685625 7.26171875 4.78125 C5 5 5 5 2 5 C1.67 5.66 1.34 6.32 1 7 C0.2575 7.144375 -0.485 7.28875 -1.25 7.4375 C-4.37052174 8.07578854 -6.29296513 9.34936898 -9 11 C-10.546875 11.433125 -10.546875 11.433125 -12.125 11.875 C-15.20370543 12.70953115 -15.20370543 12.70953115 -16.25 15.5 C-18 18 -18 18 -20.26171875 18.62890625 C-22.04649693 18.91811848 -23.83301952 19.19676275 -25.62109375 19.46484375 C-28.69569204 20.15650215 -30.06036445 21.57545556 -32 24 C-32.66 24 -33.32 24 -34 24 C-34.66 24.66 -35.32 25.32 -36 26 C-36.66 25.67 -37.32 25.34 -38 25 C-38.33 25.66 -38.66 26.32 -39 27 C-41.97 27 -44.94 27 -48 27 C-46.44731564 23.89463128 -43.39420996 23.06893817 -40.375 21.625 C-33.13161155 18.08391918 -25.96010941 14.41811508 -18.8125 10.6875 C-17.32532471 9.9143042 -17.32532471 9.9143042 -15.80810547 9.12548828 C-14.86725098 8.63419434 -13.92639648 8.14290039 -12.95703125 7.63671875 C-12.12147705 7.20061279 -11.28592285 6.76450684 -10.42504883 6.31518555 C-8.7075644 5.38373597 -7.02715957 4.38238535 -5.37768555 3.33520508 C-3 2 -3 2 0 2 C0 1.34 0 0.68 0 0 Z " fill="#4D27BA" transform="translate(207,100)"/>
<path d="M0 0 C1.98 0.66 3.96 1.32 6 2 C-4.67063934 13.1628275 -18.92982591 20.96469112 -32 29 C-32.81130371 29.50225098 -33.62260742 30.00450195 -34.45849609 30.52197266 C-36.79816877 31.96491979 -39.14687052 33.39162752 -41.5 34.8125 C-42.567948 35.47088867 -42.567948 35.47088867 -43.6574707 36.14257812 C-45.39297443 37.17535865 -47.19280999 38.0985162 -49 39 C-49.99 38.67 -50.98 38.34 -52 38 C-46.36036866 32.16589862 -46.36036866 32.16589862 -42.4375 31.6875 C-41.2309375 31.3471875 -41.2309375 31.3471875 -40 31 C-38.75285597 28.59047977 -38.75285597 28.59047977 -38 26 C-35.60236815 23.60236815 -34.66726502 23.65719414 -31.375 23.375 C-30.55773437 23.30023438 -29.74046875 23.22546875 -28.8984375 23.1484375 C-28.27195312 23.09945312 -27.64546875 23.05046875 -27 23 C-27.66 21.68 -28.32 20.36 -29 19 C-26.66785852 17.79371992 -24.50357861 16.8345262 -22 16 C-21.67 16.66 -21.34 17.32 -21 18 C-17.87802522 16.6910428 -17.87802522 16.6910428 -16 14 C-15.34 14 -14.68 14 -14 14 C-13.67 12.35 -13.34 10.7 -13 9 C-9.846632 8.29925156 -7.27275026 8 -4 8 C-4 7.34 -4 6.68 -4 6 C-3.34 6 -2.68 6 -2 6 C-2 5.34 -2 4.68 -2 4 C-2.66 4 -3.32 4 -4 4 C-4 3.34 -4 2.68 -4 2 C-3.01 2 -2.02 2 -1 2 C-0.67 1.34 -0.34 0.68 0 0 Z " fill="#19A780" transform="translate(312,224)"/>
<path d="M0 0 C0.33 0 0.66 0 1 0 C1.0231314 13.00383566 1.04091918 26.00766646 1.05181217 39.01151848 C1.05703924 45.04919026 1.06413373 51.08684801 1.07543945 57.12451172 C1.08627454 62.94702417 1.09227816 68.76952308 1.09487724 74.59204483 C1.09673037 76.81768126 1.10034883 79.04331691 1.10573006 81.2689476 C1.1129487 84.37706882 1.11399059 87.48513352 1.11352539 90.59326172 C1.11712067 91.52114502 1.12071594 92.44902832 1.12442017 93.4050293 C1.1230455 94.24919403 1.12167084 95.09335876 1.12025452 95.96310425 C1.12117631 96.69869505 1.1220981 97.43428585 1.12304783 98.19216728 C1 100 1 100 0 102 C-0.66 102 -1.32 102 -2 102 C-2.0231325 89.64808359 -2.04091974 77.2961723 -2.05181217 64.94423866 C-2.057039 59.20923728 -2.06413305 53.47425068 -2.07543945 47.73925781 C-2.08627539 42.20851877 -2.09227835 36.67779397 -2.09487724 31.14704514 C-2.09673021 29.03305207 -2.10034838 26.91905981 -2.10573006 24.80507278 C-2.11294983 21.85261578 -2.11399054 18.90021826 -2.11352539 15.94775391 C-2.11712067 15.0666243 -2.12071594 14.18549469 -2.12442017 13.27766418 C-2.11405216 7.22810432 -2.11405216 7.22810432 -1 5 C-1.66 5.70125 -2.32 6.4025 -3 7.125 C-6 9 -6 9 -8.11328125 8.8203125 C-10.10143004 8.30473573 -12.0548099 7.65938647 -14 7 C-14 6.34 -14 5.68 -14 5 C-13.24074219 4.89042969 -12.48148438 4.78085937 -11.69921875 4.66796875 C-10.70535156 4.50941406 -9.71148437 4.35085938 -8.6875 4.1875 C-7.70136719 4.03667969 -6.71523437 3.88585937 -5.69921875 3.73046875 C-2.84839658 2.95897274 -1.86770755 2.20619176 0 0 Z " fill="#5934C2" transform="translate(222,279)"/>
<path d="M0 0 C0.7734375 0.3403125 0.7734375 0.3403125 1.5625 0.6875 C1.2325 2.0075 0.9025 3.3275 0.5625 4.6875 C1.2225 4.6875 1.8825 4.6875 2.5625 4.6875 C2.5625 6.3375 2.5625 7.9875 2.5625 9.6875 C1.2425 9.6875 -0.0775 9.6875 -1.4375 9.6875 C-1.7675 10.3475 -2.0975 11.0075 -2.4375 11.6875 C-6.3125 9.9375 -6.3125 9.9375 -7.4375 7.6875 C-12.93852837 8.10007713 -17.19951664 10.23472675 -21.4375 13.6875 C-21.4375 14.3475 -21.4375 15.0075 -21.4375 15.6875 C-25.34055525 17.19549862 -27.45214198 17.80838194 -31.4375 16.6875 C-33.44696222 16.95800453 -35.45104224 17.28117909 -37.4375 17.6875 C-37.29736328 15.85571289 -37.29736328 15.85571289 -36.4375 13.6875 C-33.95654297 12.27124023 -33.95654297 12.27124023 -30.6796875 10.99609375 C-28.90464844 10.29129883 -28.90464844 10.29129883 -27.09375 9.57226562 C-25.83351061 9.08938085 -24.57309236 8.60696259 -23.3125 8.125 C-20.87229734 7.16561506 -18.43219038 6.20598666 -15.9921875 5.24609375 C-14.84661377 4.80289795 -13.70104004 4.35970215 -12.52075195 3.90307617 C-10.05673656 2.93163484 -7.63758417 1.91322043 -5.22265625 0.828125 C-2.4375 -0.3125 -2.4375 -0.3125 0 0 Z " fill="#1DB17B" transform="translate(394.4375,102.3125)"/>
<path d="M0 0 C0.78375 0.04125 1.5675 0.0825 2.375 0.125 C2.045 1.115 1.715 2.105 1.375 3.125 C0.715 3.125 0.055 3.125 -0.625 3.125 C-0.22848083 4.44372662 0.19298691 5.75497101 0.625 7.0625 C0.85703125 7.79339844 1.0890625 8.52429688 1.328125 9.27734375 C2.21512496 11.29511051 2.21512496 11.29511051 4.296875 11.87890625 C6.52275629 12.18379967 6.52275629 12.18379967 9.375 12.125 C9.045 13.115 8.715 14.105 8.375 15.125 C9.695 14.135 11.015 13.145 12.375 12.125 C13.695 13.115 15.015 14.105 16.375 15.125 C15.385 16.61 15.385 16.61 14.375 18.125 C15.365 19.115 16.355 20.105 17.375 21.125 C15.5 26.875 15.5 26.875 14.375 29.125 C14.705 30.115 15.035 31.105 15.375 32.125 C13.375 34.125 13.375 34.125 11 34.1875 C10.13375 34.166875 9.2675 34.14625 8.375 34.125 C7.03167272 34.41544914 5.69274196 34.73455794 4.375 35.125 C6.80703801 30.07384414 9.33996353 26.04380085 13.375 22.125 C12.4365625 21.57070312 11.498125 21.01640625 10.53125 20.4453125 C9.31227016 19.7139246 8.09353255 18.98213286 6.875 18.25 C6.25496094 17.88519531 5.63492187 17.52039063 4.99609375 17.14453125 C3.42132542 16.1927482 1.89370947 15.16389741 0.375 14.125 C0.375 13.465 0.375 12.805 0.375 12.125 C-0.264375 11.980625 -0.90375 11.83625 -1.5625 11.6875 C-3.625 11.125 -3.625 11.125 -4.625 10.125 C-4.89814815 4.38888889 -4.89814815 4.38888889 -4.625 2.125 C-2.625 0.125 -2.625 0.125 0 0 Z " fill="#1A875B" transform="translate(303.625,140.875)"/>
<path d="M0 0 C0.66 0.33 1.32 0.66 2 1 C1.11646851 1.49814209 1.11646851 1.49814209 0.21508789 2.00634766 C-2.50446784 3.54234123 -5.22098421 5.08363692 -7.9375 6.625 C-8.86369141 7.14707031 -9.78988281 7.66914063 -10.74414062 8.20703125 C-15.96644758 11.17550047 -21.03229033 14.26346697 -25.97460938 17.6796875 C-29.17585081 19.76651413 -32.54804651 21.36816744 -36 23 C-34.35 23 -32.7 23 -31 23 C-34.85623679 26.97674419 -34.85623679 26.97674419 -38.11328125 27.04296875 C-40.08863015 26.7798228 -42.04718291 26.39718314 -44 26 C-44 24.35 -44 22.7 -44 21 C-41 20 -41 20 -39 20 C-38.4225 19.54625 -37.845 19.0925 -37.25 18.625 C-35 17 -35 17 -31.8125 16 C-30.884375 15.67 -29.95625 15.34 -29 15 C-28.67 14.01 -28.34 13.02 -28 12 C-26.35 11.67 -24.7 11.34 -23 11 C-22.67 10.01 -22.34 9.02 -22 8 C-20.6846659 7.29848848 -19.34882408 6.63474075 -18 6 C-17.55011719 5.49597656 -17.10023438 4.99195313 -16.63671875 4.47265625 C-14.58058808 2.62262937 -13.41670386 2.58362318 -10.6875 2.4375 C-6.84723197 2.14353811 -3.65254929 1.24721195 0 0 Z " fill="#5229BA" transform="translate(204,230)"/>
<path d="M0 0 C1.31742187 0.0721875 2.63484375 0.144375 3.9921875 0.21875 C18.16440373 0.92235296 32.31313276 1.111209 46.5 1.125 C47.38766052 1.12749756 48.27532104 1.12999512 49.18988037 1.13256836 C60.8317441 1.15942697 72.3869974 0.83031077 84 0 C81.30917114 2.81313926 80.00285733 3.95330427 75.98381042 4.14044189 C74.68873062 4.1472699 73.39365082 4.1540979 72.05932617 4.16113281 C71.34530136 4.16609772 70.63127655 4.17106262 69.89561462 4.17617798 C67.52805626 4.19080978 65.16056494 4.19760378 62.79296875 4.203125 C61.14870705 4.20887627 59.50444537 4.214634 57.86018372 4.22039795 C54.40930875 4.23091128 50.9584571 4.23675155 47.50756836 4.24023438 C43.08898983 4.24571535 38.67072005 4.26973331 34.25223827 4.29820633 C30.85414231 4.31684633 27.45612045 4.32203906 24.05797768 4.32357025 C22.42930732 4.32659498 20.80063822 4.3346175 19.17201805 4.34775543 C16.89072708 4.36484242 14.61018672 4.3629294 12.32885742 4.35644531 C10.38265755 4.36191376 10.38265755 4.36191376 8.3971405 4.36749268 C4.7924382 3.97754657 2.8735524 3.16749523 0 1 C0 0.67 0 0.34 0 0 Z " fill="#412296" transform="translate(287,388)"/>
<path d="M0 0 C2.475 0.495 2.475 0.495 5 1 C5 1.66 5 2.32 5 3 C33.05 2.67 61.1 2.34 90 2 C83.58003279 8.41996721 61.43791412 5.12632246 52.85049438 5.13812256 C49.54993741 5.13694259 46.24940418 5.132592 42.94885254 5.12695312 C40.25061538 5.124333 37.55241105 5.12917873 34.85417843 5.13394356 C31.59939743 5.13844082 28.34462578 5.13528795 25.08984375 5.1328125 C23.2959446 5.13584885 23.2959446 5.13584885 21.46580505 5.13894653 C5.32576184 5.09375352 5.32576184 5.09375352 1.5 1.9375 C1.005 1.298125 0.51 0.65875 0 0 Z " fill="#1F1145" transform="translate(125,388)"/>
<path d="M0 0 C0.66 0.33 1.32 0.66 2 1 C2.3671875 3.13671875 2.3671875 3.13671875 2 6 C0.08391457 8.17097753 -1.69920077 9.94788487 -3.875 11.8125 C-4.43058594 12.31458984 -4.98617188 12.81667969 -5.55859375 13.33398438 C-9.69844813 17 -9.69844813 17 -12 17 C-12 17.66 -12 18.32 -12 19 C-12.66 19 -13.32 19 -14 19 C-14 19.66 -14 20.32 -14 21 C-15.4609375 22.2890625 -15.4609375 22.2890625 -17.375 23.625 C-18.00148438 24.07101563 -18.62796875 24.51703125 -19.2734375 24.9765625 C-21 26 -21 26 -23 26 C-23 26.66 -23 27.32 -23 28 C-24.65 28.66 -26.3 29.32 -28 30 C-27.67 29.2575 -27.34 28.515 -27 27.75 C-25.77217129 24.86116688 -25.77217129 24.86116688 -26 21 C-25.01 20.67 -24.02 20.34 -23 20 C-23 20.66 -23 21.32 -23 22 C-19.08396696 19.20579508 -19.08396696 19.20579508 -17 15 C-16.67 14.01 -16.34 13.02 -16 12 C-13.69 12.33 -11.38 12.66 -9 13 C-8.67 11.35 -8.34 9.7 -8 8 C-6.68 7.67 -5.36 7.34 -4 7 C-4 6.34 -4 5.68 -4 5 C-2.68 5.33 -1.36 5.66 0 6 C0 4.02 0 2.04 0 0 Z " fill="#19A07F" transform="translate(346,196)"/>
<path d="M0 0 C0.495 1.485 0.495 1.485 1 3 C0.34 3 -0.32 3 -1 3 C-1.33 4.65 -1.66 6.3 -2 8 C-6.36987184 9.08017087 -10.62269562 9.13499895 -15.0949707 9.11352539 C-15.89549362 9.11367142 -16.69601654 9.11381744 -17.52079773 9.1139679 C-20.1558202 9.11327355 -22.79077119 9.10550356 -25.42578125 9.09765625 C-27.25709494 9.09579037 -29.08840914 9.09436727 -30.91972351 9.09336853 C-35.73163235 9.08955672 -40.54351084 9.07973785 -45.35540771 9.06866455 C-50.26883534 9.05842169 -55.18226789 9.05386475 -60.09570312 9.04882812 C-69.73048206 9.03811437 -79.3652385 9.02105401 -89 9 C-89 8.34 -89 7.68 -89 7 C-87.56966179 7.00333092 -87.56966179 7.00333092 -86.11042786 7.00672913 C-77.12042321 7.02700808 -68.13042322 7.04199508 -59.14040089 7.05181217 C-54.51863972 7.0570289 -49.89689702 7.06410463 -45.27514648 7.07543945 C-40.81422939 7.08631127 -36.35333006 7.09228596 -31.89240074 7.09487724 C-30.19117643 7.09672374 -28.48995308 7.10032947 -26.78873634 7.10573006 C-24.40446502 7.11299745 -22.02026696 7.11398853 -19.63598633 7.11352539 C-18.93395584 7.11712067 -18.23192535 7.12071594 -17.50862122 7.12442017 C-13.87820457 7.11679817 -10.53072332 6.86036794 -7 6 C-7 5.34 -7 4.68 -7 4 C-6.34 4 -5.68 4 -5 4 C-4.67 3.01 -4.34 2.02 -4 1 C-4 1.99 -4 2.98 -4 4 C-3.34 4 -2.68 4 -2 4 C-2 3.01 -2 2.02 -2 1 C-1.34 0.67 -0.68 0.34 0 0 Z " fill="#5B31D1" transform="translate(219,382)"/>
<path d="M0 0 C-0.33 1.65 -0.66 3.3 -1 5 C-2.546875 5.433125 -2.546875 5.433125 -4.125 5.875 C-7.45007997 6.82308798 -10.72751453 7.88256594 -14 9 C-14.33 10.65 -14.66 12.3 -15 14 C-15.99 13.34 -16.98 12.68 -18 12 C-18.33 12.66 -18.66 13.32 -19 14 C-21.3140622 14.73075648 -23.64828869 15.40138258 -26 16 C-23.90782039 10.94991127 -21.7212382 8.66133293 -17.125 5.75 C-16.09632813 5.08484375 -15.06765625 4.4196875 -14.0078125 3.734375 C-9.10154696 0.9053076 -5.69179903 -0.26473484 0 0 Z M-18 13 C-18 16 -18 16 -18 16 Z " fill="#1FBB88" transform="translate(271,208)"/>
<path d="M0 0 C0.33 0 0.66 0 1 0 C1.33 36.63 1.66 73.26 2 111 C2.66 111 3.32 111 4 111 C4.33 112.65 4.66 114.3 5 116 C1.125 113.375 1.125 113.375 0 110 C-0.08903619 108.48982826 -0.12197948 106.97600422 -0.12025452 105.46321106 C-0.12162918 104.53353012 -0.12300385 103.60384918 -0.12442017 102.64599609 C-0.12082489 101.62820068 -0.11722961 100.61040527 -0.11352539 99.56176758 C-0.11367142 98.48843674 -0.11381744 97.4151059 -0.1139679 96.30924988 C-0.1132701 92.75432325 -0.10548386 89.19944874 -0.09765625 85.64453125 C-0.0957916 83.18259205 -0.09436792 80.72065247 -0.09336853 78.25871277 C-0.08954706 71.77319314 -0.07971991 65.28769585 -0.06866455 58.80218506 C-0.05844249 52.18648582 -0.0538692 45.57078298 -0.04882812 38.95507812 C-0.03809734 25.97004255 -0.02121706 12.98502246 0 0 Z " fill="#3B1D8F" transform="translate(120,272)"/>
<path d="M0 0 C0.99 0 1.98 0 3 0 C4.20663619 4.29170653 4.13233957 8.47286361 4.11352539 12.89941406 C4.11367142 13.79732666 4.11381744 14.69523926 4.1139679 15.62036133 C4.11327176 18.58547387 4.10549329 21.55052344 4.09765625 24.515625 C4.09579101 26.57257045 4.09436761 28.62951635 4.09336853 30.6864624 C4.0895517 36.09844185 4.07972851 41.51039444 4.06866455 46.92236328 C4.05843252 52.44563432 4.05386707 57.96890971 4.04882812 63.4921875 C4.03810552 74.3281368 4.02103907 85.16406616 4 96 C3.67 96 3.34 96 3 96 C2.98786972 94.35295578 2.98786972 94.35295578 2.97549438 92.67263794 C2.89812744 82.34242245 2.8104124 72.0123402 2.71247292 61.68229866 C2.6624521 56.37107091 2.61612273 51.05986361 2.578125 45.74853516 C2.5413451 40.62617629 2.49500538 35.5039862 2.44193649 30.38177109 C2.42335363 28.42411118 2.40826019 26.46641504 2.39665604 24.50870132 C2.37985993 21.77401564 2.3508416 19.03971983 2.31884766 16.30517578 C2.31668747 15.48950134 2.31452728 14.6738269 2.31230164 13.83343506 C2.41677423 9.44868676 2.41677423 9.44868676 0 6 C-0.66 5.67 -1.32 5.34 -2 5 C-2 2 -2 2 0 0 Z " fill="#5A31D3" transform="translate(218,104)"/>
<path d="M0 0 C-0.625 1.875 -0.625 1.875 -2 4 C-3.97888961 4.72693904 -5.97954558 5.39816251 -8 6 C-8.33 6.66 -8.66 7.32 -9 8 C-9.99 7.67 -10.98 7.34 -12 7 C-15.65666426 8.1623762 -15.65666426 8.1623762 -19 10 C-19.33 10.99 -19.66 11.98 -20 13 C-20.66 13 -21.32 13 -22 13 C-22.33 13.66 -22.66 14.32 -23 15 C-25.06640625 15.4140625 -25.06640625 15.4140625 -27.5625 15.625 C-28.80193359 15.73714844 -28.80193359 15.73714844 -30.06640625 15.8515625 C-31.02353516 15.92503906 -31.02353516 15.92503906 -32 16 C-29.56198347 11.24586777 -29.56198347 11.24586777 -27 10.125 C-25 10 -25 10 -22 11 C-22 10.01 -22 9.02 -22 8 C-21.34 8 -20.68 8 -20 8 C-20 7.34 -20 6.68 -20 6 C-18.10667466 5.18167278 -16.21022267 4.37057732 -14.3125 3.5625 C-12.72888672 2.88380859 -12.72888672 2.88380859 -11.11328125 2.19140625 C-7.29462283 0.73006269 -4.08190248 0 0 0 Z " fill="#1D875B" transform="translate(354,120)"/>
<path d="M0 0 C0.33 0 0.66 0 1 0 C1.45794217 24.3218175 1.45794217 24.3218175 -1 31 C-3.36780497 33.24242222 -4.26547833 34.01791516 -7.5625 33.9375 C-10.45501394 32.82499464 -11.40248866 31.60646588 -13 29 C-9.65626525 29.55728913 -6.96687001 30.35173889 -4 32 C-4.2784375 30.7934375 -4.2784375 30.7934375 -4.5625 29.5625 C-4.706875 28.716875 -4.85125 27.87125 -5 27 C-4.67 26.67 -4.34 26.34 -4 26 C-3.76807135 24.48530552 -3.58784762 22.96245438 -3.4375 21.4375 C-3.35371094 20.61121094 -3.26992188 19.78492188 -3.18359375 18.93359375 C-3.12300781 18.29550781 -3.06242187 17.65742188 -3 17 C-2.34 17 -1.68 17 -1 17 C-1 16.34 -1 15.68 -1 15 C-1.66 15 -2.32 15 -3 15 C-2.69163768 12.87439563 -2.37818386 10.74952935 -2.0625 8.625 C-1.88847656 7.44164062 -1.71445312 6.25828125 -1.53515625 5.0390625 C-1 2 -1 2 0 0 Z " fill="#138F6F" transform="translate(390,169)"/>
<path d="M0 0 C0.53625 0.2475 1.0725 0.495 1.625 0.75 C0.9296875 2.6875 0.9296875 2.6875 -0.375 4.75 C-2.6171875 5.4375 -2.6171875 5.4375 -5.25 5.75 C-9.56619781 6.43412357 -11.57067857 7.24459821 -14.375 10.75 C-15.035 10.75 -15.695 10.75 -16.375 10.75 C-17.035 11.41 -17.695 12.07 -18.375 12.75 C-19.035 12.42 -19.695 12.09 -20.375 11.75 C-20.705 12.41 -21.035 13.07 -21.375 13.75 C-24.345 13.75 -27.315 13.75 -30.375 13.75 C-28.19800627 9.39601254 -21.67305588 7.60098757 -17.375 5.75 C-15.03183267 5.11996407 -12.72900092 4.66434012 -10.33984375 4.25390625 C-6.32265379 3.22365276 -4.22265929 -0.44449045 0 0 Z " fill="#5D2FDF" transform="translate(189.375,113.25)"/>
<path d="M0 0 C1.98 0.66 3.96 1.32 6 2 C2.26459894 5.92677835 -1.67432834 9.20137002 -6.0625 12.375 C-6.67416016 12.83777344 -7.28582031 13.30054688 -7.91601562 13.77734375 C-9.72265625 15.0859375 -9.72265625 15.0859375 -13 17 C-15.20483398 16.61962891 -15.20483398 16.61962891 -17 16 C-16.67 15.34 -16.34 14.68 -16 14 C-15.34 14 -14.68 14 -14 14 C-13.67 12.35 -13.34 10.7 -13 9 C-9.846632 8.29925156 -7.27275026 8 -4 8 C-4 7.34 -4 6.68 -4 6 C-3.34 6 -2.68 6 -2 6 C-2 5.34 -2 4.68 -2 4 C-2.66 4 -3.32 4 -4 4 C-4 3.34 -4 2.68 -4 2 C-3.01 2 -2.02 2 -1 2 C-0.67 1.34 -0.34 0.68 0 0 Z " fill="#1BB088" transform="translate(312,224)"/>
<path d="M0 0 C2.475 0.99 2.475 0.99 5 2 C5 2.66 5 3.32 5 4 C5.66 4 6.32 4 7 4 C7.33 5.65 7.66 7.3 8 9 C11.465 8.505 11.465 8.505 15 8 C15.99 10.97 16.98 13.94 18 17 C16.35 17 14.7 17 13 17 C13 16.34 13 15.68 13 15 C12.071875 14.773125 11.14375 14.54625 10.1875 14.3125 C6.38753605 12.74780896 5.86054856 11.55195635 4 8 C3.278125 7.319375 2.55625 6.63875 1.8125 5.9375 C0 4 0 4 0 0 Z " fill="#17CDA6" transform="translate(368,184)"/>
<path d="M0 0 C0 21.45 0 42.9 0 65 C-0.33 65 -0.66 65 -1 65 C-1.33 44.21 -1.66 23.42 -2 2 C-8.48587017 1.28579794 -8.48587017 1.28579794 -10.9375 3.5 C-11.288125 3.995 -11.63875 4.49 -12 5 C-12.66 4.67 -13.32 4.34 -14 4 C-6.42105263 -2.56842105 -6.42105263 -2.56842105 0 0 Z " fill="#5937C0" transform="translate(375,207)"/>
<path d="M0 0 C0 0.66 0 1.32 0 2 C-0.66 2 -1.32 2 -2 2 C-2.20625 2.639375 -2.4125 3.27875 -2.625 3.9375 C-4 6 -4 6 -7.125 6.75 C-8.07375 6.8325 -9.0225 6.915 -10 7 C-9.9175 7.928125 -9.835 8.85625 -9.75 9.8125 C-9.8325 10.864375 -9.915 11.91625 -10 13 C-10.9590625 13.61875 -10.9590625 13.61875 -11.9375 14.25 C-14.99232949 16.84197654 -14.82062449 19.28733915 -15.25 23.1875 C-15.39953125 24.45980469 -15.5490625 25.73210937 -15.703125 27.04296875 C-15.80109375 28.01878906 -15.8990625 28.99460938 -16 30 C-16.33 30 -16.66 30 -17 30 C-17.13530844 26.93601549 -17.2342407 23.87802874 -17.3125 20.8125 C-17.35439453 19.94818359 -17.39628906 19.08386719 -17.43945312 18.19335938 C-17.52377253 13.79188643 -17.52617853 11.69657798 -14.8046875 8.09375 C-12.19353461 6.14447709 -9.62418092 4.33367325 -6.8125 2.6875 C-5.95269531 2.17574219 -5.09289062 1.66398438 -4.20703125 1.13671875 C-2 0 -2 0 0 0 Z " fill="#5930CC" transform="translate(138,138)"/>
<path d="M0 0 C0.66 0.33 1.32 0.66 2 1 C0.54875366 4.82601307 -1.35774704 6.22329124 -5 8 C-5.99 8 -6.98 8 -8 8 C-8 8.99 -8 9.98 -8 11 C-7.34 11 -6.68 11 -6 11 C-6 11.66 -6 12.32 -6 13 C-9.72965139 15.03435531 -11.66905042 16 -16 16 C-16.33 16.66 -16.66 17.32 -17 18 C-19.32156597 18.40729228 -21.6568787 18.74438677 -24 19 C-19.8831667 14.55447741 -15.2970874 11.23279789 -10.3125 7.8125 C-8.78656395 6.75824009 -7.26176994 5.70232471 -5.73828125 4.64453125 C-5.06837158 4.18409424 -4.39846191 3.72365723 -3.70825195 3.24926758 C-1.8689011 1.9711388 -1.8689011 1.9711388 0 0 Z " fill="#532CC5" transform="translate(336,231)"/>
<path d="M0 0 C0.99 0.33 1.98 0.66 3 1 C0.78071806 3.90802461 -0.92969143 5.95312762 -4 8 C-5.19232613 10.05003955 -5.19232613 10.05003955 -6 12 C-6.99 11.01 -7.98 10.02 -9 9 C-9.33 9.99 -9.66 10.98 -10 12 C-11.9375 12.5625 -11.9375 12.5625 -14 13 C-14.66 13.66 -15.32 14.32 -16 15 C-17.66605828 15.0450286 -19.33378384 15.03874921 -21 15 C-22.67343448 15.29749946 -24.34305915 15.62127066 -26 16 C-21.58474399 12.55559499 -16.7743828 9.99780528 -11.875 7.3125 C-10.95589844 6.80138672 -10.03679687 6.29027344 -9.08984375 5.76367188 C-8.21199219 5.28091797 -7.33414063 4.79816406 -6.4296875 4.30078125 C-5.62772949 3.85903564 -4.82577148 3.41729004 -3.99951172 2.9621582 C-2 2 -2 2 0 2 C0 1.34 0 0.68 0 0 Z " fill="#1E956B" transform="translate(244,220)"/>
<path d="M0 0 C0.99 0 1.98 0 3 0 C3.33 0.99 3.66 1.98 4 3 C3.34 3 2.68 3 2 3 C2 3.99 2 4.98 2 6 C1.01 6 0.02 6 -1 6 C-1 7.32 -1 8.64 -1 10 C-6.24493326 13.34782974 -10.87903309 14.94513949 -17 16 C-16.34 13.69 -15.68 11.38 -15 9 C-14.34 9.33 -13.68 9.66 -13 10 C-12.01 9.67 -11.02 9.34 -10 9 C-10 9.66 -10 10.32 -10 11 C-9.34 11 -8.68 11 -8 11 C-7.67 9.68 -7.34 8.36 -7 7 C-6.01 7.33 -5.02 7.66 -4 8 C-4 6.68 -4 5.36 -4 4 C-2.68 3.34 -1.36 2.68 0 2 C0 1.34 0 0.68 0 0 Z " fill="#5E2FD9" transform="translate(216,216)"/>
<path d="M0 0 C1.46015291 0.28241641 2.91809793 0.57626614 4.375 0.875 C5.59316406 1.11863281 5.59316406 1.11863281 6.8359375 1.3671875 C9 2 9 2 11 4 C10.01 4 9.02 4 8 4 C8 4.66 8 5.32 8 6 C3.59085217 7.10228696 -0.48382401 7.07654536 -5 7 C-5 7.66 -5 8.32 -5 9 C-7.64 9 -10.28 9 -13 9 C-13 6 -13 6 -11 4 C-8 5 -8 5 -7 6 C-4.49675668 5.98333671 -4.49675668 5.98333671 -2 5 C-0.62533375 2.52363988 -0.62533375 2.52363988 0 0 Z M5 3 C6 5 6 5 6 5 Z " fill="#1FCA9E" transform="translate(208,276)"/>
<path d="M0 0 C0 0.99 0 1.98 0 3 C10.395 2.505 10.395 2.505 21 2 C16.62195877 5.28353092 16.06248053 5.10546834 11 5 C10.40703125 5.33644531 9.8140625 5.67289062 9.203125 6.01953125 C6.20118564 7.35550072 3.99248845 6.9774444 0.75 6.625 C-0.32765625 6.51414062 -1.4053125 6.40328125 -2.515625 6.2890625 C-3.74539062 6.14597656 -3.74539062 6.14597656 -5 6 C-5.66 4.35 -6.32 2.7 -7 1 C-4.50935112 0.31292445 -2.62113708 0 0 0 Z " fill="#534FD7" transform="translate(167,289)"/>
<path d="M0 0 C-0.578125 1.875 -0.578125 1.875 -2 4 C-5.046875 5.125 -5.046875 5.125 -8.75 6 C-14.01697556 7.25510907 -17.55562949 8.93749259 -22 12 C-25.875 12.75 -25.875 12.75 -29 13 C-24.91910717 9.43222533 -20.65085919 7.14629678 -15.8125 4.8125 C-15.08869141 4.45736328 -14.36488281 4.10222656 -13.61914062 3.73632812 C-11.74850582 2.81928204 -9.87448255 1.90915525 -8 1 C-5.29120665 -0.35439668 -2.99066732 -0.06501451 0 0 Z " fill="#4D2AB3" transform="translate(203,106)"/>
<path d="M0 0 C1.65 0 3.3 0 5 0 C4.67 0.99 4.34 1.98 4 3 C4.66 3 5.32 3 6 3 C6 4.65 6 6.3 6 8 C4.68 8 3.36 8 2 8 C1.67 8.66 1.34 9.32 1 10 C-2.875 8.25 -2.875 8.25 -4 6 C-7.02934491 5.34227572 -7.02934491 5.34227572 -10 5 C-10 4.67 -10 4.34 -10 4 C-9.04287109 3.81824219 -9.04287109 3.81824219 -8.06640625 3.6328125 C-7.24011719 3.46523437 -6.41382813 3.29765625 -5.5625 3.125 C-4.73878906 2.96257812 -3.91507812 2.80015625 -3.06640625 2.6328125 C-2.38449219 2.42398438 -1.70257813 2.21515625 -1 2 C-0.67 1.34 -0.34 0.68 0 0 Z " fill="#1FD496" transform="translate(391,104)"/>
<path d="M0 0 C-0.66 0 -1.32 0 -2 0 C-2.33 0.99 -2.66 1.98 -3 3 C-4.69897461 3.66015625 -4.69897461 3.66015625 -6.90234375 4.0625 C-8.10721436 4.29598145 -8.10721436 4.29598145 -9.33642578 4.53417969 C-10.19478027 4.68790039 -11.05313477 4.84162109 -11.9375 5 C-13.68427045 5.33503258 -15.43037766 5.6735429 -17.17578125 6.015625 C-18.01447754 6.17998047 -18.85317383 6.34433594 -19.71728516 6.51367188 C-22.41795295 7.08904409 -25.00931657 7.86840241 -27.625 8.75 C-32.19353502 10.23799116 -36.21521318 10.23152194 -41 10 C-41 9.67 -41 9.34 -41 9 C-31.58997722 6.70387244 -31.58997722 6.70387244 -27 7 C-27 6.34 -27 5.68 -27 5 C-24.36 5 -21.72 5 -19 5 C-19 4.34 -19 3.68 -19 3 C-12.565 2.505 -12.565 2.505 -6 2 C-6 1.34 -6 0.68 -6 0 C-3 -1 -3 -1 0 0 Z " fill="#3AA6BD" transform="translate(222,280)"/>
<path d="M0 0 C1.65 0.33 3.3 0.66 5 1 C5 1.66 5 2.32 5 3 C4.34 3 3.68 3 3 3 C3 3.66 3 4.32 3 5 C1.5390625 6.2890625 1.5390625 6.2890625 -0.375 7.625 C-1.00148438 8.07101563 -1.62796875 8.51703125 -2.2734375 8.9765625 C-4 10 -4 10 -6 10 C-6 10.66 -6 11.32 -6 12 C-7.65 12.66 -9.3 13.32 -11 14 C-10.67 13.2575 -10.34 12.515 -10 11.75 C-8.77217129 8.86116688 -8.77217129 8.86116688 -9 5 C-8.01 4.67 -7.02 4.34 -6 4 C-6 4.66 -6 5.32 -6 6 C-2.47618313 3.45395403 -2.47618313 3.45395403 0 0 Z " fill="#188A6D" transform="translate(329,212)"/>
<path d="M0 0 C0.66 0.33 1.32 0.66 2 1 C0.71034824 2.37562854 -0.62689293 3.70766393 -2 5 C-2.66 5 -3.32 5 -4 5 C-3.67 6.32 -3.34 7.64 -3 9 C-3.5053125 9.34933594 -4.010625 9.69867188 -4.53125 10.05859375 C-5.1809375 10.51363281 -5.830625 10.96867188 -6.5 11.4375 C-7.1496875 11.88996094 -7.799375 12.34242188 -8.46875 12.80859375 C-8.9740625 13.20175781 -9.479375 13.59492188 -10 14 C-10 14.33 -10 14.66 -10 15 C-11.0725 15.28875 -12.145 15.5775 -13.25 15.875 C-16.09400364 16.72820109 -18.43508983 17.5636503 -21 19 C-18.19195732 16.03595495 -15.81684226 13.55500981 -12 12 C-12 11.34 -12 10.68 -12 10 C-7.52941176 6 -7.52941176 6 -5 6 C-5 5.34 -5 4.68 -5 4 C-3.37373596 2.61767557 -1.7074998 1.28062485 0 0 Z " fill="#371B87" transform="translate(359,212)"/>
<path d="M0 0 C-0.165 0.804375 -0.33 1.60875 -0.5 2.4375 C-1.03191839 4.7284443 -1.03191839 4.7284443 -1 6 C-0.01 6.33 0.98 6.66 2 7 C-0.33623775 8.82518575 -2.08898065 10.01010373 -5.11328125 9.9765625 C-7.08537617 9.71735287 -9.04463697 9.36455921 -11 9 C-11 7.35 -11 5.7 -11 4 C-8 3 -8 3 -6 3 C-5.34 2.505 -4.68 2.01 -4 1.5 C-2 0 -2 0 0 0 Z " fill="#5A30CD" transform="translate(171,247)"/>
<path d="M0 0 C0.7734375 0.3403125 0.7734375 0.3403125 1.5625 0.6875 C1.5625 1.0175 1.5625 1.3475 1.5625 1.6875 C-0.0875 1.6875 -1.7375 1.6875 -3.4375 1.6875 C-3.7675 2.6775 -4.0975 3.6675 -4.4375 4.6875 C-6.75597874 5.4041207 -9.09069703 6.06992027 -11.4375 6.6875 C-12.0975 7.3475 -12.7575 8.0075 -13.4375 8.6875 C-15.63041082 9.14412153 -17.84335889 9.507912 -20.0625 9.8125 C-21.84527344 10.06386719 -21.84527344 10.06386719 -23.6640625 10.3203125 C-24.57929688 10.44148438 -25.49453125 10.56265625 -26.4375 10.6875 C-23.78028299 8.03028299 -20.69424465 7.07112573 -17.25 5.75 C-15.94366776 5.24176527 -14.6376764 4.73265351 -13.33203125 4.22265625 C-12.6877417 3.97314209 -12.04345215 3.72362793 -11.37963867 3.46655273 C-9.42955174 2.6843117 -7.51838825 1.83662214 -5.6015625 0.9765625 C-2.4375 -0.3125 -2.4375 -0.3125 0 0 Z " fill="#166647" transform="translate(394.4375,102.3125)"/>
<path d="M0 0 C0.33 0.66 0.66 1.32 1 2 C1.99 2.33 2.98 2.66 4 3 C5.02611949 4.65071396 6.02308143 6.31970006 7 8 C8.29579647 9.36984198 9.61992749 10.7151049 11 12 C10.67 12.66 10.34 13.32 10 14 C9.38511719 13.3503125 8.77023437 12.700625 8.13671875 12.03125 C7.32847656 11.1959375 6.52023437 10.360625 5.6875 9.5 C4.88699219 8.6646875 4.08648437 7.829375 3.26171875 6.96875 C1.12262518 4.67171717 1.12262518 4.67171717 -2 5 C-2 5.66 -2 6.32 -2 7 C-2.66 7 -3.32 7 -4 7 C-4.66 8.32 -5.32 9.64 -6 11 C-6.99 11 -7.98 11 -9 11 C-7.6957672 7.0873016 -6.21065261 4.62689759 -3 2 C-2.01 2 -1.02 2 0 2 C0 1.34 0 0.68 0 0 Z " fill="#12765D" transform="translate(364,182)"/>
<path d="M0 0 C0 1.65 0 3.3 0 5 C-2.97 4.505 -2.97 4.505 -6 4 C-6 4.66 -6 5.32 -6 6 C-6.66 6 -7.32 6 -8 6 C-8.2475 6.61875 -8.495 7.2375 -8.75 7.875 C-10.24391702 10.41465893 -11.21539622 11.09909878 -14 12 C-16.25 11.625 -16.25 11.625 -18 11 C-15.28423427 7.91434503 -11.91344172 5.92712681 -8.4375 3.8125 C-7.84775391 3.44447266 -7.25800781 3.07644531 -6.65039062 2.69726562 C-2.25169585 0 -2.25169585 0 0 0 Z " fill="#3A1C8A" transform="translate(304,255)"/>
<path d="M0 0 C0.66 0 1.32 0 2 0 C2.2358396 5.77807024 1.86783046 10.51324804 0 16 C-2.1875 16.8125 -2.1875 16.8125 -5 17 C-7.8125 14.5625 -7.8125 14.5625 -10 12 C-6.65626525 12.55728913 -3.96687001 13.35173889 -1 15 C-1.2784375 13.7934375 -1.2784375 13.7934375 -1.5625 12.5625 C-1.706875 11.716875 -1.85125 10.87125 -2 10 C-1.67 9.67 -1.34 9.34 -1 9 C-0.76807135 7.48530552 -0.58784762 5.96245438 -0.4375 4.4375 C-0.35371094 3.61121094 -0.26992188 2.78492188 -0.18359375 1.93359375 C-0.12300781 1.29550781 -0.06242187 0.65742188 0 0 Z " fill="#1EBD97" transform="translate(387,186)"/>
<path d="M0 0 C0.66 0 1.32 0 2 0 C3.09990689 3.29972068 2.91161566 4.91990265 2.44140625 8.32421875 C2.30283203 9.35224609 2.16425781 10.38027344 2.02148438 11.43945312 C1.87001953 12.51130859 1.71855469 13.58316406 1.5625 14.6875 C1.41490234 15.77095703 1.26730469 16.85441406 1.11523438 17.97070312 C0.74960707 20.64803855 0.37762551 23.32433493 0 26 C-0.33 26 -0.66 26 -1 26 C-3.48012719 6.96025437 -3.48012719 6.96025437 0 0 Z " fill="#157B5D" transform="translate(392,152)"/>
<path d="M0 0 C0.556875 0.37125 1.11375 0.7425 1.6875 1.125 C1.6875 1.785 1.6875 2.445 1.6875 3.125 C0.45773438 3.38023437 0.45773438 3.38023437 -0.796875 3.640625 C-2.41335937 4.00414062 -2.41335937 4.00414062 -4.0625 4.375 C-5.12984375 4.60703125 -6.1971875 4.8390625 -7.296875 5.078125 C-10.59968635 6.22469681 -11.96559868 7.61046287 -14.3125 10.125 C-16.5625 9.875 -16.5625 9.875 -18.3125 9.125 C-17.3225 9.125 -16.3325 9.125 -15.3125 9.125 C-14.9825 7.805 -14.6525 6.485 -14.3125 5.125 C-12.0025 4.465 -9.6925 3.805 -7.3125 3.125 C-7.3125 2.465 -7.3125 1.805 -7.3125 1.125 C-2.88173077 -1.09038462 -2.88173077 -1.09038462 0 0 Z " fill="#25D093" transform="translate(225.3125,234.875)"/>
<path d="M0 0 C0 0.99 0 1.98 0 3 C0.33 3.33 0.66 3.66 1 4 C0.5625 6.0625 0.5625 6.0625 0 8 C-3.303314 8.88935377 -6.62294375 9.46274105 -10 10 C-8.4411666 6.17377257 -6.04566418 3.74852621 -3 1 C-2.01 0.67 -1.02 0.34 0 0 Z " fill="#2ACD93" transform="translate(318,166)"/>
<path d="M0 0 C-0.7115625 0.680625 -0.7115625 0.680625 -1.4375 1.375 C-3.09027808 2.93258204 -3.09027808 2.93258204 -4 5 C-4.66 5 -5.32 5 -6 5 C-6.33 5.66 -6.66 6.32 -7 7 C-9.06640625 7.4140625 -9.06640625 7.4140625 -11.5625 7.625 C-12.80193359 7.73714844 -12.80193359 7.73714844 -14.06640625 7.8515625 C-15.02353516 7.92503906 -15.02353516 7.92503906 -16 8 C-13.56198347 3.24586777 -13.56198347 3.24586777 -11 2.125 C-9 2 -9 2 -6 3 C-6 2.01 -6 1.02 -6 0 C-3.50907189 -1.24546405 -2.58919267 -0.7767578 0 0 Z " fill="#22D891" transform="translate(338,128)"/>
<path d="M0 0 C1.98 0.66 3.96 1.32 6 2 C2.83047153 5.26008643 -0.39937989 8.22237877 -4 11 C-4.66 10.67 -5.32 10.34 -6 10 C-6 9.34 -6 8.68 -6 8 C-5.34 8 -4.68 8 -4 8 C-4 7.34 -4 6.68 -4 6 C-3.34 6 -2.68 6 -2 6 C-2 5.34 -2 4.68 -2 4 C-2.66 4 -3.32 4 -4 4 C-4 3.34 -4 2.68 -4 2 C-3.01 2 -2.02 2 -1 2 C-0.67 1.34 -0.34 0.68 0 0 Z " fill="#179B77" transform="translate(312,224)"/>
<path d="M0 0 C-0.33 1.65 -0.66 3.3 -1 5 C-8.42857143 7.14285714 -8.42857143 7.14285714 -12 8 C-11.67 7.01 -11.34 6.02 -11 5 C-10.34 5 -9.68 5 -9 5 C-9 4.01 -9 3.02 -9 2 C-5.5647952 -0.29013653 -4.014669 -0.17842973 0 0 Z " fill="#20D098" transform="translate(271,208)"/>
<path d="M0 0 C0 0.66 0 1.32 0 2 C-0.66 2 -1.32 2 -2 2 C-2.20625 2.639375 -2.4125 3.27875 -2.625 3.9375 C-3.07875 4.618125 -3.5325 5.29875 -4 6 C-4.9075 6.103125 -5.815 6.20625 -6.75 6.3125 C-11.44723997 7.30614692 -13.2413982 10.25338834 -16 14 C-16.33 13.01 -16.66 12.02 -17 11 C-13.04925974 6.52249437 -6.24406437 0 0 0 Z " fill="#381D85" transform="translate(138,138)"/>
<path d="M0 0 C2.475 0.99 2.475 0.99 5 2 C5 2.66 5 3.32 5 4 C5.66 4 6.32 4 7 4 C7.66 7.3 8.32 10.6 9 14 C7 13 7 13 5.625 10.6875 C4.12157237 7.9302869 4.12157237 7.9302869 1.8125 5.9375 C0 4 0 4 0 0 Z " fill="#1AC29B" transform="translate(368,184)"/>
<path d="M0 0 C0 0.66 0 1.32 0 2 C-0.66 2 -1.32 2 -2 2 C-2 2.66 -2 3.32 -2 4 C-2.66 4 -3.32 4 -4 4 C-4.66 5.32 -5.32 6.64 -6 8 C-8.97 8 -11.94 8 -15 8 C-12.24397822 5.24397822 -10.36058656 3.99127441 -6.9375 2.3125 C-5.62072266 1.65701172 -5.62072266 1.65701172 -4.27734375 0.98828125 C-2 0 -2 0 0 0 Z " fill="#4525A6" transform="translate(159,127)"/>
<path d="M0 0 C2.475 0.495 2.475 0.495 5 1 C5 1.66 5 2.32 5 3 C15.89 3 26.78 3 38 3 C38 3.33 38 3.66 38 4 C33.23118124 4.09900135 28.4629627 4.17152928 23.69335938 4.21972656 C22.07150857 4.23982144 20.44973003 4.26710254 18.828125 4.30175781 C16.4946102 4.3503727 14.16205443 4.37298889 11.828125 4.390625 C10.74352997 4.42159271 10.74352997 4.42159271 9.63702393 4.45318604 C6.05310029 4.45477743 4.33522038 4.27262136 1.51074219 1.97558594 C0.7629248 0.9976709 0.7629248 0.9976709 0 0 Z " fill="#3C208B" transform="translate(125,388)"/>
<path d="M0 0 C2.64 0.33 5.28 0.66 8 1 C7.01 1.495 7.01 1.495 6 2 C5.67 2.99 5.34 3.98 5 5 C4.34 5 3.68 5 3 5 C3 5.66 3 6.32 3 7 C0.36 7.66 -2.28 8.32 -5 9 C-5 8.34 -5 7.68 -5 7 C-4.175 6.54625 -3.35 6.0925 -2.5 5.625 C-1.2625 4.820625 -1.2625 4.820625 0 4 C0 2.68 0 1.36 0 0 Z " fill="#22A57D" transform="translate(257,257)"/>
<path d="M0 0 C0.66 0.33 1.32 0.66 2 1 C2 1.99 2 2.98 2 4 C-0.51953125 5.859375 -0.51953125 5.859375 -3.8125 7.75 C-4.89144531 8.38421875 -5.97039062 9.0184375 -7.08203125 9.671875 C-10 11 -10 11 -13 10 C-9.22313713 6.09290048 -6.43141712 3.88077034 -1 3 C-0.67 2.01 -0.34 1.02 0 0 Z " fill="#1C916F" transform="translate(273,252)"/>
<path d="M0 0 C0.33 0 0.66 0 1 0 C1.33 10.23 1.66 20.46 2 31 C2.66 31 3.32 31 4 31 C4.33 32.65 4.66 34.3 5 36 C1.125 33.375 1.125 33.375 0 30 C-0.08378628 27.7161483 -0.10729915 25.429899 -0.09765625 23.14453125 C-0.0962413 22.48289474 -0.09482635 21.82125824 -0.09336853 21.13957214 C-0.08777996 19.03050172 -0.07522965 16.92153823 -0.0625 14.8125 C-0.05748352 13.38086091 -0.05292087 11.94922015 -0.04882812 10.51757812 C-0.0378143 7.01168412 -0.02055755 3.5058525 0 0 Z " fill="#3D1F91" transform="translate(120,352)"/>
<path d="M0 0 C0.375 2.25 0.375 2.25 0 5 C-2.8125 7.375 -2.8125 7.375 -6 9 C-6.99 8.67 -7.98 8.34 -9 8 C-8.67 7.01 -8.34 6.02 -8 5 C-7.34 5 -6.68 5 -6 5 C-5.71125 4.360625 -5.4225 3.72125 -5.125 3.0625 C-3.72314735 0.49243681 -2.91896073 0 0 0 Z " fill="#5229C3" transform="translate(144,135)"/>
<path d="M0 0 C0.33 0.99 0.66 1.98 1 3 C-0.6396875 3.6496875 -0.6396875 3.6496875 -2.3125 4.3125 C-5.13790298 5.50873916 -6.92568798 6.70733935 -9 9 C-9.66 9 -10.32 9 -11 9 C-10.67 10.32 -10.34 11.64 -10 13 C-11.32 12.67 -12.64 12.34 -14 12 C-13.34 11.67 -12.68 11.34 -12 11 C-11.81050781 10.09507812 -11.81050781 10.09507812 -11.6171875 9.171875 C-10.79600995 6.28216159 -9.38797154 5.1896899 -7.125 3.25 C-6.07699219 2.32960937 -6.07699219 2.32960937 -5.0078125 1.390625 C-3 0 -3 0 0 0 Z " fill="#27CE96" transform="translate(305,179)"/>
<path d="M0 0 C0.33 0 0.66 0 1 0 C1 6.93 1 13.86 1 21 C0.01 21.33 -0.98 21.66 -2 22 C-2 22.66 -2 23.32 -2 24 C-3.32 24.33 -4.64 24.66 -6 25 C-6 24.01 -6 23.02 -6 22 C-5.01 22 -4.02 22 -3 22 C-3 21.01 -3 20.02 -3 19 C-2.34 19 -1.68 19 -1 19 C-0.67 12.73 -0.34 6.46 0 0 Z " fill="#5B32D0" transform="translate(221,200)"/>
<path d="M0 0 C2.31 0.66 4.62 1.32 7 2 C7.6875 3.8125 7.6875 3.8125 8 6 C5.58245729 9.35769821 1.63506823 11.18246588 -2 13 C-0.55746343 9.63408134 1.33264727 7.48952921 4 5 C3.34 4.360625 2.68 3.72125 2 3.0625 C0 1 0 1 0 0 Z " fill="#1C855C" transform="translate(313,158)"/>
<path d="M0 0 C0 0.66 0 1.32 0 2 C-2.64738916 3.4606285 -3.89448334 4 -7 4 C-7.33 5.32 -7.66 6.64 -8 8 C-10.97 8 -13.94 8 -17 8 C-15.60920481 5.21840961 -14.06287872 5.07774078 -11.1875 4 C-8.65699015 3.04311592 -6.21005826 2.10745432 -3.80078125 0.875 C-2 0 -2 0 0 0 Z " fill="#19734F" transform="translate(218,236)"/>
<path d="M0 0 C-2.78394043 1.70050657 -5.57827525 3.38311625 -8.375 5.0625 C-9.1690625 5.54783203 -9.963125 6.03316406 -10.78125 6.53320312 C-11.54179687 6.98759766 -12.30234375 7.44199219 -13.0859375 7.91015625 C-13.7876709 8.33433838 -14.4894043 8.75852051 -15.21240234 9.19555664 C-16.09726318 9.5937561 -16.09726318 9.5937561 -17 10 C-17.66 9.67 -18.32 9.34 -19 9 C-19 8.01 -19 7.02 -19 6 C-17.35 6 -15.7 6 -14 6 C-14 5.34 -14 4.68 -14 4 C-13.195625 3.87625 -12.39125 3.7525 -11.5625 3.625 C-10.716875 3.41875 -9.87125 3.2125 -9 3 C-8.67 2.34 -8.34 1.68 -8 1 C-2.47058824 -1.23529412 -2.47058824 -1.23529412 0 0 Z " fill="#301775" transform="translate(206,231)"/>
<path d="M0 0 C0.99 0 1.98 0 3 0 C3.33 0.99 3.66 1.98 4 3 C3.34 3 2.68 3 2 3 C2 3.99 2 4.98 2 6 C1.01 6 0.02 6 -1 6 C-1 6.99 -1 7.98 -1 9 C-2.175625 9.2165625 -2.175625 9.2165625 -3.375 9.4375 C-5.96421018 9.87798925 -5.96421018 9.87798925 -8 11 C-7.67 9.68 -7.34 8.36 -7 7 C-6.01 7.33 -5.02 7.66 -4 8 C-4 6.68 -4 5.36 -4 4 C-2.68 3.34 -1.36 2.68 0 2 C0 1.34 0 0.68 0 0 Z " fill="#602FDE" transform="translate(216,216)"/>
<path d="M0 0 C1.22589844 0.01353516 1.22589844 0.01353516 2.4765625 0.02734375 C3.41628906 0.04474609 3.41628906 0.04474609 4.375 0.0625 C4.045 0.7225 3.715 1.3825 3.375 2.0625 C1.725 2.0625 0.075 2.0625 -1.625 2.0625 C-1.625 2.7225 -1.625 3.3825 -1.625 4.0625 C-2.264375 4.165625 -2.90375 4.26875 -3.5625 4.375 C-4.243125 4.601875 -4.92375 4.82875 -5.625 5.0625 C-5.955 6.0525 -6.285 7.0425 -6.625 8.0625 C-7.945 7.4025 -9.265 6.7425 -10.625 6.0625 C-7.11585383 1.50060998 -5.76245572 -0.0823208 0 0 Z " fill="#5F2FE1" transform="translate(193.625,232.9375)"/>
<path d="M0 0 C-1.2824977 2.86095641 -2.45343989 5.11365918 -5 7 C-7.375 7.125 -7.375 7.125 -10 7 C-11.67343448 7.29749946 -13.34305915 7.62127066 -15 8 C-12.23612808 5.84821844 -9.43466931 4.01629579 -6.375 2.3125 C-5.59898437 1.87550781 -4.82296875 1.43851563 -4.0234375 0.98828125 C-2 0 -2 0 0 0 Z " fill="#197A55" transform="translate(233,228)"/>
<path d="M0 0 C0.66 0.66 1.32 1.32 2 2 C5.09926819 1.67801034 5.09926819 1.67801034 8 1 C5.22719294 4.08089673 2.93673644 5.68775452 -1 7 C-1.625 4.625 -1.625 4.625 -2 2 C-1.34 1.34 -0.68 0.68 0 0 Z " fill="#159A76" transform="translate(289,240)"/>
<path d="M0 0 C0 0.66 0 1.32 0 2 C-2.32562655 3.3488634 -4.65783461 4.6804702 -7 6 C-8.051875 6.598125 -9.10375 7.19625 -10.1875 7.8125 C-13.26317754 9.11111941 -13.96467285 8.95544559 -17 8 C-14.54429825 6.66161267 -12.08570084 5.32913768 -9.625 4 C-8.92632812 3.6184375 -8.22765625 3.236875 -7.5078125 2.84375 C-2.2265625 0 -2.2265625 0 0 0 Z " fill="#2A166D" transform="translate(191,110)"/>
<path d="M0 0 C0.78375 0.04125 1.5675 0.0825 2.375 0.125 C2.045 1.115 1.715 2.105 1.375 3.125 C0.715 3.125 0.055 3.125 -0.625 3.125 C-0.625 3.785 -0.625 4.445 -0.625 5.125 C-1.285 5.125 -1.945 5.125 -2.625 5.125 C-2.295 6.775 -1.965 8.425 -1.625 10.125 C-2.615 9.795 -3.605 9.465 -4.625 9.125 C-4.75 5.75 -4.75 5.75 -4.625 2.125 C-2.625 0.125 -2.625 0.125 0 0 Z " fill="#2CD28E" transform="translate(303.625,140.875)"/>
<path d="M0 0 C1.77049689 -0.05410687 3.54146849 -0.09284119 5.3125 -0.125 C6.29863281 -0.14820312 7.28476563 -0.17140625 8.30078125 -0.1953125 C11 0 11 0 14 2 C14 2.66 14 3.32 14 4 C9.38 3.34 4.76 2.68 0 2 C0 1.34 0 0.68 0 0 Z " fill="#321A7A" transform="translate(207,100)"/>
<path d="M0 0 C0 0.66 0 1.32 0 2 C-5.75 5 -5.75 5 -8 5 C-8.33 5.99 -8.66 6.98 -9 8 C-10.98 8 -12.96 8 -15 8 C-13.48529691 4.97059382 -11.0596179 4.35039454 -8.0625 2.875 C-6.98097656 2.33617188 -5.89945313 1.79734375 -4.78515625 1.2421875 C-2 0 -2 0 0 0 Z " fill="#281464" transform="translate(174,119)"/>
<path d="M0 0 C-1.32 0.33 -2.64 0.66 -4 1 C-4.33 2.32 -4.66 3.64 -5 5 C-5.66 5 -6.32 5 -7 5 C-7.33 4.34 -7.66 3.68 -8 3 C-8.33 3.33 -8.66 3.66 -9 4 C-11.33297433 4.04092937 -13.66705225 4.04241723 -16 4 C-13.21769572 2.14513048 -11.15636393 1.27537888 -8 0.3125 C-6.700625 -0.09548828 -6.700625 -0.09548828 -5.375 -0.51171875 C-3 -1 -3 -1 0 0 Z " fill="#195D59" transform="translate(190,249)"/>
<path d="M0 0 C-0.66 1.98 -1.32 3.96 -2 6 C-3.875 5.75 -3.875 5.75 -6 5 C-7.25 2.9375 -7.25 2.9375 -8 1 C-4.93251126 -0.86240388 -3.40254489 -1.2151946 0 0 Z " fill="#27BE9E" transform="translate(194,249)"/>
<path d="M0 0 C0.33 0.66 0.66 1.32 1 2 C1.66 2 2.32 2 3 2 C3 3.32 3 4.64 3 6 C2.34 6 1.68 6 1 6 C1 6.66 1 7.32 1 8 C-0.65 8.66 -2.3 9.32 -4 10 C-3.67 9.2575 -3.34 8.515 -3 7.75 C-1.77217129 4.86116688 -1.77217129 4.86116688 -2 1 C-1.34 0.67 -0.68 0.34 0 0 Z " fill="#189B78" transform="translate(322,216)"/>
<path d="M0 0 C0.66 0.33 1.32 0.66 2 1 C-0.72231898 5.71170593 -2.88484204 8.04100334 -8 10 C-8.99 10 -9.98 10 -11 10 C-10.54109375 9.61328125 -10.0821875 9.2265625 -9.609375 8.828125 C-6.274919 5.99804049 -3.03498697 3.15638645 0 0 Z " fill="#116645" transform="translate(309,171)"/>
<path d="M0 0 C-0.66 0 -1.32 0 -2 0 C-2.33 0.99 -2.66 1.98 -3 3 C-4.65 3.33 -6.3 3.66 -8 4 C-8.33 6.31 -8.66 8.62 -9 11 C-9.66 10.34 -10.32 9.68 -11 9 C-10.85168793 5.51466624 -10.67476106 3.65226902 -8.125 1.1875 C-4.87428835 -0.62907416 -3.61812519 -1.20604173 0 0 Z " fill="#125A38" transform="translate(308,139)"/>
<path d="M0 0 C3 1 3 1 4.1875 3.0625 C4.455625 3.701875 4.72375 4.34125 5 5 C2.69 5.33 0.38 5.66 -2 6 C-2.33 5.01 -2.66 4.02 -3 3 C-2.01 2.01 -1.02 1.02 0 0 Z " fill="#21D195" transform="translate(221,273)"/>
<path d="M0 0 C0.66 0.33 1.32 0.66 2 1 C0.61469871 4.42717768 -0.67477227 5.7293493 -4 7.3125 C-4.70125 7.65925781 -5.4025 8.00601563 -6.125 8.36328125 C-7.053125 8.67845703 -7.053125 8.67845703 -8 9 C-8.66 8.67 -9.32 8.34 -10 8 C-6.7 5.36 -3.4 2.72 0 0 Z " fill="#2E1778" transform="translate(336,231)"/>
<path d="M0 0 C-2.72106694 2.72106694 -4.84776311 2.60655572 -8.625 3.125 C-10.40777344 3.37636719 -10.40777344 3.37636719 -12.2265625 3.6328125 C-13.14179688 3.75398438 -14.05703125 3.87515625 -15 4 C-10.60349947 -0.39650053 -5.93194247 -1.59149676 0 0 Z " fill="#197B55" transform="translate(383,109)"/>
<path d="M0 0 C0.66 0.33 1.32 0.66 2 1 C1.67 2.32 1.34 3.64 1 5 C0.34 5 -0.32 5 -1 5 C-1 4.34 -1 3.68 -1 3 C-2.11375 3.350625 -3.2275 3.70125 -4.375 4.0625 C-8 5 -8 5 -10 4 C-10.33 4.66 -10.66 5.32 -11 6 C-11 5.01 -11 4.02 -11 3 C-10.28972656 2.86722656 -9.57945312 2.73445312 -8.84765625 2.59765625 C-7.92855469 2.42105469 -7.00945312 2.24445313 -6.0625 2.0625 C-4.68771484 1.80146484 -4.68771484 1.80146484 -3.28515625 1.53515625 C-1.04710156 1.22285012 -1.04710156 1.22285012 0 0 Z " fill="#359EAB" transform="translate(182,251)"/>
<path d="M0 0 C-0.33 0.66 -0.66 1.32 -1 2 C-2.8871875 1.9071875 -2.8871875 1.9071875 -4.8125 1.8125 C-8.16958979 1.76367078 -8.16958979 1.76367078 -11 3.5 C-11.495 4.2425 -11.495 4.2425 -12 5 C-12.66 4.67 -13.32 4.34 -14 4 C-6.13315217 -2.81793478 -6.13315217 -2.81793478 0 0 Z " fill="#271464" transform="translate(375,207)"/>
<path d="M0 0 C1.98 0.99 1.98 0.99 4 2 C4.1875 4.875 4.1875 4.875 4 8 C3.01 8.66 2.02 9.32 1 10 C0.67 6.7 0.34 3.4 0 0 Z " fill="#1DCCA3" transform="translate(353,184)"/>
<path d="M0 0 C2.475 0.99 2.475 0.99 5 2 C3.515 4.475 3.515 4.475 2 7 C0.35 6.01 -1.3 5.02 -3 4 C-2.01 2.68 -1.02 1.36 0 0 Z " fill="#20D791" transform="translate(315,153)"/>
<path d="M0 0 C0.99 0.33 1.98 0.66 3 1 C4.1875 4.0625 4.1875 4.0625 5 7 C2.625 7.1875 2.625 7.1875 0 7 C-0.66 6.01 -1.32 5.02 -2 4 C-1.34 3.67 -0.68 3.34 0 3 C0 2.01 0 1.02 0 0 Z " fill="#1DAB71" transform="translate(301,146)"/>
<path d="M0 0 C0.66 0 1.32 0 2 0 C1 3 1 3 -1 4 C-1.99 5.485 -1.99 5.485 -3 7 C-3.66 6.67 -4.32 6.34 -5 6 C-5.33 6.66 -5.66 7.32 -6 8 C-6.66 7.67 -7.32 7.34 -8 7 C-8 6.34 -8 5.68 -8 5 C-5.09451118 2.95830515 -3.59857954 2 0 2 C0 1.34 0 0.68 0 0 Z " fill="#592FD2" transform="translate(174,119)"/>
<path d="M0 0 C0.33 0.99 0.66 1.98 1 3 C0.34 3 -0.32 3 -1 3 C-1.33 4.65 -1.66 6.3 -2 8 C-2.99 8 -3.98 8 -5 8 C-5 5.69 -5 3.38 -5 1 C-4.67 1.99 -4.34 2.98 -4 4 C-3.34 4 -2.68 4 -2 4 C-2 3.01 -2 2.02 -2 1 C-1.34 0.67 -0.68 0.34 0 0 Z " fill="#582CCA" transform="translate(219,382)"/>
<path d="M0 0 C-1 1 -1 1 -4.3125 1.375 C-7.91099753 1.98491484 -9.37548273 2.58544412 -12 5 C-12 4.34 -12 3.68 -12 3 C-12.66 2.67 -13.32 2.34 -14 2 C-11.01745874 0.01163916 -9.86191192 -0.34336635 -6.4375 -0.6875 C-5.25994141 -0.81705078 -5.25994141 -0.81705078 -4.05859375 -0.94921875 C-2 -1 -2 -1 0 0 Z " fill="#5140D2" transform="translate(203,288)"/>
<path d="M0 0 C0.33 0.99 0.66 1.98 1 3 C-1 5 -1 5 -3.375 5.0625 C-4.24125 5.041875 -5.1075 5.02125 -6 5 C-7.34332728 5.29044914 -8.68225804 5.60955794 -10 6 C-9.67 5.01 -9.34 4.02 -9 3 C-6.69 3 -4.38 3 -2 3 C-2 2.34 -2 1.68 -2 1 C-1.34 0.67 -0.68 0.34 0 0 Z " fill="#20D696" transform="translate(318,170)"/>
<path d="M0 0 C1.051875 0.2475 2.10375 0.495 3.1875 0.75 C1.125 2.8125 1.125 2.8125 -1.8125 4.75 C-5.625 4.5 -5.625 4.5 -8.8125 3.75 C-5.66311307 0.60061307 -4.55934222 -0.29897326 0 0 Z " fill="#1F316A" transform="translate(169.8125,252.25)"/>
<path d="M0 0 C0.86625 0.556875 0.86625 0.556875 1.75 1.125 C-0.63573379 3.01713369 -2.32175348 4.14891783 -5.25 5.125 C-5.58 3.805 -5.91 2.485 -6.25 1.125 C-2.80384615 -1.09038462 -2.80384615 -1.09038462 0 0 Z " fill="#29D08D" transform="translate(312.25,137.875)"/>
<path d="M0 0 C-0.625 1.875 -0.625 1.875 -2 4 C-5.125 5.25 -5.125 5.25 -8 6 C-8.33 5.34 -8.66 4.68 -9 4 C-8.34 4 -7.68 4 -7 4 C-7 3.34 -7 2.68 -7 2 C-4.35261084 0.5393715 -3.10551666 0 0 0 Z " fill="#2BCE91" transform="translate(354,120)"/>
<path d="M0 0 C-0.66 0 -1.32 0 -2 0 C-2.33 0.99 -2.66 1.98 -3 3 C-7.455 3.495 -7.455 3.495 -12 4 C-11.67 3.34 -11.34 2.68 -11 2 C-9.35 2 -7.7 2 -6 2 C-6 1.34 -6 0.68 -6 0 C-3 -1 -3 -1 0 0 Z " fill="#4372BD" transform="translate(222,280)"/>
<path d="M0 0 C0.33 1.32 0.66 2.64 1 4 C-1.97 3.505 -1.97 3.505 -5 3 C-5.33 2.01 -5.66 1.02 -6 0 C-3.50907189 -1.24546405 -2.58919267 -0.7767578 0 0 Z " fill="#1ED59A" transform="translate(287,196)"/>
<path d="M0 0 C-0.66 0 -1.32 0 -2 0 C-2 0.99 -2 1.98 -2 3 C-4.31 3 -6.62 3 -9 3 C-9.33 3.66 -9.66 4.32 -10 5 C-10.66 4.34 -11.32 3.68 -12 3 C-10.5682384 2.30062798 -9.12932968 1.61587282 -7.6875 0.9375 C-6.48673828 0.36322266 -6.48673828 0.36322266 -5.26171875 -0.22265625 C-3 -1 -3 -1 0 0 Z " fill="#156743" transform="translate(334,128)"/>
<path d="M0 0 C-1.08203125 1.51953125 -1.08203125 1.51953125 -3 3 C-6.13671875 3.07421875 -6.13671875 3.07421875 -9.6875 2.6875 C-10.86699219 2.56761719 -12.04648438 2.44773437 -13.26171875 2.32421875 C-14.16535156 2.21722656 -15.06898438 2.11023438 -16 2 C-16 1.67 -16 1.34 -16 1 C-10.65097076 0.40801257 -5.39115154 -0.14187241 0 0 Z " fill="#5738D9" transform="translate(178,293)"/>
<path d="M0 0 C2.64 0.33 5.28 0.66 8 1 C7.01 1.495 7.01 1.495 6 2 C6 2.66 6 3.32 6 4 C4.02 4 2.04 4 0 4 C0 2.68 0 1.36 0 0 Z " fill="#18D19D" transform="translate(257,257)"/>
<path d="M0 0 C2.64 0 5.28 0 8 0 C5.47043472 3.0916909 2.77545388 3.90931332 -1 5 C-0.67 3.35 -0.34 1.7 0 0 Z " fill="#381B89" transform="translate(171,246)"/>
<path d="M0 0 C-0.33 0.66 -0.66 1.32 -1 2 C-3.32156597 2.40729228 -5.6568787 2.74438677 -8 3 C-7.67 2.01 -7.34 1.02 -7 0 C-4.3333581 -1.33332095 -2.83319697 -0.67102033 0 0 Z " fill="#4B29B0" transform="translate(294,264)"/>
<path d="M0 0 C0.66 0.33 1.32 0.66 2 1 C-0.34407102 4.51610654 -2.16854912 5.35794962 -6 7 C-6.99 7 -7.98 7 -9 7 C-6.03 4.69 -3.06 2.38 0 0 Z " fill="#200F5D" transform="translate(324,240)"/>
<path d="M0 0 C0.33 0.99 0.66 1.98 1 3 C0.34 3 -0.32 3 -1 3 C-0.67 4.98 -0.34 6.96 0 9 C-2 7.6875 -2 7.6875 -4 6 C-4 5.01 -4 4.02 -4 3 C-2 1.3125 -2 1.3125 0 0 Z " fill="#5A31D3" transform="translate(359,214)"/>
<path d="M0 0 C0 0.99 0 1.98 0 3 C-2.30368736 4.06652192 -4.64018187 5.06421005 -7 6 C-7.66 5.67 -8.32 5.34 -9 5 C-7.87926138 4.16094435 -6.75325453 3.32892169 -5.625 2.5 C-4.99851562 2.0359375 -4.37203125 1.571875 -3.7265625 1.09375 C-2 0 -2 0 0 0 Z " fill="#1A7F58" transform="translate(262,210)"/>
<path d="M0 0 C0.66 0.33 1.32 0.66 2 1 C1.75 2.875 1.75 2.875 1 5 C-1.0625 6.25 -1.0625 6.25 -3 7 C-3.1875 4.625 -3.1875 4.625 -3 2 C-2.01 1.34 -1.02 0.68 0 0 Z " fill="#5F2EE2" transform="translate(126,147)"/>
<path d="M0 0 C0.66 0.33 1.32 0.66 2 1 C-0.41556126 4.19199167 -2.68003538 6.74716687 -6 9 C-5.52797514 4.75177626 -3.03344482 2.80010291 0 0 Z " fill="#2A1566" transform="translate(127,143)"/>
<path d="M0 0 C0.99 0.33 1.98 0.66 3 1 C2.67 5.29 2.34 9.58 2 14 C1.67 14 1.34 14 1 14 C0.67 9.38 0.34 4.76 0 0 Z " fill="#504ED4" transform="translate(159,255)"/>
<path d="M0 0 C1.65 0.33 3.3 0.66 5 1 C3.06745228 3.0245738 1.36841312 4.42105792 -1 6 C-1.99 5.67 -2.98 5.34 -4 5 C-3.34 4.360625 -2.68 3.72125 -2 3.0625 C0.11602431 1.35917681 0.11602431 1.35917681 0 0 Z " fill="#0F684A" transform="translate(264,257)"/>
<path d="M0 0 C-1.875 3.875 -1.875 3.875 -3 5 C-4.66617115 5.04063832 -6.33388095 5.042721 -8 5 C-3.16129032 0 -3.16129032 0 0 0 Z " fill="#391D86" transform="translate(312,250)"/>
<path d="M0 0 C2.475 0.495 2.475 0.495 5 1 C5 1.33 5 1.66 5 2 C6.65 2.33 8.3 2.66 10 3 C9.34 3.66 8.68 4.32 8 5 C5.5625 4.875 5.5625 4.875 3 4 C1.1875 1.9375 1.1875 1.9375 0 0 Z " fill="#0D614A" transform="translate(377,198)"/>
<path d="M0 0 C0 0.66 0 1.32 0 2 C-0.66 2 -1.32 2 -2 2 C-2.66 3.32 -3.32 4.64 -4 6 C-4.99 6 -5.98 6 -7 6 C-4.84615385 0 -4.84615385 0 0 0 Z " fill="#105E48" transform="translate(362,187)"/>
<path d="M0 0 C-1.90401138 1.90401138 -3.33425686 2.93520439 -6.046875 3.19921875 C-8.03233273 3.1886578 -10.0169914 3.09915043 -12 3 C-11.67 2.34 -11.34 1.68 -11 1 C-7.29882394 0.15882362 -3.78728969 -0.11139087 0 0 Z " fill="#1DA16B" transform="translate(320,135)"/>
<path d="M0 0 C-0.7115625 0.680625 -0.7115625 0.680625 -1.4375 1.375 C-3.09027808 2.93258204 -3.09027808 2.93258204 -4 5 C-4.99 4.67 -5.98 4.34 -7 4 C-6.625 2.0625 -6.625 2.0625 -6 0 C-3.50907189 -1.24546405 -2.58919267 -0.7767578 0 0 Z " fill="#2CCF8E" transform="translate(338,128)"/>
<path d="M0 0 C0 0.66 0 1.32 0 2 C-0.66 2 -1.32 2 -2 2 C-2 2.66 -2 3.32 -2 4 C-4.31 4.33 -6.62 4.66 -9 5 C-6.45523312 2.20075644 -3.92372883 0 0 0 Z " fill="#311A79" transform="translate(159,127)"/>
<path d="M0 0 C2.31 0.33 4.62 0.66 7 1 C4.06171403 3.50298434 1.82097239 4.46930939 -2 5 C-1.34 4.01 -0.68 3.02 0 2 C0 1.34 0 0.68 0 0 Z " fill="#147050" transform="translate(241,268)"/>
<path d="M0 0 C-2.85306797 2.32472205 -5.54074837 3.7508258 -9 5 C-9 4.01 -9 3.02 -9 2 C-5.5647952 -0.29013653 -4.014669 -0.17842973 0 0 Z " fill="#371B83" transform="translate(215,225)"/>
<path d="M0 0 C1.32 0 2.64 0 4 0 C3.67 0.99 3.34 1.98 3 3 C2.34 3 1.68 3 1 3 C1 3.66 1 4.32 1 5 C-0.32 5.33 -1.64 5.66 -3 6 C-3 5.01 -3 4.02 -3 3 C-2.01 3 -1.02 3 0 3 C0 2.01 0 1.02 0 0 Z " fill="#3B1C88" transform="translate(218,219)"/>
<path d="M0 0 C-1.65 1.32 -3.3 2.64 -5 4 C-6.32 3.34 -7.64 2.68 -9 2 C-3.375 -1.125 -3.375 -1.125 0 0 Z " fill="#31C992" transform="translate(374,113)"/>
<path d="M0 0 C-2.35968744 2.09749995 -3.54616994 2.96905704 -6.75 3.1875 C-7.86375 3.0946875 -7.86375 3.0946875 -9 3 C-9.33 2.34 -9.66 1.68 -10 1 C-6.52674819 -0.1577506 -3.63932552 -0.06866652 0 0 Z " fill="#513ED3" transform="translate(188,291)"/>
<path d="M0 0 C0 0.99 0 1.98 0 3 C-5.625 6 -5.625 6 -9 6 C-7.8803014 4.99406757 -6.7540588 3.9954151 -5.625 3 C-4.68527344 2.1646875 -4.68527344 2.1646875 -3.7265625 1.3125 C-2 0 -2 0 0 0 Z " fill="#241262" transform="translate(347,224)"/>
<path d="M0 0 C2 3 2 3 2 5 C2.66 5 3.32 5 4 5 C4.33 6.65 4.66 8.3 5 10 C3.0625 8.9375 3.0625 8.9375 1 7 C0.25 3.3125 0.25 3.3125 0 0 Z " fill="#260F63" transform="translate(120,378)"/>
<path d="M0 0 C0.66 0.33 1.32 0.66 2 1 C0.68 2.65 -0.64 4.3 -2 6 C-3.32 5.67 -4.64 5.34 -6 5 C-4.02 3.35 -2.04 1.7 0 0 Z " fill="#5732C7" transform="translate(342,228)"/>
<path d="M0 0 C-0.99 1.485 -0.99 1.485 -2 3 C-5.625 3.1875 -5.625 3.1875 -9 3 C-8 1 -8 1 -5.625 -0.1875 C-3 -1 -3 -1 0 0 Z " fill="#145E3E" transform="translate(358,118)"/>
</svg>
