<?xml version="1.0" encoding="UTF-8"?>
<svg version="1.1" xmlns="http://www.w3.org/2000/svg" width="1024" height="1024">
<path d="M0 0 C2.375 1.875 2.375 1.875 4 5 C5.17793305 15.14481158 3.045932 25.93456718 1.8828125 36.015625 C1.6629096 37.95931537 1.44350752 39.90306245 1.22457886 41.84686279 C0.76587874 45.90859199 0.30325859 49.96984715 -0.16259766 54.03076172 C-0.75502061 59.19508707 -1.34090792 64.36012473 -1.92422295 69.52548599 C-2.48639262 74.50161032 -3.05157789 79.47739067 -3.6171875 84.453125 C-3.72258724 85.38197762 -3.82798698 86.31083023 -3.93658066 87.2678299 C-4.52095624 92.40721868 -5.12049753 97.54447119 -5.73317719 102.68055725 C-5.99329985 104.9417568 -6.22562169 107.20434069 -6.45220947 109.46911621 C-6.60074622 110.82417783 -6.74962943 112.17920154 -6.89892578 113.53417969 C-7.01664337 114.6945575 -7.13436096 115.8549353 -7.25564575 117.05047607 C-8.12819954 120.50799414 -9.20656349 121.83236674 -12 124 C-15.10819219 124.69070938 -16.96305777 124.65465938 -19.6953125 122.9296875 C-23.66191743 119.67458121 -26.91168824 115.8518433 -30.2421875 111.96875 C-34.98268649 106.44280578 -34.98268649 106.44280578 -41.37890625 103.52734375 C-45.21574677 104.21923302 -46.68528618 106.23757979 -49.3125 109.0625 C-50.28852203 110.08639499 -51.26639144 111.10853214 -52.24609375 112.12890625 C-53.15488281 113.07636719 -54.06367187 114.02382813 -55 115 C-57.59286406 117.42365604 -60.28799018 119.71114065 -63 122 C-63.95390625 122.81984375 -64.9078125 123.6396875 -65.890625 124.484375 C-73.20059331 130.74925859 -80.67413424 136.77409077 -88.28564453 142.66796875 C-89.94580562 143.95789169 -91.59680707 145.25871607 -93.24609375 146.5625 C-107.01362353 157.39037368 -121.6959186 166.50675695 -137 175 C-138.28293945 175.71542969 -138.28293945 175.71542969 -139.59179688 176.4453125 C-170.37209306 193.46206161 -203.66198054 205.13250201 -236.88671875 216.37890625 C-237.65369583 216.64170883 -238.42067291 216.90451141 -239.21089172 217.17527771 C-242.25531117 218.19626981 -244.76615174 219 -248 219 C-247.98889694 220.23504272 -247.97779388 221.47008545 -247.96635437 222.74255371 C-247.86489142 234.39516696 -247.78999259 246.04769029 -247.74093914 257.70064545 C-247.71487215 263.69124294 -247.67952606 269.68148313 -247.62280273 275.671875 C-247.56838107 281.45554607 -247.53855766 287.23887397 -247.52561378 293.02278137 C-247.51639225 295.22676493 -247.49838457 297.43073022 -247.47134972 299.63456726 C-247.43492542 302.72749058 -247.43006038 305.81900526 -247.43237305 308.91210938 C-247.41439667 309.81842102 -247.39642029 310.72473267 -247.37789917 311.6585083 C-247.42838895 317.92012854 -248.76269083 322.28856554 -253 327 C-258.01654074 331.42645292 -263.33151897 331.58518695 -269.77148438 331.54931641 C-270.726866 331.55953827 -271.68224762 331.56976013 -272.6665802 331.58029175 C-275.80922845 331.60798125 -278.95099465 331.60617894 -282.09375 331.6015625 C-284.2865837 331.609341 -286.47941439 331.61801128 -288.67224121 331.62753296 C-293.26189965 331.64243445 -297.85125031 331.64189096 -302.44091797 331.63134766 C-308.31569252 331.61974929 -314.18920779 331.6536503 -320.06377411 331.700037 C-324.59006077 331.72952992 -329.11604455 331.73125297 -333.64241028 331.72501755 C-335.80811562 331.72604269 -337.9738382 331.73649441 -340.13945007 331.75664139 C-343.16996712 331.78138005 -346.19803638 331.76778879 -349.22851562 331.74462891 C-350.11807449 331.75991638 -351.00763336 331.77520386 -351.92414856 331.79095459 C-357.43532752 331.69808547 -360.49620723 330.55082545 -364.61696625 326.87225914 C-368.57365234 321.51596057 -368.28692763 315.53028154 -368.26069641 309.17628479 C-368.26452196 308.19196108 -368.26834751 307.20763738 -368.27228898 306.19348568 C-368.28260098 302.89789759 -368.27863021 299.60248431 -368.2746582 296.30688477 C-368.27900565 293.9430017 -368.2841889 291.57912004 -368.29014587 289.21524048 C-368.30354308 282.79589314 -368.30411376 276.37660466 -368.30158257 269.95724607 C-368.30029906 265.94730908 -368.30292108 261.93737776 -368.30657005 257.92744255 C-368.30716524 257.26141449 -368.30776043 256.59538643 -368.30837366 255.90917571 C-368.30958543 254.55606803 -368.31079956 253.20296035 -368.31201603 251.84985267 C-368.32288784 239.16568246 -368.32073071 226.48153885 -368.31463119 213.79736715 C-368.30946169 202.1982623 -368.32071894 190.59924143 -368.33972941 179.00015319 C-368.3591096 167.08394072 -368.36736353 155.16776798 -368.36360615 143.25153965 C-368.36169446 136.56397395 -368.36444343 129.87649031 -368.37832069 123.18893623 C-368.39088077 116.9008143 -368.38897203 110.61286066 -368.37590981 104.32474136 C-368.37354058 102.01688137 -368.37629104 99.7090096 -368.38453293 97.4011631 C-368.39497245 94.25081231 -368.38692177 91.10102915 -368.3742218 87.95069885 C-368.38159609 87.03746292 -368.38897037 86.12422699 -368.39656812 85.18331724 C-368.3321982 77.5933529 -366.54548926 71.50971191 -361 66 C-357.8601349 63.95186077 -354.5737277 62.22919749 -351.25 60.5 C-349.26037955 59.44017384 -347.27079758 58.38027545 -345.28125 57.3203125 C-343.73244141 56.50288574 -343.73244141 56.50288574 -342.15234375 55.66894531 C-336.99866965 52.9404357 -331.87551787 50.15593171 -326.75 47.375 C-325.73623291 46.82634277 -324.72246582 46.27768555 -323.67797852 45.71240234 C-313.66056231 40.28755128 -303.70878552 34.74869968 -293.76416016 29.19189453 C-290.77642316 27.52272788 -287.78736932 25.85593508 -284.79776001 24.19012451 C-283.05197679 23.21648785 -281.30758264 22.24036183 -279.56323242 21.26416016 C-261.22587019 11.04625925 -261.22587019 11.04625925 -256.6875 10.875 C-252.70228638 12.54322896 -249.93860895 15.1227821 -248 19 C-247.876974 21.94912381 -247.81419755 24.87610531 -247.79467773 27.82641602 C-247.78477814 28.74240067 -247.77487854 29.65838531 -247.76467896 30.60212708 C-247.73292941 33.65269347 -247.70821258 36.70327461 -247.68359375 39.75390625 C-247.66299476 41.88834509 -247.64199757 44.02278012 -247.62062073 46.1572113 C-247.57656562 50.65402072 -247.53568462 55.1508436 -247.49731445 59.64770508 C-247.44875507 65.33768036 -247.3951182 71.02759108 -247.33933926 76.71749973 C-247.2856912 82.20878586 -247.23448492 87.70009398 -247.18359375 93.19140625 C-247.17403593 94.20690615 -247.16447811 95.22240604 -247.15463066 96.26867867 C-247.10020231 102.15584938 -247.05690275 108.04296461 -247.02271652 113.93028641 C-246.99820247 117.24290271 -246.95814064 120.55517774 -246.91848755 123.86764526 C-246.89971956 126.13693889 -246.88138781 128.40623617 -246.86352539 130.67553711 C-246.83942297 132.26335794 -246.83942297 132.26335794 -246.81483364 133.88325596 C-246.80935544 134.87217807 -246.80387724 135.86110018 -246.79823303 136.87998962 C-246.78427537 138.18445494 -246.78427537 138.18445494 -246.77003574 139.51527309 C-247.03391081 142.36640081 -247.71534364 144.44466011 -249 147 C-251.66796875 148.8515625 -251.66796875 148.8515625 -255.1875 150.625 C-255.84258545 150.95927002 -256.4976709 151.29354004 -257.17260742 151.63793945 C-263.95875666 155.06559367 -270.84283432 158.30364754 -277.7109375 161.56298828 C-285.57542934 165.29836456 -293.39260528 169.12185905 -301.1875 173 C-302.30423096 173.55196045 -303.42096191 174.1039209 -304.5715332 174.67260742 C-305.61398193 175.19314697 -306.65643066 175.71368652 -307.73046875 176.25 C-308.65239014 176.70890625 -309.57431152 177.1678125 -310.52416992 177.640625 C-312.8660216 178.92643805 -314.91162612 180.33979922 -317 182 C-267.47230124 170.83327747 -220.41705264 152.92306755 -176.46630859 127.42480469 C-174.35738588 126.20646446 -172.24053809 125.00621989 -170.11328125 123.8203125 C-153.19929901 114.35162558 -135.96648023 104.02826303 -120.62109375 92.16015625 C-119 91 -119 91 -117 91 C-117 90.34 -117 89.68 -117 89 C-116 88 -115 87 -114 86 C-114 85.34 -114 84.68 -114 84 C-114.68191406 83.75894531 -115.36382813 83.51789063 -116.06640625 83.26953125 C-119.59104512 81.74422149 -122.7301239 79.77626484 -125.9375 77.6875 C-126.82985352 77.11999023 -126.82985352 77.11999023 -127.74023438 76.54101562 C-138.43601268 69.63259489 -138.43601268 69.63259489 -140.1875 64.5625 C-139.99236312 60.85489935 -139.37368659 59.33419486 -136.94213867 56.58569336 C-132.48474926 52.94637919 -126.85564683 51.12695187 -121.5625 49 C-120.36689453 48.505 -119.17128906 48.01 -117.93945312 47.5 C-115.52864875 46.501888 -113.11539466 45.50967206 -110.69970703 44.5234375 C-104.76693884 42.0933909 -98.88549139 39.54191033 -93 37 C-93 36.34 -93 35.68 -93 35 C-92.02844971 34.91186035 -91.05689941 34.8237207 -90.0559082 34.73291016 C-85.3782207 34.05639388 -81.3803737 32.22072517 -77.10546875 30.2734375 C-76.25209427 29.8933252 -75.39871979 29.51321289 -74.51948547 29.12158203 C-71.7384823 27.88075938 -68.96308663 26.62788551 -66.1875 25.375 C-64.26603726 24.51551657 -62.3441581 23.65696349 -60.421875 22.79931641 C-56.51437776 21.05495274 -52.60876018 19.30648415 -48.70458984 17.5546875 C-41.05387886 14.12455111 -33.385596 10.73447169 -25.71377563 7.35186768 C-23.53252236 6.38935106 -21.35245604 5.42418898 -19.17260742 4.45849609 C-17.85468601 3.8759063 -16.53673532 3.2933827 -15.21875 2.7109375 C-13.5162207 1.95756104 -13.5162207 1.95756104 -11.77929688 1.18896484 C-7.28675489 -0.73291494 -4.76344204 -1.36098344 0 0 Z " fill="#5A69BE" transform="translate(709,333)"/>
<path d="M0 0 C3.06986538 2.47294712 4.34005161 4.16263292 5 8 C5.09278049 10.42106274 5.12628878 12.84457052 5.12698364 15.26741028 C5.12932363 16.36768752 5.12932363 16.36768752 5.13171089 17.49019259 C5.13570058 19.94896717 5.13253905 22.40768004 5.12939453 24.86645508 C5.13074951 26.62906429 5.13252998 28.39167322 5.13470459 30.15428162 C5.13926846 34.94362526 5.13749338 39.73294739 5.1343255 44.52229142 C5.13179533 49.53453012 5.13414139 54.54676697 5.13571167 59.55900574 C5.13753194 67.97985159 5.1351313 76.40068868 5.13037109 84.8215332 C5.12493405 94.55196232 5.12668765 104.28237048 5.1321975 114.01279908 C5.13673899 122.3679112 5.13737393 130.723017 5.13475883 139.07812995 C5.13320109 144.0677183 5.13298844 149.05729682 5.13629532 154.04688454 C5.13918887 158.74098629 5.13717102 163.43506108 5.13140106 168.12915993 C5.13008121 169.85004634 5.13045442 171.57093503 5.13266373 173.29182053 C5.13540583 175.64512368 5.13195673 177.99834107 5.12698364 180.35163879 C5.1264181 182.3252399 5.1264181 182.3252399 5.12584114 184.33871174 C4.86758046 191.85268369 4.25720186 195.74279814 -1 201 C-3.82627047 202.70753646 -5.9134458 203.25210035 -9.19906616 203.26742554 C-10.02889511 203.27595551 -10.85872406 203.28448547 -11.71369934 203.29327393 C-12.61561508 203.29236755 -13.51753082 203.29146118 -14.44677734 203.29052734 C-15.40332718 203.29724457 -16.35987701 203.30396179 -17.34541321 203.31088257 C-20.50897408 203.3298874 -23.67232309 203.33378802 -26.8359375 203.3359375 C-29.03545214 203.34236362 -31.23496592 203.34909185 -33.43447876 203.35610962 C-38.04618308 203.36808856 -42.65781246 203.3717898 -47.26953125 203.37060547 C-53.17670876 203.37040223 -59.08340543 203.3977069 -64.99046898 203.43214989 C-69.53382573 203.4543954 -74.07706632 203.45844373 -78.62047195 203.45738602 C-80.79815961 203.45974541 -82.97585031 203.46858793 -85.15348434 203.48405075 C-88.20080926 203.50366296 -91.24709163 203.49789105 -94.29443359 203.48583984 C-95.19230087 203.49707886 -96.09016815 203.50831787 -97.01524353 203.51989746 C-102.50621102 203.46476241 -105.69209521 202.71915432 -110 199 C-110.77307495 198.33956192 -111.5461499 197.67912384 -112.34265137 196.99867249 C-114.99627779 192.1974156 -114.55574727 187.4168341 -114.51757812 182.02124023 C-114.5245874 180.80773895 -114.53159668 179.59423767 -114.53881836 178.34396362 C-114.55339152 175.02349732 -114.54999911 171.70403001 -114.53730202 168.38362002 C-114.52715957 164.90612895 -114.53657092 161.42867992 -114.54284668 157.95118713 C-114.55011854 152.1129695 -114.54054667 146.27495444 -114.52148438 140.43676758 C-114.49970608 133.68886359 -114.50677539 126.94144286 -114.52879 120.19355053 C-114.54694517 114.39636553 -114.54950213 108.59932594 -114.53903532 102.8021217 C-114.53280225 99.3411953 -114.53195955 95.88049604 -114.54518127 92.41958427 C-114.55888754 88.56265359 -114.53988809 84.70626392 -114.51757812 80.84936523 C-114.52567505 79.70275925 -114.53377197 78.55615326 -114.54211426 77.37480164 C-114.53083496 76.32475952 -114.51955566 75.27471741 -114.50793457 74.19285583 C-114.50642647 73.28124412 -114.50491837 72.3696324 -114.50336456 71.43039608 C-113.84230892 68.23861985 -112.47029624 67.05502891 -110 65 C-107.91967773 63.87841797 -107.91967773 63.87841797 -105.68359375 62.9921875 C-104.84707275 62.65106934 -104.01055176 62.30995117 -103.14868164 61.95849609 C-102.2539917 61.60094238 -101.35930176 61.24338867 -100.4375 60.875 C-81.43897997 52.95744983 -64.73930412 42.9579452 -48 31 C-47.13745605 30.38511719 -46.27491211 29.77023437 -45.38623047 29.13671875 C-36.19477299 22.55200444 -27.29855904 15.74700361 -18.74609375 8.3515625 C-6.56320038 -2.08101475 -6.56320038 -2.08101475 0 0 Z " fill="#511EC5" transform="translate(677,461)"/>
<path d="M0 0 C1.87364469 -0.004619 3.74728575 -0.01097858 5.62091935 -0.01890898 C10.72643363 -0.03548847 15.83164587 -0.02740808 20.93716073 -0.0149641 C26.46013115 -0.00586887 31.98305165 -0.01990551 37.50601196 -0.03088379 C48.30904452 -0.04862673 59.11196561 -0.04484766 69.91500245 -0.03323323 C78.6997542 -0.02418159 87.48447481 -0.02298239 96.26922989 -0.02732849 C97.52187904 -0.02794142 98.77452819 -0.02855436 100.06513641 -0.02918586 C102.61028671 -0.03046483 105.155437 -0.03176168 107.70058729 -0.03307623 C130.86212791 -0.0441454 154.02361046 -0.03268596 177.18513773 -0.01170584 C198.29436623 0.00726997 219.40349818 0.00557997 240.51272583 -0.0135498 C264.26770439 -0.03500564 288.02263624 -0.04336677 311.77762711 -0.03110075 C314.31376846 -0.02982663 316.84990981 -0.02856914 319.38605118 -0.02732849 C320.63370462 -0.02671139 321.88135806 -0.02609429 323.16681918 -0.02545848 C331.93402952 -0.02201336 340.70120547 -0.02781594 349.46841049 -0.0372467 C360.16289318 -0.04849827 370.85725852 -0.04536058 381.55172788 -0.02412373 C387.00210181 -0.0136551 392.45228052 -0.00941961 397.90265274 -0.02272034 C402.90293481 -0.03473754 407.90284278 -0.02792964 412.90309145 -0.00681013 C414.70103358 -0.00238321 416.49900807 -0.00452093 418.29692899 -0.01431328 C433.160139 -0.08898406 448.85305975 1.04771352 461.9614563 8.75793457 C462.66020874 9.1514209 463.35896118 9.54490723 464.07888794 9.95031738 C481.23253878 19.84106909 492.93572586 35.151536 499.0864563 53.94543457 C501.0546578 61.51544034 502.08568295 68.98649388 502.09009075 76.81416512 C502.09184379 77.51902235 502.09359683 78.22387959 502.09540299 78.95009613 C502.10004525 81.30583146 502.09760207 83.66150458 502.09516907 86.01724243 C502.09703794 87.72581148 502.09933895 89.43438009 502.10203439 91.14294803 C502.1081495 95.83369262 502.10801913 100.52441938 502.10684001 105.21516705 C502.10663593 110.27601076 502.11215554 115.33684877 502.11689758 120.39768982 C502.12520345 130.31190033 502.12795241 140.22610489 502.12850996 150.14031859 C502.12898521 158.20068236 502.13104043 166.26104417 502.13421059 174.32140732 C502.1430175 197.17927194 502.14762998 220.03713187 502.14688011 242.89499821 C502.14682018 244.74334311 502.14682018 244.74334311 502.14675903 246.62902832 C502.14669771 248.4796332 502.14669771 248.4796332 502.14663515 250.36762403 C502.14622882 270.35613782 502.15579509 290.34463276 502.1698974 310.3331411 C502.18426676 330.86236211 502.19116725 351.39157393 502.19030362 371.92080009 C502.18997182 383.44423905 502.19271173 394.96765826 502.20348167 406.49109268 C502.21259409 416.30389469 502.21475587 426.11666799 502.20797225 435.9294724 C502.20471062 440.9335601 502.20463747 445.93759275 502.2133255 450.94167519 C502.2212073 455.52869139 502.21974192 460.11560903 502.21104137 464.70262288 C502.20951006 466.35606647 502.21130852 468.00951748 502.21690144 469.66295232 C502.29702223 495.04380215 496.26183381 515.93384283 478.5239563 534.50793457 C464.18545416 548.04428275 446.40383447 554.47048663 426.8833313 555.12484741 C425.86833557 555.16246307 424.85333984 555.20007873 423.80758667 555.23883426 C407.5981787 555.76195342 391.37173421 555.64952305 375.15599942 555.63865924 C370.08858184 555.63637014 365.02116752 555.63990191 359.95375061 555.64263916 C350.06158339 555.64705792 340.16942381 555.64613806 330.27725631 555.64322652 C322.2340109 555.64095811 314.19076761 555.64066616 306.14752197 555.64175034 C304.99806766 555.64190357 303.84861335 555.6420568 302.66432709 555.64221468 C300.3285466 555.64253443 297.99276612 555.64285865 295.65698564 555.64318727 C273.81898561 555.64603038 251.9809898 555.64277289 230.14299047 555.6373869 C211.43257463 555.63291514 192.722165 555.63370013 174.01174927 555.63830566 C152.23367397 555.64366385 130.45560234 555.64576082 108.67752647 555.6426934 C106.35330582 555.64237488 104.02908516 555.64206051 101.7048645 555.64175034 C100.56156162 555.64159606 99.41825874 555.64144178 98.24031031 555.64128283 C90.20896289 555.64042177 82.17761781 555.64187159 74.14627075 555.64422989 C64.35629708 555.6470417 54.56633142 555.64626032 44.77635866 555.64094914 C39.78799884 555.6383315 34.79965235 555.63727414 29.81129265 555.6405983 C25.23592466 555.64360106 20.66058223 555.6419029 16.08521652 555.63662075 C14.43963076 555.63551348 12.79404279 555.63604965 11.14845848 555.63849653 C-18.14407514 555.67867607 -41.65734154 551.76298953 -63.8510437 531.13293457 C-73.20566388 521.24442788 -79.10317251 509.16568769 -82.2885437 496.07043457 C-82.45193237 495.40310303 -82.61532104 494.73577148 -82.78366089 494.04821777 C-85.34358665 482.66637302 -85.18383389 470.98995584 -85.16552734 459.38682556 C-85.16668157 457.78133756 -85.16827112 456.17584982 -85.17025459 454.57036263 C-85.17440677 450.18753546 -85.17237586 445.80473023 -85.16926837 441.42190301 C-85.16699754 436.68346346 -85.17050233 431.94502756 -85.17324829 427.20658875 C-85.1776877 417.93340939 -85.17673744 408.66023815 -85.17383565 399.38705849 C-85.17157348 391.84412396 -85.17127263 384.30119169 -85.17235947 376.75825691 C-85.1725127 375.68297764 -85.17266593 374.60769837 -85.17282381 373.49983488 C-85.17314355 371.31505219 -85.17346777 369.13026949 -85.1737964 366.94548679 C-85.17664608 346.47088587 -85.17337268 325.99628943 -85.16799603 305.52168924 C-85.16353293 287.9838176 -85.16430085 270.44595258 -85.16891479 252.90808105 C-85.17427729 232.51552775 -85.17636675 212.12297838 -85.17330253 191.73042446 C-85.172984 189.55172384 -85.17266963 187.37302321 -85.17235947 185.19432259 C-85.17220519 184.12253296 -85.17205092 183.05074334 -85.17189196 181.94647525 C-85.1710315 174.42312667 -85.17247962 166.89978061 -85.17483902 159.37643242 C-85.17765604 150.19231304 -85.17685903 141.00820221 -85.17155828 131.8240838 C-85.16894613 127.14530117 -85.16787355 122.46653273 -85.17120743 117.78775024 C-85.21843886 45.39204299 -85.21843886 45.39204299 -60.85494995 20.23449707 C-44.05006636 3.9656916 -22.46015732 -0.12199674 0 0 Z M-56.0385437 26.50793457 C-56.0385437 27.16793457 -56.0385437 27.82793457 -56.0385437 28.50793457 C-56.6160437 28.73223145 -57.1935437 28.95652832 -57.7885437 29.18762207 C-67.90699054 35.12518289 -73.08513432 50.82177414 -76.0385437 61.50793457 C-78.07248432 71.78712705 -78.32436966 81.97040929 -78.29251099 92.39672852 C-78.29482035 94.06112952 -78.29800005 95.7255295 -78.30196548 97.38992739 C-78.31025678 101.92613035 -78.30621418 106.46224835 -78.29999304 110.99845147 C-78.29544619 115.90513682 -78.30246333 120.8118081 -78.30795288 125.7184906 C-78.31682478 135.31591908 -78.3149347 144.9133162 -78.3091276 154.51074588 C-78.30460243 162.313975 -78.3040019 170.11719536 -78.30617523 177.92042542 C-78.3064817 179.03295702 -78.30678816 180.14548862 -78.30710392 181.29173329 C-78.3077434 183.55214258 -78.30839182 185.81255187 -78.3090491 188.07296115 C-78.31474594 209.24607265 -78.30820464 230.41916679 -78.29744837 251.59227544 C-78.28851345 269.74174212 -78.29006567 287.8911832 -78.29928589 306.04064941 C-78.30999993 327.14037036 -78.31419668 348.24007612 -78.30806136 369.3397994 C-78.30742429 371.59168084 -78.30679555 373.84356228 -78.30617523 376.09544373 C-78.30586668 377.20328037 -78.30555813 378.31111701 -78.30524023 379.45252445 C-78.30351669 387.24224354 -78.30642102 395.03195295 -78.31113434 402.82167053 C-78.31675578 412.32063459 -78.3152002 421.81956561 -78.30457285 431.31852591 C-78.29933313 436.16076323 -78.29723031 441.00294556 -78.30387115 445.84518242 C-78.30986805 450.28517612 -78.30649432 454.72506429 -78.29591605 459.16504854 C-78.29369779 460.76379081 -78.29478253 462.36254215 -78.29966763 463.9612785 C-78.33732887 477.32035173 -77.6574916 490.23852745 -72.4135437 502.69543457 C-72.06162964 503.54911621 -71.70971558 504.40279785 -71.34713745 505.28234863 C-68.43832275 512.08079722 -64.9590523 517.95065427 -60.0385437 523.50793457 C-59.40174683 524.22980957 -58.76494995 524.95168457 -58.1088562 525.69543457 C-47.01512765 537.45746002 -31.62690309 545.86458794 -15.30472839 546.69875669 C-10.58088701 546.8086939 -5.85689245 546.80193404 -1.1320343 546.79986572 C0.7039942 546.80630517 2.54001985 546.8136071 4.37604183 546.82169461 C9.40992431 546.84134524 14.44376025 546.84866889 19.47767556 546.8539269 C24.91143317 546.86174415 30.34515226 546.88095845 35.77888489 546.8986969 C46.42106834 546.93157866 57.06324833 546.95374517 67.7054658 546.97206202 C76.35882407 546.98714495 85.01216597 547.00607494 93.66551018 547.02774811 C94.89748231 547.03082994 96.12945445 547.03391176 97.39875908 547.03708698 C99.90163559 547.0433639 102.40451209 547.04964933 104.90738856 547.05594316 C127.71141416 547.11284021 150.51545168 547.15852207 173.31951057 547.19953069 C194.11205492 547.23699511 214.90455111 547.28483776 235.697052 547.34143066 C259.0758125 547.40502796 282.45457409 547.46195194 305.83337539 547.50841928 C308.32914763 547.51339863 310.82491986 547.51838687 313.32069206 547.52338409 C314.54857896 547.52583965 315.77646585 547.52829521 317.04156144 547.53082518 C325.67688004 547.54855263 334.31217884 547.57101294 342.94748116 547.59532928 C353.48257423 547.62487046 364.01765299 547.64711138 374.55277992 547.66013351 C379.92383516 547.66695456 385.2948318 547.67696681 390.66585922 547.69588661 C395.59156222 547.71314419 400.51718831 547.72085275 405.44292068 547.72123912 C407.2161483 547.72299654 408.98937679 547.72811262 410.76258249 547.73710367 C434.95974252 547.85454046 455.90901596 545.14628285 474.2739563 527.69543457 C478.99848861 522.75856373 482.60711656 517.44322741 485.9614563 511.50793457 C486.34946411 510.84277832 486.73747192 510.17762207 487.13723755 509.49230957 C492.70943333 499.25151732 495.08135628 487.77081162 495.09288406 476.20170403 C495.0949367 475.49684679 495.09698933 474.79198956 495.09910417 474.06577301 C495.10474688 471.71003976 495.10332031 469.35436549 495.10189819 466.99862671 C495.10448339 465.2900575 495.10749699 463.58148889 495.11090159 461.87292111 C495.11895661 457.18217837 495.12076033 452.49145094 495.12149906 447.8007021 C495.12335222 442.73985701 495.13090086 437.67901983 495.13763428 432.61817932 C495.15120732 421.55402532 495.15724067 410.48987495 495.16164494 399.42571402 C495.16440901 392.51529584 495.16864666 385.60487906 495.17314911 378.69446182 C495.18534027 359.55588557 495.19563999 340.41731044 495.1990242 321.27873039 C495.19935355 319.44191662 495.19935355 319.44191662 495.19968955 317.5679955 C495.19990783 316.34054975 495.20012611 315.11310401 495.200351 313.84846294 C495.20079446 311.36125557 495.20124103 308.87404819 495.20169067 306.38684082 C495.20202282 304.53623594 495.20202282 304.53623594 495.20236167 302.64824511 C495.20630924 282.65972257 495.22376271 262.67123649 495.2470502 242.68272804 C495.2707743 222.15350692 495.28322653 201.6243041 495.28439212 181.09506905 C495.28530826 169.57161798 495.29104542 158.04821443 495.30921173 146.52477646 C495.32462697 136.71196575 495.32972475 126.89921726 495.32147363 117.08639674 C495.31757224 112.08228224 495.31847183 107.07829297 495.33253098 102.07419395 C495.34530027 97.48713835 495.34404584 92.90030169 495.33194026 88.31324627 C495.32998851 86.65980101 495.3330374 85.00634009 495.34178463 83.35291682 C495.40519014 70.55035544 494.05644245 58.60951026 488.3989563 46.94543457 C487.89211304 45.88207886 487.89211304 45.88207886 487.37503052 44.79724121 C483.93353069 37.91035725 479.51344121 31.86384567 473.9614563 26.50793457 C473.3014563 26.50793457 472.6414563 26.50793457 471.9614563 26.50793457 C471.9614563 25.84793457 471.9614563 25.18793457 471.9614563 24.50793457 C469.9295258 22.95733093 467.92499915 21.5640247 465.7739563 20.19543457 C465.14336304 19.7931665 464.51276978 19.39089844 463.86306763 18.97644043 C445.49661469 7.61000587 425.88473354 7.35340639 404.97807312 7.3742218 C403.18254246 7.37235041 401.3870122 7.3700484 399.59148258 7.36735648 C394.68819343 7.36127294 389.78492141 7.36136798 384.88162935 7.36255085 C379.58160605 7.36275573 374.28158814 7.35722794 368.98156738 7.35249329 C358.61063788 7.34420579 348.23971406 7.34143933 337.86878151 7.34088091 C329.43719302 7.34040497 321.00560639 7.33834637 312.57401848 7.33518028 C288.64991789 7.32637996 264.72582177 7.32176009 240.80171955 7.32251076 C239.51340485 7.32255071 238.22509014 7.32259067 236.8977356 7.32263184 C234.96289526 7.32269316 234.96289526 7.32269316 232.98896723 7.32275572 C212.07679754 7.32316232 191.16464584 7.31358766 170.25248135 7.29949347 C148.76142507 7.28512375 127.27037757 7.27822357 105.77931637 7.27908725 C93.72105488 7.27941894 81.66281228 7.27668362 69.60455513 7.26590919 C59.34067665 7.25679651 49.07682561 7.25463539 38.81294484 7.26141862 C33.5798373 7.26467953 28.34678239 7.26475589 23.11367989 7.25606537 C18.31652084 7.24818089 13.51945601 7.24965164 8.72229921 7.2583495 C6.99364756 7.25988017 5.26498882 7.2580848 3.53634555 7.25248943 C-18.77869479 7.18508386 -39.11981732 10.50373394 -56.0385437 26.50793457 Z " fill="#9EA3A4" transform="translate(303.0385437011719,219.4920654296875)"/>
<path d="M0 0 C3.98521362 1.66822896 6.74889105 4.2477821 8.6875 8.125 C8.810526 11.07412381 8.87330245 14.00110531 8.89282227 16.95141602 C8.90272186 17.86740067 8.91262146 18.78338531 8.92282104 19.72712708 C8.95457059 22.77769347 8.97928742 25.82827461 9.00390625 28.87890625 C9.02450524 31.01334509 9.04550243 33.14778012 9.06687927 35.2822113 C9.11093438 39.77902072 9.15181538 44.2758436 9.19018555 48.77270508 C9.23874493 54.46268036 9.2923818 60.15259108 9.34816074 65.84249973 C9.4018088 71.33378586 9.45301508 76.82509398 9.50390625 82.31640625 C9.51346407 83.33190615 9.52302189 84.34740604 9.53286934 85.39367867 C9.58729769 91.28084938 9.63059725 97.16796461 9.66478348 103.05528641 C9.68929753 106.36790271 9.72935936 109.68017774 9.76901245 112.99264526 C9.78778044 115.26193889 9.80611219 117.53123617 9.82397461 119.80053711 C9.84004289 120.85908433 9.85611116 121.91763155 9.87266636 123.00825596 C9.87814456 123.99717807 9.88362276 124.98610018 9.88926697 126.00498962 C9.90322463 127.30945494 9.90322463 127.30945494 9.91746426 128.64027309 C9.65358919 131.49140081 8.97215636 133.56966011 7.6875 136.125 C5.01953125 137.9765625 5.01953125 137.9765625 1.5 139.75 C0.84491455 140.08427002 0.1898291 140.41854004 -0.48510742 140.76293945 C-7.2741881 144.19207433 -14.16136216 147.4312033 -21.03222656 150.69238281 C-28.80920326 154.38663717 -36.54142086 158.16510617 -44.25 162 C-45.33321533 162.53520264 -46.41643066 163.07040527 -47.5324707 163.62182617 C-52.14560348 165.92532412 -56.62073821 168.25075355 -60.94140625 171.0703125 C-62.61009766 172.08738281 -62.61009766 172.08738281 -64.3125 173.125 C-64.9725 172.795 -65.6325 172.465 -66.3125 172.125 C-63.10848882 168.50307432 -59.37239293 166.08034663 -55.3359375 163.4921875 C-53.20969518 162.14887645 -53.20969518 162.14887645 -51.3125 160.125 C-49.72852769 159.56430184 -48.11978033 159.07183595 -46.5 158.625 C-41.28178108 157.20508268 -41.28178108 157.20508268 -36.3125 155.125 C-35.9825 154.135 -35.6525 153.145 -35.3125 152.125 C-34.43980469 152.02832031 -33.56710937 151.93164062 -32.66796875 151.83203125 C-29.0112396 151.06152138 -26.76363077 149.81214607 -23.625 147.8125 C-18.73602377 144.82546964 -14.07156959 142.77858462 -8.58984375 141.14453125 C-5.88496875 139.93360093 -5.03121629 138.4766713 -3.3125 136.125 C-0.97916667 136.125 1.35416667 136.125 3.6875 136.125 C3.6875 135.465 3.6875 134.805 3.6875 134.125 C4.3475 134.125 5.0075 134.125 5.6875 134.125 C5.6875 92.545 5.6875 50.965 5.6875 8.125 C5.0275 8.125 4.3675 8.125 3.6875 8.125 C3.1925 6.64 3.1925 6.64 2.6875 5.125 C-3.18091004 3.50360329 -7.02281981 5.5574442 -12.3125 8.125 C-14.33863283 9.41827628 -16.33764795 10.7546945 -18.3125 12.125 C-20.05362458 13.09936542 -21.80474129 14.05597294 -23.5625 15 C-27.19119556 16.94901597 -30.74182671 18.96699324 -34.25 21.125 C-38.97105341 24.00461524 -43.85937829 26.43870969 -48.84375 28.828125 C-51.40117976 30.01558187 -51.40117976 30.01558187 -53.3125 32.125 C-55.63229381 33.15601947 -57.96679915 34.15436517 -60.3125 35.125 C-63.43665614 36.60419229 -66.36213774 38.32599862 -69.3125 40.125 C-72.26620697 41.92604084 -75.20784255 43.60196049 -78.3125 45.125 C-82.66947749 47.41566025 -86.99533857 49.76024875 -91.3125 52.125 C-92.72982422 52.89070313 -92.72982422 52.89070313 -94.17578125 53.671875 C-95.02527344 54.15140625 -95.87476563 54.6309375 -96.75 55.125 C-97.49121094 55.5375 -98.23242188 55.95 -98.99609375 56.375 C-102.89526573 59.32074881 -106.65303207 62.46103546 -107.86749184 67.36692643 C-108.07586751 69.99351914 -108.09813621 72.56172858 -108.05421448 75.19631958 C-108.06145772 76.1951595 -108.06870097 77.19399942 -108.07616371 78.22310722 C-108.09304016 81.56226429 -108.06711684 84.89969047 -108.04125977 88.23876953 C-108.0444793 90.63560451 -108.05029695 93.03243721 -108.05851746 95.42926025 C-108.07154484 101.25822319 -108.05675861 107.08662904 -108.02896655 112.9155301 C-107.99776102 119.7051773 -107.9980265 126.4947148 -107.99948429 133.28442024 C-108.00098494 145.39854303 -107.97353295 157.51242789 -107.92993164 169.62646484 C-107.88765303 181.37911309 -107.86642022 193.13155201 -107.8684082 204.88427734 C-107.86852807 205.60843818 -107.86864794 206.33259903 -107.86877144 207.07870413 C-107.8688925 207.8016189 -107.86901357 208.52453367 -107.8691383 209.26935494 C-107.87120814 222.65499279 -107.85353837 236.04054179 -107.82667865 249.42615084 C-107.81763319 254.15827056 -107.81444042 258.89037396 -107.81308174 263.62250137 C-107.81007141 269.99028628 -107.79178146 276.35785084 -107.76158333 282.72556305 C-107.75281046 285.06488827 -107.7491318 287.40423884 -107.75086594 289.74357986 C-107.75233519 292.93183781 -107.7354004 296.119476 -107.71363831 299.30764771 C-107.71828411 300.23770004 -107.72292992 301.16775238 -107.72771651 302.12598813 C-107.67324969 306.94346547 -107.46725619 310.225941 -104.3125 314.125 C-102.99286291 315.14300576 -101.66240354 316.14748365 -100.3125 317.125 C-100.3125 317.785 -100.3125 318.445 -100.3125 319.125 C-99.0558252 318.79612793 -97.79915039 318.46725586 -96.50439453 318.12841797 C-89.02621856 316.64358395 -81.53132427 316.93557938 -73.94326401 317.03580093 C-71.19304002 317.07094046 -68.44305387 317.09129017 -65.69265747 317.1076355 C-57.88000059 317.15624096 -50.06766771 317.22773437 -42.25537109 317.31689453 C-37.4587424 317.37061317 -32.66229497 317.4045924 -27.8654213 317.42663193 C-26.04659413 317.43899504 -24.22780124 317.45893461 -22.40914536 317.4867897 C-19.86351458 317.52545791 -17.31883527 317.53904433 -14.77294922 317.54736328 C-14.03195984 317.56488647 -13.29097046 317.58240967 -12.52752686 317.60046387 C-7.13709082 317.58047328 -2.75573085 316.2613069 1.6875 313.125 C3.25819449 310.54740798 3.25819449 310.54740798 3.6875 308.125 C4.3475 308.125 5.0075 308.125 5.6875 308.125 C5.6875 276.115 5.6875 244.105 5.6875 211.125 C5.0275 211.125 4.3675 211.125 3.6875 211.125 C3.6875 211.785 3.6875 212.445 3.6875 213.125 C3.03523438 213.17398438 2.38296875 213.22296875 1.7109375 213.2734375 C0.83695312 213.34820313 -0.03703125 213.42296875 -0.9375 213.5 C-1.79601562 213.56960938 -2.65453125 213.63921875 -3.5390625 213.7109375 C-6.64971051 214.1753441 -9.33836622 215.09686045 -12.3125 216.125 C-15.50798211 217.06933013 -18.72070774 217.94396609 -21.9375 218.8125 C-22.783125 219.05033203 -23.62875 219.28816406 -24.5 219.53320312 C-25.31726563 219.75298828 -26.13453125 219.97277344 -26.9765625 220.19921875 C-27.71342285 220.40119873 -28.4502832 220.60317871 -29.20947266 220.8112793 C-31.54023986 221.15897327 -33.08676869 220.84312991 -35.3125 220.125 C-28.14141819 217.63819082 -20.89130856 215.54524502 -13.57299805 213.53564453 C-11.61718645 212.9978515 -9.66306026 212.4542179 -7.70898438 211.91015625 C-6.46052734 211.56597656 -5.21207031 211.22179687 -3.92578125 210.8671875 C-2.79954346 210.5563623 -1.67330566 210.24553711 -0.51293945 209.92529297 C2.54511466 209.16060448 5.57712817 208.62486575 8.6875 208.125 C8.80347231 221.02511812 8.89225569 233.92511172 8.94656086 246.82564545 C8.97262785 252.81624294 9.00797394 258.80648313 9.06469727 264.796875 C9.11911893 270.58054607 9.14894234 276.36387397 9.16188622 282.14778137 C9.17110775 284.35176493 9.18911543 286.55573022 9.21615028 288.75956726 C9.25257458 291.85249058 9.25743962 294.94400526 9.25512695 298.03710938 C9.27310333 298.94342102 9.29107971 299.84973267 9.30960083 300.7835083 C9.25911105 307.04512854 7.92480917 311.41356554 3.6875 316.125 C-1.32904074 320.55145292 -6.64401897 320.71018695 -13.08398438 320.67431641 C-14.039366 320.68453827 -14.99474762 320.69476013 -15.9790802 320.70529175 C-19.12172845 320.73298125 -22.26349465 320.73117894 -25.40625 320.7265625 C-27.5990837 320.734341 -29.79191439 320.74301128 -31.98474121 320.75253296 C-36.57439965 320.76743445 -41.16375031 320.76689096 -45.75341797 320.75634766 C-51.62819252 320.74474929 -57.50170779 320.7786503 -63.37627411 320.825037 C-67.90256077 320.85452992 -72.42854455 320.85625297 -76.95491028 320.85001755 C-79.12061562 320.85104269 -81.2863382 320.86149441 -83.45195007 320.88164139 C-86.48246712 320.90638005 -89.51053638 320.89278879 -92.54101562 320.86962891 C-93.43057449 320.88491638 -94.32013336 320.90020386 -95.23664856 320.91595459 C-100.74782752 320.82308547 -103.80870723 319.67582545 -107.92946625 315.99725914 C-111.88615234 310.64096057 -111.59942763 304.65528154 -111.57319641 298.30128479 C-111.57702196 297.31696108 -111.58084751 296.33263738 -111.58478898 295.31848568 C-111.59510098 292.02289759 -111.59113021 288.72748431 -111.5871582 285.43188477 C-111.59150565 283.0680017 -111.5966889 280.70412004 -111.60264587 278.34024048 C-111.61604308 271.92089314 -111.61661376 265.50160466 -111.61408257 259.08224607 C-111.61279906 255.07230908 -111.61542108 251.06237776 -111.61907005 247.05244255 C-111.61966524 246.38641449 -111.62026043 245.72038643 -111.62087366 245.03417571 C-111.62208543 243.68106803 -111.62329956 242.32796035 -111.62451603 240.97485267 C-111.63538784 228.29068246 -111.63323071 215.60653885 -111.62713119 202.92236715 C-111.62196169 191.3232623 -111.63321894 179.72424143 -111.65222941 168.12515319 C-111.6716096 156.20894072 -111.67986353 144.29276798 -111.67610615 132.37653965 C-111.67419446 125.68897395 -111.67694343 119.00149031 -111.69082069 112.31393623 C-111.70338077 106.0258143 -111.70147203 99.73786066 -111.68840981 93.44974136 C-111.68604058 91.14188137 -111.68879104 88.8340096 -111.69703293 86.5261631 C-111.70747245 83.37581231 -111.69942177 80.22602915 -111.6867218 77.07569885 C-111.69409609 76.16246292 -111.70147037 75.24922699 -111.70906812 74.30831724 C-111.6446982 66.7183529 -109.85798926 60.63471191 -104.3125 55.125 C-101.1726349 53.07686077 -97.8862277 51.35419749 -94.5625 49.625 C-92.57287955 48.56517384 -90.58329758 47.50527545 -88.59375 46.4453125 C-87.04494141 45.62788574 -87.04494141 45.62788574 -85.46484375 44.79394531 C-80.31116965 42.0654357 -75.18801787 39.28093171 -70.0625 36.5 C-69.04873291 35.95134277 -68.03496582 35.40268555 -66.99047852 34.83740234 C-56.97306231 29.41255128 -47.02128552 23.87369968 -37.07666016 18.31689453 C-34.08892316 16.64772788 -31.09986932 14.98093508 -28.11026001 13.31512451 C-26.36447679 12.34148785 -24.62008264 11.36536183 -22.87573242 10.38916016 C-4.53837019 0.17125925 -4.53837019 0.17125925 0 0 Z " fill="#6B27EA" transform="translate(452.3125,343.875)"/>
<path d="M0 0 C2.375 1.875 2.375 1.875 4 5 C5.17793305 15.14481158 3.045932 25.93456718 1.8828125 36.015625 C1.6629096 37.95931537 1.44350752 39.90306245 1.22457886 41.84686279 C0.76587874 45.90859199 0.30325859 49.96984715 -0.16259766 54.03076172 C-0.75502061 59.19508707 -1.34090792 64.36012473 -1.92422295 69.52548599 C-2.48639262 74.50161032 -3.05157789 79.47739067 -3.6171875 84.453125 C-3.72258724 85.38197762 -3.82798698 86.31083023 -3.93658066 87.2678299 C-4.52095624 92.40721868 -5.12049753 97.54447119 -5.73317719 102.68055725 C-5.99329985 104.9417568 -6.22562169 107.20434069 -6.45220947 109.46911621 C-6.60074622 110.82417783 -6.74962943 112.17920154 -6.89892578 113.53417969 C-7.01664337 114.6945575 -7.13436096 115.8549353 -7.25564575 117.05047607 C-8.12819954 120.50799414 -9.20656349 121.83236674 -12 124 C-15.10819219 124.69070938 -16.96305777 124.65465938 -19.6953125 122.9296875 C-23.66191743 119.67458121 -26.91168824 115.8518433 -30.2421875 111.96875 C-34.98268649 106.44280578 -34.98268649 106.44280578 -41.37890625 103.52734375 C-45.21574677 104.21923302 -46.68528618 106.23757979 -49.3125 109.0625 C-50.28852203 110.08639499 -51.26639144 111.10853214 -52.24609375 112.12890625 C-53.60927734 113.55009766 -53.60927734 113.55009766 -55 115 C-57.59286406 117.42365604 -60.28799018 119.71114065 -63 122 C-63.95390625 122.81984375 -64.9078125 123.6396875 -65.890625 124.484375 C-73.20059331 130.74925859 -80.67413424 136.77409077 -88.28564453 142.66796875 C-89.94580562 143.95789169 -91.59680707 145.25871607 -93.24609375 146.5625 C-107.01362353 157.39037368 -121.6959186 166.50675695 -137 175 C-138.28293945 175.71542969 -138.28293945 175.71542969 -139.59179688 176.4453125 C-167.35186438 191.79234169 -197.09637255 202.65240768 -227 213 C-227.72696075 213.25309937 -228.45392151 213.50619873 -229.20291138 213.76696777 C-239.70554742 217.4095803 -250.26017021 220.57075452 -261.03686523 223.29785156 C-263.35980086 223.88699648 -265.67891291 224.48983155 -267.99804688 225.09375 C-269.49458659 225.47736343 -270.991324 225.86020666 -272.48828125 226.2421875 C-273.17159012 226.42022919 -273.85489899 226.59827087 -274.55891418 226.78170776 C-278.11463583 227.67206691 -281.33281488 228.19841689 -285 228 C-279.30467737 224.20311824 -272.50022424 223.08276072 -265.921875 221.5 C-262.74763263 220.72461255 -259.71398221 219.89936411 -256.625 218.8125 C-254 218 -254 218 -252 219 C-251.67 218.34 -251.34 217.68 -251 217 C-249.03125 216.25390625 -249.03125 216.25390625 -246.5 215.5625 C-238.69073163 213.34710472 -231.08709164 210.69909039 -223.48046875 207.8671875 C-221.32459523 207.11348054 -219.2119227 206.55298067 -217 206 C-215.18066751 205.37367242 -213.36850209 204.72628717 -211.5625 204.0625 C-210.63566406 203.72347656 -209.70882812 203.38445312 -208.75390625 203.03515625 C-206.15389199 202.05784592 -203.57520531 201.04069311 -201 200 C-198.35046892 198.93675775 -195.69842062 197.88223285 -193.0390625 196.84375 C-185.04057949 193.69560566 -177.1322897 190.36646823 -169.25 186.9375 C-168.30463379 186.52628906 -167.35926758 186.11507812 -166.38525391 185.69140625 C-161.58701623 183.59483762 -156.79957201 181.47458254 -152.0234375 179.328125 C-151.14606934 178.93399414 -150.26870117 178.53986328 -149.36474609 178.13378906 C-143.80164737 175.5480229 -143.80164737 175.5480229 -140 171 C-138.8553125 170.7834375 -138.8553125 170.7834375 -137.6875 170.5625 C-134.7131264 169.93995669 -133.37319609 168.81945034 -131 167 C-130.01 167 -129.02 167 -128 167 C-127.67 166.34 -127.34 165.68 -127 165 C-125.27997492 163.92943267 -123.52244716 162.91884182 -121.75 161.9375 C-111.61925489 156.12634232 -102.29016117 149.29908293 -93 142.25 C-92.28175049 141.70714355 -91.56350098 141.16428711 -90.82348633 140.60498047 C-87.74516918 138.24540851 -84.81680626 135.90743677 -82.125 133.109375 C-80 131 -80 131 -78 131 C-76.824375 129.7934375 -76.824375 129.7934375 -75.625 128.5625 C-72.98553033 125.98587484 -72.31308978 125.79971133 -69 125 C-67.94978897 123.15028304 -67.94978897 123.15028304 -67 121 C-65 118.75 -65 118.75 -63 117 C-62.34 117 -61.68 117 -61 117 C-60.67 116.01 -60.34 115.02 -60 114 C-58.36328125 112.640625 -58.36328125 112.640625 -56.3125 111.25 C-52.66875852 108.65105894 -50.01453382 105.8817038 -47.32421875 102.3203125 C-46 101 -46 101 -43 101 C-43 100.34 -43 99.68 -43 99 C-39.92770276 99.07314993 -37.74637864 99.30599881 -35.44140625 101.44921875 C-33.92057333 103.27026804 -32.45848068 105.12881736 -31 107 C-29.3777546 108.70993434 -27.70586575 110.37347684 -26 112 C-25.29488281 112.69996094 -24.58976562 113.39992188 -23.86328125 114.12109375 C-23.08339844 114.86488281 -22.30351563 115.60867188 -21.5 116.375 C-20.7678125 117.08398438 -20.035625 117.79296875 -19.28125 118.5234375 C-17.07000682 120.28198838 -17.07000682 120.28198838 -14.28125 119.7890625 C-12.06172267 119.20742786 -12.06172267 119.20742786 -11 118 C-10.68370114 115.51713094 -10.42606809 113.05040498 -10.203125 110.55859375 C-10.04997298 108.94399444 -9.89664431 107.32941189 -9.74316406 105.71484375 C-9.66296021 104.85487793 -9.58275635 103.99491211 -9.50012207 103.10888672 C-8.01101533 87.20473251 -6.26489233 71.3460401 -4.25 55.5 C-4.08111267 54.17112259 -4.08111267 54.17112259 -3.90881348 52.81539917 C-3.27946754 47.87602379 -2.64300138 42.9376155 -2 38 C-1.34 38 -0.68 38 0 38 C-0.185625 36.9275 -0.37125 35.855 -0.5625 34.75 C-1.13663677 30.19677643 -0.7122065 25.9364843 -0.2578125 21.38671875 C0.20827432 15.26403276 0.0754547 9.13698189 0 3 C-7.9086519 2.8724411 -13.78429705 5.59321752 -20.58984375 9.22265625 C-24.25364429 11.1321972 -27.94380541 12.65526299 -31.81640625 14.078125 C-34.10373833 14.98128773 -34.10373833 14.98128773 -36.45703125 16.4921875 C-38.98649997 17.99199538 -41.3443958 18.93706485 -44.125 19.875 C-48.74726024 21.50746493 -53.15237516 23.38558844 -57.59375 25.453125 C-62.15525635 27.52463476 -66.76517169 29.47639714 -71.375 31.4375 C-78.03966345 34.27898279 -84.65488334 37.18875292 -91.21484375 40.265625 C-97.77977197 43.30749459 -104.43543238 46.15519081 -111.06933594 49.04248047 C-116.80049447 51.54774413 -122.42366782 54.16807346 -128 57 C-129.30836595 57.57204987 -130.62079993 58.13490302 -131.9375 58.6875 C-134.82397629 59.7001794 -134.82397629 59.7001794 -136 61 C-136.58488562 63.37124598 -136.58488562 63.37124598 -136 66 C-133.05763218 68.21168225 -133.05763218 68.21168225 -130 70 C-130 70.66 -130 71.32 -130 72 C-129.46761719 72.25910156 -128.93523437 72.51820313 -128.38671875 72.78515625 C-125.48389464 74.26269847 -122.64677673 75.83221537 -119.8125 77.4375 C-118.74644531 78.03433594 -117.68039062 78.63117188 -116.58203125 79.24609375 C-114 81 -114 81 -113 84 C-112.34 84 -111.68 84 -111 84 C-110.625 86.125 -110.625 86.125 -111 89 C-114.64889634 93.49094934 -118.4210501 95.9310253 -123.5 98.58203125 C-128.28364515 101.29525498 -132.58915415 104.72810496 -137 108 C-140.38812307 110.37168615 -143.81074019 112.46259214 -147.4375 114.4375 C-150.19110705 115.93988262 -152.74993458 117.48289094 -155.25 119.375 C-159.37666388 122.42267378 -163.89854281 124.67041774 -168.4296875 127.0546875 C-171.45990758 128.67534827 -174.38101671 130.43433718 -177.30102539 132.24438477 C-184.46456632 136.68480212 -191.79905871 140.43124216 -199.47900391 143.90576172 C-203.95444124 145.94590921 -207.9285995 148.21022631 -212 151 C-213.87056002 151.7417738 -215.74414886 152.47898316 -217.64453125 153.140625 C-221.62117522 154.59147355 -225.48121046 156.32667138 -229.36328125 158.01171875 C-232 159 -232 159 -235 159 C-235 159.66 -235 160.32 -235 161 C-236.299375 161.226875 -237.59875 161.45375 -238.9375 161.6875 C-243.4635024 162.67512062 -246.91559386 164.48800782 -250.875 166.83203125 C-253.80406305 168.44193906 -256.76099448 169.22023941 -260 170 C-261.85625 170.5878125 -261.85625 170.5878125 -263.75 171.1875 C-267 172 -267 172 -270 171 C-268.27473958 170.28385417 -266.54947917 169.56770833 -264.82421875 168.8515625 C-262.73466068 167.93193308 -262.73466068 167.93193308 -260 166 C-258.63179878 165.42119875 -257.24660868 164.88181052 -255.8515625 164.37109375 C-255.02205078 164.06316895 -254.19253906 163.75524414 -253.33789062 163.43798828 C-252.44263672 163.10782715 -251.54738281 162.77766602 -250.625 162.4375 C-224.88190475 152.76829393 -200.29367021 141.21928079 -176.49853516 127.44091797 C-174.37584521 126.21675185 -172.24565884 125.00958936 -170.10546875 123.81640625 C-153.19471018 114.34716892 -135.9644932 104.02672627 -120.62109375 92.16015625 C-119 91 -119 91 -117 91 C-117 90.34 -117 89.68 -117 89 C-116 88 -115 87 -114 86 C-114 85.34 -114 84.68 -114 84 C-114.68191406 83.75894531 -115.36382813 83.51789063 -116.06640625 83.26953125 C-119.59104512 81.74422149 -122.7301239 79.77626484 -125.9375 77.6875 C-126.82985352 77.11999023 -126.82985352 77.11999023 -127.74023438 76.54101562 C-138.43601268 69.63259489 -138.43601268 69.63259489 -140.1875 64.5625 C-139.99236312 60.85489935 -139.37368659 59.33419486 -136.94213867 56.58569336 C-132.48474926 52.94637919 -126.85564683 51.12695187 -121.5625 49 C-120.36689453 48.505 -119.17128906 48.01 -117.93945312 47.5 C-115.52864875 46.501888 -113.11539466 45.50967206 -110.69970703 44.5234375 C-104.76693884 42.0933909 -98.88549139 39.54191033 -93 37 C-93 36.34 -93 35.68 -93 35 C-92.02844971 34.91186035 -91.05689941 34.8237207 -90.0559082 34.73291016 C-85.3782207 34.05639388 -81.3803737 32.22072517 -77.10546875 30.2734375 C-76.25209427 29.8933252 -75.39871979 29.51321289 -74.51948547 29.12158203 C-71.7384823 27.88075938 -68.96308663 26.62788551 -66.1875 25.375 C-64.26603726 24.51551657 -62.3441581 23.65696349 -60.421875 22.79931641 C-56.51437776 21.05495274 -52.60876018 19.30648415 -48.70458984 17.5546875 C-41.05387886 14.12455111 -33.385596 10.73447169 -25.71377563 7.35186768 C-23.53252236 6.38935106 -21.35245604 5.42418898 -19.17260742 4.45849609 C-17.85468601 3.8759063 -16.53673532 3.2933827 -15.21875 2.7109375 C-13.5162207 1.95756104 -13.5162207 1.95756104 -11.77929688 1.18896484 C-7.28675489 -0.73291494 -4.76344204 -1.36098344 0 0 Z " fill="#4CBA78" transform="translate(709,333)"/>
<path d="M0 0 C0.33 0.66 0.66 1.32 1 2 C0.67 2.66 0.34 3.32 0 4 C-0.09506283 5.35537757 -0.12915084 6.71529696 -0.13142776 8.07400227 C-0.13526891 8.93181618 -0.13911005 9.78963009 -0.1430676 10.67343837 C-0.14176787 12.09534387 -0.14176787 12.09534387 -0.14044189 13.54597473 C-0.14341302 14.54870963 -0.14638414 15.55144453 -0.1494453 16.58456534 C-0.15816167 19.96629731 -0.15964302 23.347994 -0.16113281 26.72973633 C-0.1657589 29.14553402 -0.17078327 31.56133098 -0.17617798 33.97712708 C-0.18932397 40.55564612 -0.19578763 47.1341578 -0.20018864 53.71268678 C-0.20294952 57.81907102 -0.2071866 61.92545291 -0.21169281 66.03183556 C-0.22388703 77.39737329 -0.23418587 88.76290912 -0.2375679 100.12845325 C-0.23778747 100.85615757 -0.23800703 101.58386189 -0.23823325 102.33361785 C-0.23845153 103.06308156 -0.23866981 103.79254526 -0.2388947 104.54411393 C-0.23933817 106.02232921 -0.23978473 107.50054449 -0.24023438 108.97875977 C-0.2404558 109.71200844 -0.24067723 110.44525712 -0.24090537 111.20072546 C-0.24485361 123.08272444 -0.26230771 134.96466211 -0.2855939 146.84663741 C-0.30929911 159.04069113 -0.32176938 171.23471408 -0.32293582 183.42879122 C-0.32385308 190.27732251 -0.32961803 197.12577392 -0.34775543 203.97428322 C-0.36475245 210.41498449 -0.36641523 216.8555745 -0.35761642 223.29629326 C-0.35684345 225.66304556 -0.36122286 228.02980586 -0.37107468 230.39653778 C-0.38371674 233.62223282 -0.37795933 236.84738366 -0.36749268 240.07307434 C-0.37554908 241.01431917 -0.38360548 241.95556401 -0.39190602 242.92533141 C-0.35500104 247.77314322 -0.18012627 251.07829766 3 255 C5.95125814 257.41437511 7.50709236 257.9892808 11.34338379 258.07270813 C13.23558655 257.88070076 13.23558655 257.88070076 15.16601562 257.68481445 C16.6028396 257.56007618 18.0401293 257.44061445 19.4777832 257.32583618 C20.22246857 257.26618809 20.96715393 257.20653999 21.73440552 257.14508438 C25.4405767 256.9077482 29.13732401 256.9188348 32.84960938 256.94995117 C33.98886242 256.95876045 33.98886242 256.95876045 35.15113068 256.96774769 C36.73158448 256.98225249 38.31202277 256.99854581 39.8924408 257.01653099 C42.41628771 257.04375108 44.94004006 257.06124704 47.46398926 257.07600403 C54.62622543 257.11821703 61.78827059 257.16677151 68.95019531 257.24682617 C73.3647335 257.29547708 77.77903045 257.32436846 82.19380188 257.34057045 C83.86190211 257.35041297 85.52997709 257.36753855 87.19792175 257.39235497 C99.22593983 257.77033079 99.22593983 257.77033079 110 253 C111.57069449 250.42240798 111.57069449 250.42240798 112 248 C112.66 248 113.32 248 114 248 C114 215.99 114 183.98 114 151 C113.34 151 112.68 151 112 151 C112 151.66 112 152.32 112 153 C111.34773438 153.04898438 110.69546875 153.09796875 110.0234375 153.1484375 C109.14945312 153.22320313 108.27546875 153.29796875 107.375 153.375 C106.51648438 153.44460938 105.65796875 153.51421875 104.7734375 153.5859375 C101.66278949 154.0503441 98.97413378 154.97186045 96 156 C92.80451789 156.94433013 89.59179226 157.81896609 86.375 158.6875 C85.529375 158.92533203 84.68375 159.16316406 83.8125 159.40820312 C82.99523437 159.62798828 82.17796875 159.84777344 81.3359375 160.07421875 C80.59907715 160.27619873 79.8622168 160.47817871 79.10302734 160.6862793 C76.77226014 161.03397327 75.22573131 160.71812991 73 160 C80.17108181 157.51319082 87.42119144 155.42024502 94.73950195 153.41064453 C96.69531355 152.8728515 98.64943974 152.3292179 100.60351562 151.78515625 C101.85197266 151.44097656 103.10042969 151.09679687 104.38671875 150.7421875 C105.51295654 150.4313623 106.63919434 150.12053711 107.79956055 149.80029297 C110.85761466 149.03560448 113.88962817 148.49986575 117 148 C117.11597231 160.90011812 117.20475569 173.80011172 117.25906086 186.70064545 C117.28512785 192.69124294 117.32047394 198.68148313 117.37719727 204.671875 C117.43161893 210.45554607 117.46144234 216.23887397 117.47438622 222.02278137 C117.48360775 224.22676493 117.50161543 226.43073022 117.52865028 228.63456726 C117.56507458 231.72749058 117.56993962 234.81900526 117.56762695 237.91210938 C117.58560333 238.81842102 117.60357971 239.72473267 117.62210083 240.6585083 C117.57161105 246.92012854 116.23730917 251.28856554 112 256 C106.98345926 260.42645292 101.66848103 260.58518695 95.22851562 260.54931641 C94.273134 260.55953827 93.31775238 260.56976013 92.3334198 260.58029175 C89.19077155 260.60798125 86.04900535 260.60617894 82.90625 260.6015625 C80.7134163 260.609341 78.52058561 260.61801128 76.32775879 260.62753296 C71.73810035 260.64243445 67.14874969 260.64189096 62.55908203 260.63134766 C56.68430748 260.61974929 50.81079221 260.6536503 44.93622589 260.700037 C40.40993923 260.72952992 35.88395545 260.73125297 31.35758972 260.72501755 C29.19188438 260.72604269 27.0261618 260.73649441 24.86054993 260.75664139 C21.83003288 260.78138005 18.80196362 260.76778879 15.77148438 260.74462891 C14.88192551 260.75991638 13.99236664 260.77520386 13.07585144 260.79095459 C7.56467248 260.69808547 4.50379277 259.55082545 0.38303375 255.87225914 C-3.57365234 250.51596057 -3.28692763 244.53028154 -3.26069641 238.17628479 C-3.26452196 237.19196108 -3.26834751 236.20763738 -3.27228898 235.19348568 C-3.28260098 231.89789759 -3.27863021 228.60248431 -3.2746582 225.30688477 C-3.27900565 222.9430017 -3.2841889 220.57912004 -3.29014587 218.21524048 C-3.30354308 211.79589314 -3.30411376 205.37660466 -3.30158257 198.95724607 C-3.30029906 194.94730908 -3.30292108 190.93737776 -3.30657005 186.92744255 C-3.30716524 186.26141449 -3.30776043 185.59538643 -3.30837366 184.90917571 C-3.30958543 183.55606803 -3.31079956 182.20296035 -3.31201603 180.84985267 C-3.32288784 168.16568246 -3.32073071 155.48153885 -3.31463119 142.79736715 C-3.30946169 131.1982623 -3.32071894 119.59924143 -3.33972941 108.00015319 C-3.3591096 96.08394072 -3.36736353 84.16776798 -3.36360615 72.25153965 C-3.36169446 65.56397395 -3.36444343 58.87649031 -3.37832069 52.18893623 C-3.39088077 45.9008143 -3.38897203 39.61286066 -3.37590981 33.32474136 C-3.37354058 31.01688137 -3.37629104 28.7090096 -3.38453293 26.4011631 C-3.39497245 23.25081231 -3.38692177 20.10102915 -3.3742218 16.95069885 C-3.38159609 16.03746292 -3.38897037 15.12422699 -3.39656812 14.18331724 C-3.35004994 8.69828192 -2.51049797 4.89324314 0 0 Z " fill="#491CAE" transform="translate(344,404)"/>
<path d="M0 0 C3.06986538 2.47294712 4.34005161 4.16263292 5 8 C5.09278049 10.42106274 5.12628878 12.84457052 5.12698364 15.26741028 C5.12854363 16.00092844 5.13010362 16.73444661 5.13171089 17.49019259 C5.13570058 19.94896717 5.13253905 22.40768004 5.12939453 24.86645508 C5.13074951 26.62906429 5.13252998 28.39167322 5.13470459 30.15428162 C5.13926846 34.94362526 5.13749338 39.73294739 5.1343255 44.52229142 C5.13179533 49.53453012 5.13414139 54.54676697 5.13571167 59.55900574 C5.13753194 67.97985159 5.1351313 76.40068868 5.13037109 84.8215332 C5.12493405 94.55196232 5.12668765 104.28237048 5.1321975 114.01279908 C5.13673899 122.3679112 5.13737393 130.723017 5.13475883 139.07812995 C5.13320109 144.0677183 5.13298844 149.05729682 5.13629532 154.04688454 C5.13918887 158.74098629 5.13717102 163.43506108 5.13140106 168.12915993 C5.13008121 169.85004634 5.13045442 171.57093503 5.13266373 173.29182053 C5.13540583 175.64512368 5.13195673 177.99834107 5.12698364 180.35163879 C5.12660662 181.66737287 5.12622959 182.98310694 5.12584114 184.33871174 C5.00004472 187.998699 4.77358162 191.41763602 4 195 C3.01 195.66 2.02 196.32 1 197 C1.00276538 195.51075988 1.00276538 195.51075988 1.00558662 193.9914341 C1.04993093 169.86476458 1.08282544 145.73810032 1.10362434 121.6113987 C1.11394916 109.94404276 1.12803244 98.27671369 1.15087891 86.609375 C1.17077597 76.44342894 1.18370766 66.27750233 1.18817699 56.11153734 C1.19079063 50.72575814 1.19695869 45.34003462 1.21146011 39.95427322 C1.2249859 34.89005929 1.22923283 29.82592423 1.22621536 24.76169395 C1.22676778 22.89841344 1.2307749 21.03513041 1.23841095 19.17186546 C1.24829403 16.63699031 1.24599339 14.10241687 1.24050903 11.5675354 C1.24633472 10.82240806 1.2521604 10.07728072 1.25816262 9.30957377 C1.36132288 5.20208323 1.36132288 5.20208323 -1 2 C-8.44419985 1.68982501 -12.62701462 6.37304213 -18 11 C-19.86926406 12.50714196 -21.74404501 14.00747418 -23.625 15.5 C-24.46289062 16.1703125 -25.30078125 16.840625 -26.1640625 17.53125 C-27.07285156 18.25828125 -27.07285156 18.25828125 -28 19 C-28.66 18.67 -29.32 18.34 -30 18 C-6.78395097 -2.15100885 -6.78395097 -2.15100885 0 0 Z " fill="#4923A7" transform="translate(677,461)"/>
<path d="M0 0 C0.04630462 12.96928266 0.0818597 25.9385457 0.10362434 38.90789413 C0.11406934 44.92983669 0.12824168 50.95172277 0.15087891 56.97363281 C0.17258164 62.78319099 0.18456323 68.59269477 0.18975449 74.40229034 C0.19345485 76.6206981 0.20068058 78.83910283 0.21146011 81.05748749 C0.22594075 84.16046117 0.22797936 87.263209 0.22705078 90.36621094 C0.23424133 91.28690369 0.24143188 92.20759644 0.24884033 93.15618896 C0.246091 94.00310303 0.24334167 94.85001709 0.24050903 95.72259521 C0.24235262 96.45634243 0.24419621 97.19008965 0.24609566 97.94607162 C-0.17168455 101.43288903 -1.34694596 103.47086513 -4.05859375 105.66796875 C-4.84363281 106.16941406 -5.62867188 106.67085937 -6.4375 107.1875 C-7.21996094 107.69667969 -8.00242187 108.20585938 -8.80859375 108.73046875 C-13.39713671 111.38871556 -17.73603977 111.13504953 -22.87768555 111.11352539 C-23.78520569 111.11367142 -24.69272583 111.11381744 -25.62774658 111.1139679 C-28.63076152 111.11327061 -31.63371463 111.10548676 -34.63671875 111.09765625 C-36.71751369 111.09579142 -38.79830908 111.09436782 -40.87910461 111.09336853 C-46.3585023 111.08954849 -51.83787352 111.07972255 -57.31726074 111.06866455 C-62.90746706 111.05843943 -68.49767765 111.05386855 -74.08789062 111.04882812 C-85.05860538 111.03809985 -96.02930049 111.02102955 -107 111 C-107 110.67 -107 110.34 -107 110 C-97.06998135 109.09786759 -87.278888 108.90389992 -77.31901932 109.01653099 C-74.78693132 109.04366125 -72.25493658 109.06121611 -69.7227478 109.07600403 C-62.53488847 109.11829623 -55.34721666 109.16668256 -48.15966797 109.24682617 C-43.73446765 109.29548264 -39.30950824 109.32437222 -34.88407516 109.34057045 C-33.21039298 109.35041641 -31.53673606 109.36754736 -29.86320877 109.39235497 C-17.80227879 109.77735855 -17.80227879 109.77735855 -7 105 C-5.42930551 102.42240798 -5.42930551 102.42240798 -5 100 C-4.34 100 -3.68 100 -3 100 C-3 67.99 -3 35.98 -3 3 C-3.66 3 -4.32 3 -5 3 C-5 3.66 -5 4.32 -5 5 C-5.65226562 5.04898438 -6.30453125 5.09796875 -6.9765625 5.1484375 C-7.85054688 5.22320313 -8.72453125 5.29796875 -9.625 5.375 C-10.48351562 5.44460938 -11.34203125 5.51421875 -12.2265625 5.5859375 C-15.33721051 6.0503441 -18.02586622 6.97186045 -21 8 C-24.19548211 8.94433013 -27.40820774 9.81896609 -30.625 10.6875 C-31.470625 10.92533203 -32.31625 11.16316406 -33.1875 11.40820312 C-34.00476563 11.62798828 -34.82203125 11.84777344 -35.6640625 12.07421875 C-36.40092285 12.27619873 -37.1377832 12.47817871 -37.89697266 12.6862793 C-40.22773986 13.03397327 -41.77426869 12.71812991 -44 12 C-36.81234539 9.50472253 -29.54314637 7.41919387 -22.20556641 5.41064453 C-20.23901959 4.87199238 -18.27375574 4.32883641 -16.30859375 3.78515625 C-2.54310042 0 -2.54310042 0 0 0 Z " fill="#5B22D5" transform="translate(461,552)"/>
<path d="M0 0 C1.98 0.99 1.98 0.99 4 2 C-3.08927951 7.00948113 -10.54264686 11.15030268 -18.25 15.125 C-18.87937469 15.45014587 -19.50874939 15.77529175 -20.15719604 16.11029053 C-45.43952374 29.10815373 -72.18605507 38.69436312 -99 48 C-99.72909576 48.25416687 -100.45819153 48.50833374 -101.2093811 48.77020264 C-111.7090712 52.41346514 -122.26273926 55.57140463 -133.03686523 58.29785156 C-135.35980086 58.88699648 -137.67891291 59.48983155 -139.99804688 60.09375 C-141.49458659 60.47736343 -142.991324 60.86020666 -144.48828125 61.2421875 C-145.17159012 61.42022919 -145.85489899 61.59827087 -146.55891418 61.78170776 C-150.11463583 62.67206691 -153.33281488 63.19841689 -157 63 C-151.30467737 59.20311824 -144.50022424 58.08276072 -137.921875 56.5 C-134.74763263 55.72461255 -131.71398221 54.89936411 -128.625 53.8125 C-126 53 -126 53 -124 54 C-123.505 53.01 -123.505 53.01 -123 52 C-121.03125 51.25390625 -121.03125 51.25390625 -118.5 50.5625 C-110.69073163 48.34710472 -103.08709164 45.69909039 -95.48046875 42.8671875 C-93.32459523 42.11348054 -91.2119227 41.55298067 -89 41 C-87.18066751 40.37367242 -85.36850209 39.72628717 -83.5625 39.0625 C-82.63566406 38.72347656 -81.70882812 38.38445313 -80.75390625 38.03515625 C-78.15389199 37.05784592 -75.57520531 36.04069311 -73 35 C-70.35046892 33.93675775 -67.69842062 32.88223285 -65.0390625 31.84375 C-57.04057949 28.69560566 -49.1322897 25.36646823 -41.25 21.9375 C-40.30463379 21.52628906 -39.35926758 21.11507812 -38.38525391 20.69140625 C-33.58701623 18.59483762 -28.79957201 16.47458254 -24.0234375 14.328125 C-23.14606934 13.93399414 -22.26870117 13.53986328 -21.36474609 13.13378906 C-15.80164737 10.5480229 -15.80164737 10.5480229 -12 6 C-10.8553125 5.7834375 -10.8553125 5.7834375 -9.6875 5.5625 C-6.7131264 4.93995669 -5.37319609 3.81945034 -3 2 C-2.01 2 -1.02 2 0 2 C0 1.34 0 0.68 0 0 Z " fill="#48A377" transform="translate(581,498)"/>
<path d="M0 0 C0.33 0 0.66 0 1 0 C1.13197803 12.08506071 1.26246243 24.1701366 1.39115143 36.25523281 C1.45098125 41.869626 1.51128453 47.48401318 1.57275391 53.09838867 C1.69945889 64.69537323 1.82077426 76.29236426 1.92472839 87.88957787 C1.96257447 92.09860188 2.00203405 96.3075392 2.05371094 100.51641846 C2.09682432 104.10599273 2.12876705 107.69543533 2.15625 111.28515625 C2.1711145 112.24570419 2.185979 113.20625214 2.20129395 114.19590759 C2.2207195 118.53355745 2.22742717 122.13314131 0 126 C-2.66796875 127.8515625 -2.66796875 127.8515625 -6.1875 129.625 C-6.84258545 129.95927002 -7.4976709 130.29354004 -8.17260742 130.63793945 C-14.9616881 134.06707433 -21.84886216 137.3062033 -28.71972656 140.56738281 C-36.49670326 144.26163717 -44.22892086 148.04010617 -51.9375 151.875 C-53.02071533 152.41020264 -54.10393066 152.94540527 -55.2199707 153.49682617 C-59.83310348 155.80032412 -64.30823821 158.12575355 -68.62890625 160.9453125 C-69.74136719 161.62335938 -70.85382813 162.30140625 -72 163 C-72.66 162.67 -73.32 162.34 -74 162 C-70.79598882 158.37807432 -67.05989293 155.95534663 -63.0234375 153.3671875 C-60.89719518 152.02387645 -60.89719518 152.02387645 -59 150 C-57.41602769 149.43930184 -55.80728033 148.94683595 -54.1875 148.5 C-48.96928108 147.08008268 -48.96928108 147.08008268 -44 145 C-43.67 144.01 -43.34 143.02 -43 142 C-42.12730469 141.90332031 -41.25460937 141.80664062 -40.35546875 141.70703125 C-36.6987396 140.93652138 -34.45113077 139.68714607 -31.3125 137.6875 C-26.42352377 134.70046964 -21.75906959 132.65358462 -16.27734375 131.01953125 C-13.57246875 129.80860093 -12.71871629 128.3516713 -11 126 C-10.01 126 -9.02 126 -8 126 C-4.535 125.01 -4.535 125.01 -1 124 C-0.67 83.08 -0.34 42.16 0 0 Z " fill="#451CB2" transform="translate(460,354)"/>
<path d="M0 0 C-3.80970335 3.2859975 -8.24362603 5.02547445 -12.8125 7 C-13.98522461 7.51433594 -13.98522461 7.51433594 -15.18164062 8.0390625 C-19.77715699 10.05080066 -24.38879838 12.02452531 -29 14 C-39.12287766 18.3847688 -49.21550994 22.83060318 -59.2109375 27.5 C-65.00238082 30.19997358 -70.79615485 32.75565405 -76.75 35.07421875 C-78.83931348 35.93388419 -80.81163572 36.89121472 -82.8125 37.9375 C-86.16652159 39.67164343 -89.58421705 41.00236749 -93.125 42.3125 C-98.02476938 44.15062486 -102.66448329 46.24085558 -107.3125 48.625 C-112.14140837 51.10150161 -116.86481231 53.25403619 -122 55 C-121 52 -121 52 -118.63916016 50.69726562 C-117.61612793 50.27123047 -116.5930957 49.84519531 -115.5390625 49.40625 C-114.42789063 48.93316406 -113.31671875 48.46007812 -112.171875 47.97265625 C-110.41617188 47.24369141 -110.41617188 47.24369141 -108.625 46.5 C-106.32278632 45.53776657 -104.02317423 44.56927836 -101.7265625 43.59375 C-100.70127441 43.16771484 -99.67598633 42.74167969 -98.61962891 42.30273438 C-96.14861367 41.07390518 -94.85578856 39.97443568 -93 38 C-90.61125201 36.85707168 -88.26018966 35.8067972 -85.8125 34.8125 C-85.15830078 34.53986328 -84.50410156 34.26722656 -83.83007812 33.98632812 C-82.22278908 33.31760202 -80.61175038 32.65790075 -79 32 C-79 31.34 -79 30.68 -79 30 C-78.03642578 29.91548584 -77.07285156 29.83097168 -76.08007812 29.74389648 C-71.26160906 29.04727672 -67.12094698 27.10281098 -62.71875 25.09765625 C-61.83543503 24.70382751 -60.95212006 24.30999878 -60.04203796 23.90423584 C-58.16101096 23.06433752 -56.28175147 22.22047115 -54.40414429 21.37295532 C-51.48714244 20.0566982 -48.56531179 18.75178126 -45.6418457 17.44995117 C-38.69899075 14.35597001 -31.76335856 11.24601675 -24.83349609 8.12304688 C-21.62186646 6.67770378 -18.40537895 5.24385415 -15.1875 3.8125 C-14.30835938 3.40974854 -13.42921875 3.00699707 -12.5234375 2.59204102 C-8.16376036 0.65827065 -4.87873854 -0.47923197 0 0 Z " fill="#52CA7A" transform="translate(695,338)"/>
<path d="M0 0 C2.375 1.875 2.375 1.875 4 5 C5.07090566 14.75362083 3.18540749 25.02489331 2.1015625 34.72265625 C1.90430054 36.51815364 1.70731423 38.31368133 1.5105896 40.10923767 C1.09935308 43.84892438 0.68353685 47.58806728 0.26464844 51.3269043 C-0.27227613 56.12431765 -0.79560933 60.92310658 -1.31537437 65.72240543 C-1.71760791 69.41957391 -2.1279143 73.1158125 -2.54060745 76.81182671 C-2.73710512 78.58220805 -2.93083965 80.35289831 -3.12177658 82.12388802 C-3.38841913 84.5875988 -3.66612203 87.04981465 -3.94677734 89.51196289 C-4.02374344 90.24490067 -4.10070953 90.97783844 -4.18000793 91.73298645 C-4.77159028 96.77159028 -4.77159028 96.77159028 -7 99 C-6.54815508 90.37927461 -5.91171476 81.82721356 -4.9375 73.25 C-4.24155517 67.09328173 -3.92174256 61.13571863 -4.0625 54.93359375 C-3.941042 49.23265887 -2.93056837 43.61664481 -2 38 C-1.34 38 -0.68 38 0 38 C-0.185625 36.9275 -0.37125 35.855 -0.5625 34.75 C-1.13663677 30.19677643 -0.7122065 25.9364843 -0.2578125 21.38671875 C0.20827432 15.26403276 0.0754547 9.13698189 0 3 C-6.49850211 3.51553879 -12.66226532 4.46667709 -19 6 C-14.55114073 0.9569934 -6.47235791 -2.61976392 0 0 Z " fill="#4BB672" transform="translate(709,333)"/>
<path d="M0 0 C0.33 0 0.66 0 1 0 C1.19165051 7.51429702 0.42081998 14.7358616 -0.5 22.1875 C-1.48326662 30.4921242 -2.18829584 38.49305804 -1.98828125 46.8515625 C-2.00242526 50.65158643 -2.31049044 54.35310987 -2.75 58.125 C-2.88921875 59.34445312 -3.0284375 60.56390625 -3.171875 61.8203125 C-4.10426339 65.40033208 -5.09140258 66.7684504 -8 69 C-11.10819219 69.69070938 -12.96305777 69.65465938 -15.6953125 67.9296875 C-20.31906833 64.13530491 -24.17663341 59.57874297 -28 55 C-27.01 54.505 -27.01 54.505 -26 54 C-25.48050781 54.45890625 -24.96101562 54.9178125 -24.42578125 55.390625 C-22.98676797 56.65674389 -21.5425311 57.91694489 -20.09375 59.171875 C-18.4743982 60.58578665 -16.88652207 62.03579342 -15.3125 63.5 C-13.07291667 65.28125 -13.07291667 65.28125 -10.25 64.8125 C-8.06023367 64.20186938 -8.06023367 64.20186938 -7 63 C-6.66044931 60.31842997 -6.37868437 57.65158708 -6.1328125 54.9609375 C-5.96907724 53.25781233 -5.80534019 51.55468734 -5.64160156 49.8515625 C-5.5150116 48.50819824 -5.5150116 48.50819824 -5.38586426 47.13769531 C-3.89775517 31.37780532 -2.22957331 15.67457602 0 0 Z " fill="#51B482" transform="translate(705,388)"/>
<path d="M0 0 C0.33 0 0.66 0 1 0 C1.02505615 1.25844727 1.0501123 2.51689453 1.07592773 3.81347656 C1.17172889 8.58486239 1.2714916 13.35615927 1.37231445 18.12744141 C1.41502353 20.17331835 1.45672737 22.21921658 1.49731445 24.26513672 C1.7243293 35.67193192 2.03000725 47.06187117 2.66197205 58.45428467 C3.73784376 77.89063914 3.73784376 77.89063914 2 85 C0.515 85.99 0.515 85.99 -1 87 C-0.67 58.29 -0.34 29.58 0 0 Z " fill="#4115A4" transform="translate(679,571)"/>
<path d="M0 0 C-0.639375 0.103125 -1.27875 0.20625 -1.9375 0.3125 C-2.618125 0.539375 -3.29875 0.76625 -4 1 C-4.33 1.99 -4.66 2.98 -5 4 C-6.7421875 4.94921875 -6.7421875 4.94921875 -8.875 5.6875 C-9.57367188 5.93886719 -10.27234375 6.19023437 -10.9921875 6.44921875 C-13 7 -13 7 -16 7 C-16 7.66 -16 8.32 -16 9 C-17.299375 9.226875 -18.59875 9.45375 -19.9375 9.6875 C-24.4635024 10.67512062 -27.91559386 12.48800782 -31.875 14.83203125 C-34.80406305 16.44193906 -37.76099448 17.22023941 -41 18 C-42.2375 18.391875 -43.475 18.78375 -44.75 19.1875 C-48 20 -48 20 -51 19 C-48.41210938 17.92578125 -48.41210938 17.92578125 -45.82421875 16.8515625 C-43.73466068 15.93193308 -43.73466068 15.93193308 -41 14 C-39.58496296 13.39792646 -38.15289616 12.83517586 -36.7109375 12.30078125 C-35.43355713 11.82209595 -35.43355713 11.82209595 -34.13037109 11.33374023 C-32.7664624 10.82822632 -32.7664624 10.82822632 -31.375 10.3125 C-23.57730136 7.39865155 -15.85848331 4.36141318 -8.24365234 0.99536133 C-3.32618682 -1.10872894 -3.32618682 -1.10872894 0 0 Z " fill="#4C9E88" transform="translate(490,485)"/>
<path d="M0 0 C0.66 0.33 1.32 0.66 2 1 C-4.62188852 5.65321896 -11.77016861 9.3850843 -19 13 C-23.35697749 15.29066025 -27.68283857 17.63524875 -32 20 C-32.94488281 20.51046875 -33.88976562 21.0209375 -34.86328125 21.546875 C-40.43897621 24.69430827 -44.11968855 27.89432704 -48 33 C-48.66 32.67 -49.32 32.34 -50 32 C-47.89405242 24.98017473 -44.19116311 22.59875029 -38 19 C-37.0925 18.401875 -36.185 17.80375 -35.25 17.1875 C-33 16 -33 16 -30.62988281 15.55761719 C-27.97375996 14.99443629 -26.05587078 14.16834323 -23.671875 12.890625 C-22.47111328 12.25253906 -22.47111328 12.25253906 -21.24609375 11.6015625 C-20.42238281 11.15554688 -19.59867187 10.70953125 -18.75 10.25 C-17.94175781 9.81945312 -17.13351562 9.38890625 -16.30078125 8.9453125 C-12.99359241 7.17795079 -9.69771034 5.40534668 -6.45507812 3.52148438 C-5.65005859 3.05548828 -4.84503906 2.58949219 -4.015625 2.109375 C-3.29149414 1.68108398 -2.56736328 1.25279297 -1.82128906 0.81152344 C-1.22026367 0.5437207 -0.61923828 0.27591797 0 0 Z " fill="#6225E0" transform="translate(393,376)"/>
<path d="M0 0 C-1.70535617 0.88078835 -3.41455027 1.75414439 -5.125 2.625 C-6.20652344 3.17671875 -7.28804687 3.7284375 -8.40234375 4.296875 C-10.91082929 5.48438824 -13.28702243 6.5120359 -15.87890625 7.453125 C-22.5187906 9.48383447 -22.5187906 9.48383447 -27.10546875 14.15625 C-27.48657766 16.60742531 -27.48657766 16.60742531 -27 20 C-26.05125 20.556875 -25.1025 21.11375 -24.125 21.6875 C-20.91121213 24.06570302 -20.04434882 25.24034426 -19 29 C-23.52694979 27.5353986 -26.67232608 25.40330287 -30 22 C-31.1875 18.5625 -31.1875 18.5625 -31 15 C-26.94536096 8.32070623 -20.8644944 6.34257322 -13.8125 3.5625 C-12.15444336 2.87510742 -12.15444336 2.87510742 -10.46289062 2.17382812 C-2.28482776 -1.14241388 -2.28482776 -1.14241388 0 0 Z " fill="#4AB76F" transform="translate(600,379)"/>
<path d="M0 0 C-2.76886123 1.00577013 -5.53984104 2.00480147 -8.3125 3 C-9.49102539 3.42925781 -9.49102539 3.42925781 -10.69335938 3.8671875 C-11.45068359 4.13789062 -12.20800781 4.40859375 -12.98828125 4.6875 C-13.68477783 4.93886719 -14.38127441 5.19023438 -15.09887695 5.44921875 C-17 6 -17 6 -20 6 C-20 6.66 -20 7.32 -20 8 C-24.32129525 9.14715878 -28.64461902 10.28622694 -32.9699707 11.41796875 C-34.43995033 11.80379187 -35.90936134 12.19178841 -37.37817383 12.58203125 C-39.49413278 13.14380295 -41.61203898 13.69762903 -43.73046875 14.25 C-45.00301514 14.58515625 -46.27556152 14.9203125 -47.58666992 15.265625 C-50.53911865 15.90084178 -53.00102824 16.16034603 -56 16 C-50.30467737 12.20311824 -43.50022424 11.08276072 -36.921875 9.5 C-33.74763263 8.72461255 -30.71398221 7.89936411 -27.625 6.8125 C-25 6 -25 6 -23 7 C-22.67 6.34 -22.34 5.68 -22 5 C-20.03125 4.25390625 -20.03125 4.25390625 -17.5 3.5625 C-13.22584806 2.36671861 -9.07162109 0.99384883 -4.91015625 -0.546875 C-3 -1 -3 -1 0 0 Z " fill="#51AF96" transform="translate(480,545)"/>
<path d="M0 0 C0 0.66 0 1.32 0 2 C-5.11917343 3.84362108 -10.24208525 5.67630679 -15.36865234 7.49926758 C-17.10961287 8.12002387 -18.84954296 8.74367842 -20.58837891 9.37036133 C-23.09788441 10.27421474 -25.6109956 11.16734193 -28.125 12.05859375 C-28.89303955 12.3377916 -29.6610791 12.61698944 -30.45239258 12.90464783 C-35.32837449 14.61873168 -39.84971792 15.52737987 -45 16 C-41.63595782 13.75730522 -38.24283077 12.61344256 -34.4375 11.375 C-33.75236328 11.14554688 -33.06722656 10.91609375 -32.36132812 10.6796875 C-27.26727586 9 -27.26727586 9 -25 9 C-25 8.34 -25 7.68 -25 7 C-23.75108386 6.51801537 -22.50081192 6.03954323 -21.25 5.5625 C-20.55390625 5.29566406 -19.8578125 5.02882813 -19.140625 4.75390625 C-17 4 -17 4 -15.0859375 3.53515625 C-11.43554463 2.59863224 -7.96972921 1.106195 -4.4609375 -0.2578125 C-2 -1 -2 -1 0 0 Z " fill="#4AA181" transform="translate(505,536)"/>
<path d="M0 0 C-0.60062256 0.26216309 -1.20124512 0.52432617 -1.82006836 0.79443359 C-4.5288719 1.98125751 -7.23318794 3.17797932 -9.9375 4.375 C-10.88302734 4.7875 -11.82855469 5.2 -12.80273438 5.625 C-14.15141602 6.22441406 -14.15141602 6.22441406 -15.52734375 6.8359375 C-16.77632446 7.38580322 -16.77632446 7.38580322 -18.05053711 7.94677734 C-20.16273079 8.84683524 -20.16273079 8.84683524 -21 11 C-24.01977336 12.47730213 -27.21756064 13.53913102 -30.375 14.6875 C-31.2515625 15.02072266 -32.128125 15.35394531 -33.03125 15.69726562 C-33.87429688 16.00728516 -34.71734375 16.31730469 -35.5859375 16.63671875 C-36.3598584 16.92248779 -37.1337793 17.20825684 -37.93115234 17.50268555 C-40 18 -40 18 -43 17 C-42.34 17 -41.68 17 -41 17 C-41 16.34 -41 15.68 -41 15 C-36.64948648 12.72434678 -32.23771047 10.90650455 -27.625 9.25 C-20.98450371 6.83250652 -14.53245186 4.11315969 -8.14111328 1.09667969 C-3.3226172 -1.10753907 -3.3226172 -1.10753907 0 0 Z " fill="#52C182" transform="translate(547,519)"/>
<path d="M0 0 C2.70186127 2.22153038 4.56805658 3.92014145 5.875 7.1875 C6 9 6 9 5 11 C4.7677354 13.71262116 4.58063765 16.40773126 4.4375 19.125 C4.39431641 19.87910156 4.35113281 20.63320313 4.30664062 21.41015625 C4.2005168 23.27321888 4.09974999 25.13658524 4 27 C3.67 27 3.34 27 3 27 C3 20.4 3 13.8 3 7 C2.34 7 1.68 7 1 7 C0.67 6.01 0.34 5.02 0 4 C-4.84492197 2.48596188 -8.2591011 3.63397828 -13 5 C-13 4.01 -13 3.02 -13 2 C-8.25954769 -0.37022616 -5.25668186 -1.82841108 0 0 Z " fill="#5E27D7" transform="translate(455,345)"/>
<path d="M0 0 C-0.66 1.32 -1.32 2.64 -2 4 C-2 3.34 -2 2.68 -2 2 C-2.66 2 -3.32 2 -4 2 C-4 2.66 -4 3.32 -4 4 C-4.65226562 4.04898438 -5.30453125 4.09796875 -5.9765625 4.1484375 C-6.85054688 4.22320313 -7.72453125 4.29796875 -8.625 4.375 C-9.48351562 4.44460938 -10.34203125 4.51421875 -11.2265625 4.5859375 C-14.33721051 5.0503441 -17.02586622 5.97186045 -20 7 C-23.19548211 7.94433013 -26.40820774 8.81896609 -29.625 9.6875 C-30.470625 9.92533203 -31.31625 10.16316406 -32.1875 10.40820312 C-33.00476563 10.62798828 -33.82203125 10.84777344 -34.6640625 11.07421875 C-35.40092285 11.27619873 -36.1377832 11.47817871 -36.89697266 11.6862793 C-39.22773986 12.03397327 -40.77426869 11.71812991 -43 11 C-35.80799376 8.51106334 -28.53955486 6.3863652 -21.20556641 4.35571289 C-19.23808852 3.80919126 -17.27340088 3.25330165 -15.30859375 2.69726562 C-13.43107422 2.17616211 -13.43107422 2.17616211 -11.515625 1.64453125 C-10.38415039 1.32846924 -9.25267578 1.01240723 -8.08691406 0.68676758 C-5.26311097 0.05853616 -2.87702755 -0.14130058 0 0 Z " fill="#5A22D9" transform="translate(460,553)"/>
<path d="M0 0 C-0.66 0 -1.32 0 -2 0 C-2.33 0.66 -2.66 1.32 -3 2 C-3.66 1.67 -4.32 1.34 -5 1 C-5 1.66 -5 2.32 -5 3 C-6.72856459 3.4813341 -8.45788071 3.95996971 -10.1875 4.4375 C-11.63189453 4.83775391 -11.63189453 4.83775391 -13.10546875 5.24609375 C-17.32663714 6.34553437 -21.47539967 7.10937011 -25.8125 7.5625 C-26.60269531 7.64628906 -27.39289063 7.73007812 -28.20703125 7.81640625 C-28.79871094 7.87699219 -29.39039063 7.93757812 -30 8 C-29.67 7.01 -29.34 6.02 -29 5 C-26.6550293 4.09277344 -26.6550293 4.09277344 -23.57421875 3.359375 C-22.46755859 3.09382812 -21.36089844 2.82828125 -20.22070312 2.5546875 C-19.05474609 2.28914062 -17.88878906 2.02359375 -16.6875 1.75 C-15.53314453 1.46898437 -14.37878906 1.18796875 -13.18945312 0.8984375 C-3.76690496 -1.31091216 -3.76690496 -1.31091216 0 0 Z " fill="#5232BE" transform="translate(418,511)"/>
<path d="M0 0 C0.66 0.33 1.32 0.66 2 1 C4.00800456 0.71887936 6.01014051 0.38932033 8 0 C7 3 7 3 3.71875 4.90234375 C2.31789138 5.5917935 0.91125675 6.26959265 -0.5 6.9375 C-1.22598389 7.28868896 -1.95196777 7.63987793 -2.69995117 8.00170898 C-4.14177836 8.6959817 -5.5859968 9.38531316 -7.03271484 10.06933594 C-8.68018472 10.84870491 -10.31963345 11.64499918 -11.95703125 12.4453125 C-17.61434805 15.12855065 -17.61434805 15.12855065 -21 14 C-19.37750059 13.16180842 -17.75191503 12.3295884 -16.125 11.5 C-15.22007812 11.0359375 -14.31515625 10.571875 -13.3828125 10.09375 C-11 9 -11 9 -9 9 C-9 8.34 -9 7.68 -9 7 C-8.43410156 6.74605469 -7.86820312 6.49210937 -7.28515625 6.23046875 C-6.18494141 5.71419922 -6.18494141 5.71419922 -5.0625 5.1875 C-4.33160156 4.85105469 -3.60070312 4.51460938 -2.84765625 4.16796875 C-0.66970511 3.06399866 -0.66970511 3.06399866 0 0 Z " fill="#5A27CB" transform="translate(448,480)"/>
<path d="M0 0 C3.18916928 0.0759326 5.30959372 0.34038648 7.6640625 2.58984375 C8.70286626 3.84101379 9.71725569 5.11295907 10.703125 6.40625 C11.92891994 8.13591647 11.92891994 8.13591647 14 9 C13.67 9.66 13.34 10.32 13 11 C6.25 7.25 6.25 7.25 4 5 C1.22135764 3.89699646 1.22135764 3.89699646 -2 4 C-4.34913871 5.43499423 -6.00858189 7.05599661 -8 9 C-6.71700242 6.13792848 -5.469364 3.9754912 -3 2 C-2.01 2 -1.02 2 0 2 C0 1.34 0 0.68 0 0 Z " fill="#52C380" transform="translate(666,432)"/>
<path d="M0 0 C-14.59681093 7.85193622 -14.59681093 7.85193622 -22 8 C-22 7.34 -22 6.68 -22 6 C-16.98102192 3.60204381 -12.54845917 1.77420361 -7 1 C-5.9171875 0.443125 -5.9171875 0.443125 -4.8125 -0.125 C-3 -1 -3 -1 0 0 Z " fill="#52C879" transform="translate(622,371)"/>
<path d="M0 0 C-0.969375 0.268125 -1.93875 0.53625 -2.9375 0.8125 C-4.4534375 1.4003125 -4.4534375 1.4003125 -6 2 C-6.33 2.99 -6.66 3.98 -7 5 C-8.85546875 5.66015625 -8.85546875 5.66015625 -11.1875 6.0625 C-14.92114836 6.77225105 -18.41445886 7.71288267 -22 9 C-22 8.34 -22 7.68 -22 7 C-20.35 6.34 -18.7 5.68 -17 5 C-17 4.34 -17 3.68 -17 3 C-15.989375 2.896875 -14.97875 2.79375 -13.9375 2.6875 C-10.84966798 2.14835473 -8.98218475 1.65079629 -6.25 0.375 C-3 -1 -3 -1 0 0 Z " fill="#4AB96E" transform="translate(633,365)"/>
<path d="M0 0 C0.66 0.66 1.32 1.32 2 2 C-1.11741192 3.86715818 -4.2450458 5.71645661 -7.375 7.5625 C-8.26445313 8.09552734 -9.15390625 8.62855469 -10.0703125 9.17773438 C-10.92109375 9.67724609 -11.771875 10.17675781 -12.6484375 10.69140625 C-13.43395996 11.15748291 -14.21948242 11.62355957 -15.02880859 12.10375977 C-15.67930176 12.39951904 -16.32979492 12.69527832 -17 13 C-17.66 12.67 -18.32 12.34 -19 12 C-18.030625 11.38125 -17.06125 10.7625 -16.0625 10.125 C-12.97164638 8.34321154 -12.97164638 8.34321154 -12 6 C-10.8553125 5.7834375 -10.8553125 5.7834375 -9.6875 5.5625 C-6.7131264 4.93995669 -5.37319609 3.81945034 -3 2 C-2.01 2 -1.02 2 0 2 C0 1.34 0 0.68 0 0 Z " fill="#5AD88B" transform="translate(581,498)"/>
<path d="M0 0 C-3.61663572 2.04298506 -7.44940446 3.07242346 -11.4375 4.125 C-12.09298828 4.30675781 -12.74847656 4.48851562 -13.42382812 4.67578125 C-17.0299412 5.63789367 -20.26701871 6.21577927 -24 6 C-18.13662898 2.09108599 -6.86978946 -2.28992982 0 0 Z " fill="#4D8FA6" transform="translate(448,555)"/>
<path d="M0 0 C-0.33 0.66 -0.66 1.32 -1 2 C-3.25 2.5625 -3.25 2.5625 -6 3 C-6.7425 3.165 -7.485 3.33 -8.25 3.5 C-12.14422187 4.20804034 -16.06405451 4.5969729 -20 5 C-19.67 4.01 -19.34 3.02 -19 2 C-17.4840625 2.061875 -17.4840625 2.061875 -15.9375 2.125 C-10.39174921 1.94894442 -5.57764942 -0.33803936 0 0 Z " fill="#5E49D6" transform="translate(408,514)"/>
<path d="M0 0 C0.66 0.33 1.32 0.66 2 1 C-10.69462945 10.45784328 -10.69462945 10.45784328 -16 13 C-16.99 12.67 -17.98 12.34 -19 12 C-18.53102295 11.70754395 -18.0620459 11.41508789 -17.57885742 11.11376953 C-15.44810835 9.7846545 -13.31779997 8.45483472 -11.1875 7.125 C-10.44951172 6.66480469 -9.71152344 6.20460938 -8.95117188 5.73046875 C-8.23896484 5.28574219 -7.52675781 4.84101563 -6.79296875 4.3828125 C-5.81106567 3.77010498 -5.81106567 3.77010498 -4.80932617 3.14501953 C-3.1907533 2.1207169 -1.59375623 1.06250416 0 0 Z " fill="#5CDD88" transform="translate(577,435)"/>
<path d="M0 0 C0.66 0.33 1.32 0.66 2 1 C1.01 1.33 0.02 1.66 -1 2 C-1.33 2.99 -1.66 3.98 -2 5 C-4.94140625 6.38671875 -4.94140625 6.38671875 -8.5625 7.6875 C-9.76003906 8.12449219 -10.95757812 8.56148438 -12.19140625 9.01171875 C-13.11824219 9.33785156 -14.04507812 9.66398437 -15 10 C-15 9.34 -15 8.68 -15 8 C-12.54665445 6.63603538 -10.08808766 5.28365831 -7.625 3.9375 C-6.92632812 3.54755859 -6.22765625 3.15761719 -5.5078125 2.75585938 C-3.70389816 1.77584822 -1.85416518 0.88124929 0 0 Z " fill="#5220C3" transform="translate(425,357)"/>
<path d="M0 0 C0.66 0.33 1.32 0.66 2 1 C-4.00542742 5.22003008 -10.43849281 8.71924641 -17 12 C-17 11.01 -17 10.02 -17 9 C-14.21526125 7.46621464 -11.42121662 5.9502442 -8.625 4.4375 C-7.8309375 3.99986328 -7.036875 3.56222656 -6.21875 3.11132812 C-5.45820313 2.70205078 -4.69765625 2.29277344 -3.9140625 1.87109375 C-2.8614624 1.29766235 -2.8614624 1.29766235 -1.78759766 0.71264648 C-1.19769043 0.47747314 -0.6077832 0.2422998 0 0 Z " fill="#6724F0" transform="translate(393,376)"/>
<path d="M0 0 C-1.93558599 0.67220351 -3.87354372 1.33758077 -5.8125 2 C-6.89144531 2.37125 -7.97039062 2.7425 -9.08203125 3.125 C-12 4 -12 4 -15 4 C-15 4.66 -15 5.32 -15 6 C-16.65 6 -18.3 6 -20 6 C-20 5.34 -20 4.68 -20 4 C-17.42032203 3.13310822 -14.83723873 2.28126211 -12.25 1.4375 C-11.52039063 1.19064453 -10.79078125 0.94378906 -10.0390625 0.68945312 C-9.33007812 0.46064453 -8.62109375 0.23183594 -7.890625 -0.00390625 C-6.91657715 -0.32597046 -6.91657715 -0.32597046 -5.92285156 -0.65454102 C-3.66555462 -1.06008636 -2.16526518 -0.69296911 0 0 Z " fill="#5686B3" transform="translate(439,506)"/>
<path d="M0 0 C-0.63808594 0.26554687 -1.27617187 0.53109375 -1.93359375 0.8046875 C-2.75988281 1.15789062 -3.58617187 1.51109375 -4.4375 1.875 C-5.26121094 2.22304688 -6.08492188 2.57109375 -6.93359375 2.9296875 C-9.15746715 3.8244937 -9.15746715 3.8244937 -10 6 C-12.06640625 6.4140625 -12.06640625 6.4140625 -14.5625 6.625 C-15.38878906 6.69976562 -16.21507812 6.77453125 -17.06640625 6.8515625 C-18.02353516 6.92503906 -18.02353516 6.92503906 -19 7 C-16.75421292 4.75421292 -14.930208 4.14349581 -12 3 C-11.01 2.34 -10.02 1.68 -9 1 C-3.51428571 -1.17142857 -3.51428571 -1.17142857 0 0 Z " fill="#4B8893" transform="translate(458,498)"/>
<path d="M0 0 C0.66 0.33 1.32 0.66 2 1 C-7 7.13636364 -7 7.13636364 -10.75 6.625 C-11.4925 6.41875 -12.235 6.2125 -13 6 C-10.01397927 3.45635271 -7.82566805 2.66949191 -4 2 C-3.278125 1.62875 -2.55625 1.2575 -1.8125 0.875 C-1.214375 0.58625 -0.61625 0.2975 0 0 Z " fill="#6427E2" transform="translate(417,363)"/>
<path d="M0 0 C-5.61 2.64 -11.22 5.28 -17 8 C-17 7.34 -17 6.68 -17 6 C-15.2421875 5.0234375 -13.484375 4.046875 -11.7265625 3.0703125 C-9.8387386 1.99102726 -9.8387386 1.99102726 -8 0 C-4.69164744 -0.93312508 -3.32320026 -1.10773342 0 0 Z " fill="#6924E9" transform="translate(409,504)"/>
<path d="M0 0 C1.32 0.33 2.64 0.66 4 1 C1.03 3.64 -1.94 6.28 -5 9 C-5.66 8.67 -6.32 8.34 -7 8 C-5.7260411 5.96166576 -4.38938077 3.96147874 -3 2 C-2.34 2 -1.68 2 -1 2 C-0.67 1.34 -0.34 0.68 0 0 Z " fill="#49B174" transform="translate(632,462)"/>
<path d="M0 0 C0.66 0 1.32 0 2 0 C2.375 2.125 2.375 2.125 2 5 C0.20659643 7.23913252 -1.83452663 9.12454539 -4 11 C-4.99 10.67 -5.98 10.34 -7 10 C-5.68 9.01 -4.36 8.02 -3 7 C-3.33 6.34 -3.66 5.68 -4 5 C-2.68 4.67 -1.36 4.34 0 4 C0 2.68 0 1.36 0 0 Z " fill="#58D883" transform="translate(596,417)"/>
<path d="M0 0 C1.98 0 3.96 0 6 0 C4.43611317 3.12777365 2.17752323 3.67121756 -1 5 C-3.67814608 5.50966514 -6.27689379 5.76524946 -9 6 C-6.08596738 4.05731159 -3.14191424 2.53604696 0 1 C0 0.67 0 0.34 0 0 Z " fill="#54AB9D" transform="translate(457,496)"/>
<path d="M0 0 C0.66 0.33 1.32 0.66 2 1 C-1 4 -4 7 -7 10 C-7.99 9.67 -8.98 9.34 -10 9 C-6.7 6.03 -3.4 3.06 0 0 Z " fill="#5B1FCE" transform="translate(662,468)"/>
<path d="M0 0 C0.33 0.66 0.66 1.32 1 2 C-0.61992165 2.86375896 -2.24611861 3.71575854 -3.875 4.5625 C-5.23238281 5.27599609 -5.23238281 5.27599609 -6.6171875 6.00390625 C-7.40351563 6.33261719 -8.18984375 6.66132813 -9 7 C-9.66 6.67 -10.32 6.34 -11 6 C-10.195625 5.731875 -9.39125 5.46375 -8.5625 5.1875 C-7.716875 4.795625 -6.87125 4.40375 -6 4 C-5.67 3.01 -5.34 2.02 -5 1 C-3.35 0.67 -1.7 0.34 0 0 Z " fill="#6723E7" transform="translate(422,495)"/>
<path d="M0 0 C-0.639375 0.103125 -1.27875 0.20625 -1.9375 0.3125 C-2.618125 0.539375 -3.29875 0.76625 -4 1 C-4.33 1.99 -4.66 2.98 -5 4 C-6.98 4 -8.96 4 -11 4 C-7.84441727 0.34616736 -4.73375145 -1.57791715 0 0 Z " fill="#49A57A" transform="translate(490,485)"/>
<path d="M0 0 C-0.66 0 -1.32 0 -2 0 C-2.33 0.66 -2.66 1.32 -3 2 C-3.66 1.67 -4.32 1.34 -5 1 C-5 1.66 -5 2.32 -5 3 C-6.65 3.33 -8.3 3.66 -10 4 C-9.67 2.68 -9.34 1.36 -9 0 C-5.62182575 -0.84454356 -3.32534757 -1.10844919 0 0 Z " fill="#544FBA" transform="translate(418,511)"/>
<path d="M0 0 C0.33 0.99 0.66 1.98 1 3 C-2 5 -2 5 -4.5625 4.8125 C-7 4 -7 4 -9 1 C-7.88625 1.20625 -6.7725 1.4125 -5.625 1.625 C-3.830625 1.810625 -3.830625 1.810625 -2 2 C-1.34 1.34 -0.68 0.68 0 0 Z " fill="#5BC394" transform="translate(698,451)"/>
<path d="M0 0 C-2.93127462 1.95418308 -4.55834679 2.64700993 -8 3 C-8.66 2.34 -9.32 1.68 -10 1 C-6.21812119 -0.83691257 -4.05431692 -1.15837626 0 0 Z " fill="#4FAD89" transform="translate(482,489)"/>
<path d="M0 0 C0.66 0.33 1.32 0.66 2 1 C0.35 2.98 -1.3 4.96 -3 7 C-3.99 6.34 -4.98 5.68 -6 5 C-4.02 3.35 -2.04 1.7 0 0 Z " fill="#53C67F" transform="translate(625,468)"/>
<path d="M0 0 C0.66 0.33 1.32 0.66 2 1 C0.92892883 1.86949317 -0.15745944 2.72014205 -1.25 3.5625 C-1.85328125 4.03816406 -2.4565625 4.51382812 -3.078125 5.00390625 C-5 6 -5 6 -7.234375 5.65234375 C-7.81703125 5.43707031 -8.3996875 5.22179687 -9 5 C-7.54735962 4.1361871 -6.0876837 3.28419546 -4.625 2.4375 C-3.40683594 1.72400391 -3.40683594 1.72400391 -2.1640625 0.99609375 C-1.44992187 0.66738281 -0.73578125 0.33867187 0 0 Z " fill="#6A27EE" transform="translate(404,370)"/>
<path d="M0 0 C0.66 0.66 1.32 1.32 2 2 C1.96712417 4.72869407 1.43602229 7.2966618 1 10 C0.67 10 0.34 10 0 10 C-0.19412181 8.52168779 -0.38012131 7.04230684 -0.5625 5.5625 C-0.66691406 4.73878906 -0.77132812 3.91507812 -0.87890625 3.06640625 C-0.91886719 2.38449219 -0.95882812 1.70257813 -1 1 C-0.67 0.67 -0.34 0.34 0 0 Z " fill="#4AB871" transform="translate(709,362)"/>
<path d="M0 0 C2.31 0.33 4.62 0.66 7 1 C5 3 5 3 1.875 3.125 C0.451875 3.063125 0.451875 3.063125 -1 3 C-0.67 2.01 -0.34 1.02 0 0 Z " fill="#6137DB" transform="translate(389,516)"/>
<path d="M0 0 C0.66 0.33 1.32 0.66 2 1 C0.25 4.875 0.25 4.875 -2 6 C-2.66 5.34 -3.32 4.68 -4 4 C-2.68 2.68 -1.36 1.36 0 0 Z " fill="#51C37F" transform="translate(655,442)"/>
<path d="M0 0 C-2.93828597 2.50298434 -5.17902761 3.46930939 -9 4 C-9 3.01 -9 2.02 -9 1 C-5.8035914 -0.06546953 -3.34252724 -0.07427838 0 0 Z " fill="#57D080" transform="translate(695,338)"/>
<path d="M0 0 C3 1 3 1 3 1 Z " fill="#65A8A7" transform="translate(472,488)"/>
<path d="M0 0 C2 1 2 1 2 1 Z " fill="#5F98A7" transform="translate(468,551)"/>
<path d="M0 0 C2 1 2 1 2 1 Z " fill="#66CA90" transform="translate(537,456)"/>
<path d="M0 0 C2 1 2 1 2 1 Z " fill="#67CF8B" transform="translate(689,336)"/>
<path d="" fill="#6335BD" transform="translate(0,0)"/>
<path d="" fill="#61B290" transform="translate(0,0)"/>
<path d="" fill="#60B292" transform="translate(0,0)"/>
<path d="" fill="#64B298" transform="translate(0,0)"/>
<path d="" fill="#625DB0" transform="translate(0,0)"/>
<path d="" fill="#605DB0" transform="translate(0,0)"/>
<path d="" fill="#6844D9" transform="translate(0,0)"/>
<path d="" fill="#60959C" transform="translate(0,0)"/>
<path d="" fill="#684FD1" transform="translate(0,0)"/>
<path d="" fill="#5E5EB4" transform="translate(0,0)"/>
<path d="" fill="#733FDB" transform="translate(0,0)"/>
<path d="" fill="#65BF90" transform="translate(0,0)"/>
<path d="" fill="#61C38B" transform="translate(0,0)"/>
<path d="" fill="#66CB8F" transform="translate(0,0)"/>
<path d="" fill="#6BC88A" transform="translate(0,0)"/>
<path d="" fill="#65CD8C" transform="translate(0,0)"/>
<path d="" fill="#6E3ADF" transform="translate(0,0)"/>
<path d="" fill="#6D3DE0" transform="translate(0,0)"/>
<path d="" fill="#64CA8E" transform="translate(0,0)"/>
<path d="" fill="#64D088" transform="translate(0,0)"/>
<path d="" fill="#6C3BDC" transform="translate(0,0)"/>
<path d="" fill="#7151CA" transform="translate(0,0)"/>
<path d="" fill="#65CA8B" transform="translate(0,0)"/>
<path d="" fill="#6BCC8A" transform="translate(0,0)"/>
</svg>
